<svg xmlns="http://www.w3.org/2000/svg" viewBox="0 0 227.16 227.22">
  <defs>
    <style>
      .a{fill:#d1a96e}.b{fill:#fff9af}.c{fill:#e6c981}.d{fill:#fcea96}.e{fill:#d5a96a}.g{fill:#fff39f}.h{fill:#caa362}.i{fill:#f4de91}.n{fill:#dabb6b}.o{fill:#fef29c}.p{fill:#caa262}.q{fill:#fdfaad}.s{fill:#fdf4a6}.t{fill:#fdf4a5}.u{fill:#c9a161}.y{fill:#cf9f5f}
    </style>
  </defs>
  <path d="M87.86 98.05c-.65.84-1.1 1.4-1.53 2a43.12 43.12 0 0 0-8.52 18.94 33.89 33.89 0 0 0 1.91 18.47c.08.19.12.41.42.53a24.68 24.68 0 0 1 .36-7.58 20.14 20.14 0 0 1 15.67-15.57 12.23 12.23 0 0 1 11.69 4 13.49 13.49 0 0 1 3.85 10.12 9.22 9.22 0 0 1-7.45 8.61 8.39 8.39 0 0 1-5.54-1.07l-1.29-.74a14.15 14.15 0 0 0 .61 5.39 21.31 21.31 0 0 0 9.87 12.56 34.65 34.65 0 0 0 7.45 3.36 2.46 2.46 0 0 1 1.15.51c-3 2.19-6.38 2.7-10 2.91a1.82 1.82 0 0 0 1 .51 26.91 26.91 0 0 0 14.41 0 42.39 42.39 0 0 0 19.59-11.09 13.7 13.7 0 0 0 2.78-3.81l-1.3.79a32.69 32.69 0 0 1-13.44 5 19.34 19.34 0 0 1-7.87-.47c-5.39-1.61-8.43-5.39-9.68-10.74a19.42 19.42 0 0 1-.14-8 8.51 8.51 0 0 1 2.4-4.57 12.26 12.26 0 0 1 9.07-3.79 5.57 5.57 0 0 1 5 2.81 10.7 10.7 0 0 1 1.43 8.11c.25.27.53.09.8 0a14.37 14.37 0 0 0 8.41-7.94 24.35 24.35 0 0 0 2.12-9 43.32 43.32 0 0 0-.41-9.31 2 2 0 0 1 .06-1.26c3.61 1.25 5.89 4 8 7-.78-6.56-4.31-11.65-8.68-16.4a10.49 10.49 0 0 1 2.69-.2 2.65 2.65 0 0 1 2.6 1.17 40.67 40.67 0 0 1-21.26 65.42c-22.49 5.71-45.5-8.83-49.77-31.6-2.36-12.61.65-23.92 8.71-33.91a2.53 2.53 0 0 1 2.39-1.09 23.68 23.68 0 0 0 2.44-.07Z" class="a"/>
  <path d="M14.51 21.42a3.75 3.75 0 0 1 1.46.64A146 146 0 0 0 47.78 34.6a144.08 144.08 0 0 0 17.73 3.24c12.84 1.62 25.74 2.2 38.66 2.65 11 .38 22.08 0 33.12-.53 5.41-.25 10.81-.61 16.21-1.12 10.4-1 20.75-2.36 30.81-5.37a148.93 148.93 0 0 0 27.56-11.48 2.73 2.73 0 0 1 1.2-.52 6.75 6.75 0 0 1-.22 2.61 41.11 41.11 0 0 1-2.53 9.62 19.07 19.07 0 0 1-1.18 2.4 8.82 8.82 0 0 1-4.31 3.84 64.86 64.86 0 0 1-11.86 3.52c-6.27 1.32-12.6 2.17-19 2.86-9.07 1-18.17 1.62-27.29 2.07-8.26.41-16.53.63-24.81.8-10.66.23-21.32-.07-32-.42-6.57-.22-13.13-.59-19.68-1-8.42-.56-16.83-1.32-25.19-2.53a115.43 115.43 0 0 1-18.11-3.8c-1.39-.43-2.73-1-4.07-1.51a8.58 8.58 0 0 1-4.31-3.83 21.12 21.12 0 0 1-1.38-2.88 45.43 45.43 0 0 1-2.62-11.8Z" class="b"/>
  <path d="M196.22 44.73c-1 5.37-3 9.92-7.3 13.22a10.31 10.31 0 0 1-4.15 1.59 82.23 82.23 0 0 1-10.36 1.57c-12.32 1.21-24.68 1.65-37 1.87-2.6 0-5.21.12-7.81.16-1 0-1 0-1-1V58.3c0-.53-.14-.82-.72-.76h-26.51c-1.53 0-1.4-.17-1.4 1.34v3.33c0 .87 0 .9-.93.88-3 0-6-.11-9-.15-6.35-.09-12.7-.32-19-.63-7.37-.36-14.73-.82-22.05-1.79a65.58 65.58 0 0 1-6.66-1.24 10.22 10.22 0 0 1-5.11-3 20.87 20.87 0 0 1-5.35-10.85 4.31 4.31 0 0 1 0-.74 564.12 564.12 0 0 0 82.07 6 554.13 554.13 0 0 0 82.28-5.96Z" class="b"/>
  <path d="M101.92 75.39v-14c0-1.22 0-1.09 1.12-1.09h22.52c1.12 0 1.13 0 1.13 1.1v28c0 1 0 1-1.07 1h-22.65c-1 0-1 0-1-1-.06-4.63-.05-9.32-.05-14.01Z" class="b"/>
  <path d="M114.96 106.78a23.33 23.33 0 0 0-10.11-3.7c-6.3-.71-11.75 1.36-16.67 5.14-1 .77-2 1.62-2.92 2.43-.28-.15-.18-.38-.15-.56a27.19 27.19 0 0 1 3.31-9.61c.09-.14.17-.29.27-.44 1.28-2 1.28-2 3.68-2h31.85a4.34 4.34 0 0 1 2.83.94 13.27 13.27 0 0 1 4.68 7.14 15.31 15.31 0 0 1 .52 7.45 12.85 12.85 0 0 1-12.51 10.08 13.44 13.44 0 0 1-7.85-2.34 9.41 9.41 0 0 1-4.32-8 6.47 6.47 0 0 1 6.5-6.37 1.31 1.31 0 0 0 .89-.16Z" class="a"/>
  <path d="M173.96 115.37a3.14 3.14 0 0 1 .18 1.25q.69 14.24 1.39 28.46c.09 2 .21 4 .31 6 0 .84 0 .87-.78.87h-16.75c-.61 0-.87-.18-.8-.8a4.34 4.34 0 0 0 0-.51v-34c0-.34 0-.68.06-1a1.23 1.23 0 0 1 1-.45c1.66.22 3.33-.76 5 0 .37.18.71-.13 1.05-.3a4.36 4.36 0 0 1 4.59.11 3.23 3.23 0 0 0 2.7.15c.71-.14 1.42-.31 2.05.22Z" class="c"/>
  <path d="M114.24 96.52H74.06c-1 0-1.07 0-1.07-1v-7.55c0-1 0-1 1-1H99.45c.58 0 .71.24.71.77V92.85c0 .29.12.65.57.62h26.49a4.34 4.34 0 0 1 .51 0c.7.1.85-.26.83-.89v-4.73c0-.63.13-1 .84-.89s1.28 0 1.92 0h23.41c.64-.07.78.23.78.82V95.97c0 .42-.13.64-.58.62s-.68 0-1 0Z" class="d"/>
  <path d="M73.02 167.02v11.65c0 1.28 0 1.29-1.22 1.29H50.17a4.34 4.34 0 0 0-.51 0c-.57 0-.74-.23-.69-.77.14-1.48.25-3 .38-4.46.31-3.48.63-7 .94-10.44.27-3.1.53-6.2.81-9.3.08-.89.1-.91 1-.91h20c.93 0 1 0 1 1-.07 4.01-.08 7.98-.08 11.94ZM155.51 166.95v-11.76c0-1.1 0-1.11 1.13-1.11h19.58c1 0 1 0 1.14 1 .33 3.47.64 6.95.95 10.43.4 4.42.78 8.83 1.19 13.25.1 1.18.13 1.19-1.11 1.19h-21.78c-1.12 0-1.14 0-1.14-1.11Z" class="e"/>
  <path d="M85.51 135.17c0 .43.08.85.08 1.27v28.25c0 1.62.1 1.42-1.45 1.43H68.02c-.6.07-.84-.17-.8-.79.09-1.41.12-2.81.19-4.22.23-4.67.48-9.35.71-14 .28-5.4.54-10.81.81-16.21a1.52 1.52 0 0 1 .17-.86c.71.57.51 1.39.54 2.13.06 2 .31 2.25 2.32 2.25h11.09a3 3 0 0 1 2.46.75Z" style="fill:#dfbe79" transform="translate(-14.49 -14.16)"/>
  <path d="M55.38 100.74a3 3 0 0 1 0-1.23c.31-1.29-.08-2.61.21-3.9-.05-3 .25-6 .37-9.06.18-4.43.45-8.85.68-13.27.06-1.14 0-1.15 1.1-1.15h12.41c.6 0 .92.09.91.82v29.4a1 1 0 0 1 0 .25 2.26 2.26 0 0 1-1.35.27H57.22c-1.9-.03-2.09-.28-1.84-2.13ZM157.56 101.56c0-.43-.05-.85-.05-1.28v-27.1c0-1 0-1 1-1.06H170.91c.9 0 .91 0 1 .9q.38 7.22.74 14.42c.2 4 .38 7.91.57 11.87v.89c.33 1-.29 1.2-1 1.33-4.38.75-8.8.53-13.21.53a1.78 1.78 0 0 1-1.45-.5Z" class="g"/>
  <path d="m113.82 227.22-33-33.24c-.1.05-.05 0 0 0a39.47 39.47 0 0 0 8.69 2.86 2.35 2.35 0 0 1 1.21.88q7.95 8 15.88 16l6.66 6.73c1 1 .85 1 1.84 0q8.68-8.87 17.35-17.74l4.92-5a2.53 2.53 0 0 1 1.14-.87 61.4 61.4 0 0 0 7.9-2.94.67.67 0 0 1 .66 0Z" class="h"/>
  <path d="M55.38 100.74c.11 1.58.11 1.59 1.66 1.59h12.37a3.06 3.06 0 0 1 1.61.25 8.89 8.89 0 0 1 .07.89v16.78c0 .26 0 .51-.06.76-4.66-.54-9.34-.14-14-.25-2.06 0-2.34-.28-2.36-2.36v-2.55c0-3.14.29-6.27.38-9.41 0-1.36.11-2.71.19-4.07a4.3 4.3 0 0 1 .14-1.63Z" class="i"/>
  <path d="M54.33 86.98a2.17 2.17 0 0 1 .05 1.13c-.18 2.51-.39 5-.55 7.52 0 .63-.22.9-.9.9H25.04a2.45 2.45 0 0 1-.37-.08c0-1.87-1-3.58-.79-5.51a5.54 5.54 0 0 1 .53-2.17c.37-.55-.07-1.22.26-1.77 1.55-.12 3.06-.69 4.65-.53 8.11.86 16.25.19 24.37.4a1 1 0 0 1 .64.11ZM203.62 96.41a2.84 2.84 0 0 1-1.26.1h-26.85a.49.49 0 0 1-.58-.5c-.3-3-.61-5.93-.91-8.89 0 0 .11-.11.16-.17a3.12 3.12 0 0 1 1.39-.1c5.86 0 11.73-.07 17.59 0 1.75 0 3.43-.42 5.16-.45s3.5.5 5.27.55c.46 3.18.92 6.32.03 9.46Z" class="d"/>
  <path d="m159.73 51.67-12.33.57a6.05 6.05 0 0 1-1.64-.16 75.51 75.51 0 0 0-21.71-1.86 92.42 92.42 0 0 0-13 1.89 5.47 5.47 0 0 1-1.39.14l-12.23-.56c.19-.52.65-.58 1-.74a60.24 60.24 0 0 1 13.87-4.35 85.38 85.38 0 0 1 20.49-1.47 69.42 69.42 0 0 1 23.55 4.8 17.54 17.54 0 0 1 3.39 1.74Z" style="fill:#fffaac" transform="translate(-14.49 -14.16)"/>
  <path d="M172.05 115.72h10a5.76 5.76 0 0 0 1.89-.22 7.23 7.23 0 0 1 2.77-.29c.63 0 1-.2 1-.84a1.61 1.61 0 0 1 .1.36c.12 3.21.44 6.42.4 9.64.3 1.28-.09 2.6.22 3.89a3.61 3.61 0 0 1 0 1.27 5 5 0 0 0-2.11.37 5.24 5.24 0 0 1-2.4.11.58.58 0 0 1-.43-.22c-.48-.94-1.34-.75-2.13-.76a2.62 2.62 0 0 0-2.23.64c-.54.58-1 .54-1.69 0-.43-.31-.78-.49-1.25-.13a1.87 1.87 0 0 1-1.23.24h-2.93c-.03-4.68-.09-9.37.02-14.06Z" style="fill:#f3dd90" transform="translate(-14.49 -14.16)"/>
  <path d="M33.77 147.5 0 113.14l5.36-5.52a1.16 1.16 0 0 1 0 .94 5.65 5.65 0 0 0 1.52 5.52c6.71 6.8 13.55 13.46 20.37 20.15.91.9 1.88 1.74 2.72 2.7s.78 2.4 1.21 3.59c.71 2 1.46 3.91 2.32 5.81l.45 1Z" class="h"/>
  <path d="M41 120.29h16.66a4 4 0 0 1 3.65 5.86 3.11 3.11 0 0 1-2.58 1.85 10.23 10.23 0 0 1-1.66 0 5.73 5.73 0 0 0-2.14.3 2.5 2.5 0 0 0-1.73 2.56 2.14 2.14 0 0 0 1.67 2.27 6.08 6.08 0 0 0 2 .3c2.81.12 5.62.08 8.44.06 1.21 0 1.23 0 1.14 1.2-.23 3-.44 6-.65 8.92-.08 1.2-.06 1.21-1.23 1.21H44.5a8.06 8.06 0 0 1-3-.56 5.38 5.38 0 0 1-3.29-6.24 5.11 5.11 0 0 1 5.1-4.49 13.08 13.08 0 0 0 2.42-.17 6.45 6.45 0 0 0 1-.27 2.28 2.28 0 0 0 1.6-2.11 2.31 2.31 0 0 0-1.44-2.23 6.38 6.38 0 0 0-2.87-.53H25.47a7 7 0 0 1-2.27-.29 3.94 3.94 0 0 1-2.65-4.55 3.45 3.45 0 0 1 3.73-3.13h16.76Z" style="fill:#8a7e55" transform="translate(-14.49 -14.16)"/>
  <path d="M216 143.17h-16.92a3.67 3.67 0 0 1-3.87-2.7 5.81 5.81 0 0 1-.08-3 3.43 3.43 0 0 1 3.61-2.48 9 9 0 0 0 3.64-.51 2.23 2.23 0 0 0 .45-3.92 3.51 3.51 0 0 0-.91-.45 4.37 4.37 0 0 0-1.76-.24H192c-1.16 0-1.15 0-1.24-1.21-.23-2.8-.48-5.6-.71-8.4 0-.26 0-.52-.05-.77 0-1.12 0-1.13 1.1-1.13H214a4.91 4.91 0 0 1 4.95 4.85v1.28a4.87 4.87 0 0 1-4.39 5.11 13.56 13.56 0 0 1-2.55.19 4.19 4.19 0 0 0-2.21.52 2.15 2.15 0 0 0-1.17 2.11 2.23 2.23 0 0 0 1.32 2 2.87 2.87 0 0 0 1.22.32c.86 0 1.71.11 2.56.11h18.68c2.91 0 4.31 1.35 4.33 4.27s-1.75 4.11-4 4.09c-5.59-.08-11.18-.04-16.74-.04Z" style="fill:#8a7d55" transform="translate(-14.49 -14.16)"/>
  <path d="M203.62 96.41v-9.42c.39.35.23.81.19 1.2a2.53 2.53 0 0 0 .89 2.12q10.81 10.78 21.6 21.6c1.16 1.17 1.16 1.17 0 2.29-1.69 1.69-3.4 3.36-5 5.07a2.17 2.17 0 0 1-1.8.73h-4.56a2.41 2.41 0 0 1 .76-1c2-1.89 3.93-3.78 5.91-5.65.43-.4.5-.66 0-1.12q-8.67-8.61-17.29-17.24a3 3 0 0 0-.32-.21c-.49.48.12 1.19-.38 1.63Z" class="h"/>
  <path d="M50.01 153.45h-2c-.5 0-.67.2-.66.68v3.92c-.57-.13-.73-.55-1-.86a57.47 57.47 0 0 1-6-10.52 89.42 89.42 0 0 1-4.58-12.46 3.71 3.71 0 0 1-.29-1.63h4.67c.44 0 .56.28.68.63.36 1.14.73 2.27 1.12 3.4a73.82 73.82 0 0 0 7.82 16.05c.17.18.41.37.24.79ZM178.59 153.18a5.85 5.85 0 0 1 .28-.59 81.92 81.92 0 0 0 9-20.42c.08-.28.16-.57.25-.85a.57.57 0 0 1 .56-.44h3.84c.55 0 .45.41.37.74-.23 1-.47 2-.74 3a68.38 68.38 0 0 1-10.5 22.31 2.54 2.54 0 0 1-1 1v-3.33c0-1.53.16-1.36-1.36-1.38Z" class="n"/>
  <path d="m50.51 61.7.76 3.76a5.14 5.14 0 0 0 .24 1.11c.6 1.23.16 2.19-.54 3.25a90.67 90.67 0 0 0-6.11 10.77c-.29.62-.57 1.24-.83 1.87s-.34 1.49-.8 1.84-1.48.13-2.25.15h-2.93c.08-3.41 8.76-19.3 12.46-22.75ZM177.45 61.47a60.56 60.56 0 0 1 12.75 22.46h-4.8c-.49 0-.46-.43-.56-.73a46.53 46.53 0 0 0-3.05-7.16 49.18 49.18 0 0 0-4.85-7.49c-.29-.37-.61-.69-.5-1.24.34-1.83.63-3.67 1.01-5.84Z" class="o"/>
  <path d="M174 63.76c-.39 2.13-.76 4.09-1.1 6-.07.36-.24.52-.59.52h-15c-1.12 0-1.13 0-1.29-1s-.32-2.19-.52-3.27c-.11-.61.06-.81.7-.86 2.72-.18 5.43-.45 8.15-.66 3.16-.25 6.31-.48 9.65-.73ZM73 65.22c-.25 1.59-.48 3.05-.68 4.52-.06.42-.23.62-.65.59h-15c-1 0-1 0-1.23-1-.34-1.8-.65-3.6-1-5.59Z" class="b"/>
  <path d="M97 16.28c.67.87 1.25 1.65 1.88 2.4a.68.68 0 0 1-.07 1.08c-1.47 1.48-2.92 3-4.37 4.49q-3.17 3.27-6.31 6.53a3.39 3.39 0 0 1-1.72 1 47.15 47.15 0 0 0-6.9 2.38c5.73-6.04 11.6-11.91 17.49-17.88ZM148.63 34.26a49.41 49.41 0 0 0-7.64-2.58 2.27 2.27 0 0 1-1.06-.67q-5.42-5.61-10.86-11.17c-.41-.41-.5-.7-.09-1.17.61-.7 1.15-1.47 1.84-2.36ZM24.41 88.75c.09 2.56.17 5.12.26 7.68-.52-.52 0-1.23-.33-1.8-.42.06-.61.42-.87.68q-4.51 4.5-9 9a2.33 2.33 0 0 1-1.89.8 14.34 14.34 0 0 0-5.15.72c-.14-.36.14-.48.29-.63q8.13-8.11 16.29-16.21a2.34 2.34 0 0 1 .4-.24Z" class="p"/>
  <path d="M113.21 13.61a27.27 27.27 0 0 1 0 7 3.92 3.92 0 0 1-2.7 3.4 7.24 7.24 0 0 1-2.87.46c-1.08 0-1.08 0-1.29-1.13 0-.21 0-.43-.2-.6a.43.43 0 0 0-.23 0c-1.3.23-1.3.23-1.64-1.06a6.88 6.88 0 0 1-.26-2 4.34 4.34 0 0 1 2.84-4.15 49.48 49.48 0 0 1 6.35-1.92ZM101.31 7.68a7.13 7.13 0 0 1 3.81-1.95 4.26 4.26 0 0 1 4 1.53 62.3 62.3 0 0 1 3.77 5.34 6.8 6.8 0 0 1-2.11 1 29.89 29.89 0 0 1-4.14 1.24 4.25 4.25 0 0 1-4.93-2 9.5 9.5 0 0 1-1-2.22.87.87 0 0 1 .52-1.22c.86-.42.84-.47.33-1.24ZM118.1 14.05l-3.4-1.36a31.44 31.44 0 0 1 4.37-5.75 4 4 0 0 1 4.26-.92 7.25 7.25 0 0 1 2 1.05c1.12.8 1.15.81.58 2.09-.19.45 0 .58.35.74.86.37.85.38.56 1.25a6.66 6.66 0 0 1-1.43 2.54A4.74 4.74 0 0 1 120.7 15a21.34 21.34 0 0 1-2.6-.95ZM113.89 12.52a31.39 31.39 0 0 1-4.33-5.88 4 4 0 0 1 .32-4.35 6.88 6.88 0 0 1 1.1-1.24c1.48-1.35 1.51-1.35 3-.16.08 0 .18 0 .23-.06.86-1.06.86-1.06 1.93-.23a5.16 5.16 0 0 1 2.37 4.18 4.32 4.32 0 0 1-.74 2.53c-1.26 1.69-2.52 3.36-3.88 5.21ZM120.42 15.3c.34.18.69.33 1 .53a4.09 4.09 0 0 1 2.09 3.45 6.85 6.85 0 0 1-.37 2.63c-.32.9-.24 1.33-1.48 1-.64-.15-.85.13-.76.74s-.17.77-.71.78a7.5 7.5 0 0 1-3.25-.54 4.21 4.21 0 0 1-2.66-3.61 64.54 64.54 0 0 1 0-6.67 23.81 23.81 0 0 1 3.26.66 23.23 23.23 0 0 1 2.88 1.03Z" class="q"/>
  <path d="M194.04 146.42c.58-1.48 1.26-2.89 1.73-4.39a11.25 11.25 0 0 0 .62-2.08 5.46 5.46 0 0 1 2.13-3.6c1.77-1.53 3.47-3.16 5.15-4.79a2.36 2.36 0 0 1 1.84-.72h4.24c-.56 1.28-12.05 12.7-15.71 15.58Z" class="p"/>
  <path d="M50.29 119.3h-1.91c-.63 0-.79-.17-.72-.73.19-1.48.35-3 .55-4.43.07-.54.29-.91 1-.88 1.23.06 2.46 0 3.69 0 .59 0 .74.23.63.77a21 21 0 0 0-.56 4.67c0 .45-.22.59-.62.58Z" style="fill:#f6e094" transform="translate(-14.49 -14.16)"/>
  <path d="M180.92 78.95c-.25 1.76-.46 3.35-.71 4.94s-.26 1.57-1.85 1.57h-3.45c-.47 0-.7-.13-.71-.64 0-1-.13-2-.2-2.94 0-.32 0-.6.4-.65a19.78 19.78 0 0 0 6.52-2.28Z" class="s"/>
  <path d="M47.8 79.14c.48-.12.76.19 1.08.34a16 16 0 0 0 5.06 1.68c.59.06.8.31.73.91-.1.88-.14 1.78-.18 2.67 0 .53-.21.74-.77.73h-4.21c-.62 0-.83-.2-.9-.76-.25-1.87-.53-3.7-.81-5.57Z" class="t"/>
  <path d="M54.33 86.98H24.68a.69.69 0 0 1 .6-.14 1.86 1.86 0 0 0 1.66-.74c2.41-2.42 4.83-4.82 7.25-7.23l.68-.61a3.43 3.43 0 0 1-.59 1.39 32.28 32.28 0 0 0-2.57 6c-.37 1.18-.35 1.2.88 1.2h20.37a2.23 2.23 0 0 1 1.37.13ZM203.6 86.98c-1.33.15-2.64-.06-4 0-8 .14-15.95.07-23.92.08-.51 0-1 0-1.53-.07a2.7 2.7 0 0 1 1.38-.12h19.19c1.54 0 1.55 0 1.07-1.45a38 38 0 0 0-2.18-5 5.7 5.7 0 0 1-.64-1.69c.25.23.53.45.77.7 2.14 2.14 4.3 4.26 6.39 6.45a2.72 2.72 0 0 0 2.45 1 1.15 1.15 0 0 1 1.02.1Z" class="u"/>
  <path d="M149.9 79.67a21.32 21.32 0 0 0 5.15 1.64c.41 0 .45.3.45.62v2.94c0 .44-.18.59-.61.59h-3.83c-.38 0-.64-.08-.68-.54-.14-1.69-.3-3.38-.48-5.25Z" class="s"/>
  <path d="M78.51 79.69c0 1.88-.3 3.59-.45 5.31 0 .38-.29.46-.62.46h-3.82c-.43 0-.62-.13-.61-.58v-3.06c0-.29.1-.47.43-.51a21.92 21.92 0 0 0 5.07-1.62Z" class="t"/>
  <path d="M114.61 206.29a60.51 60.51 0 0 1-6.17-1.37c.1-.5.49-.67.74-.93a5.39 5.39 0 0 0 1.75-3c.06-.46.28-.55.7-.41a14.71 14.71 0 0 0 2.84.69c.47.06.57.31.47.71a16.93 16.93 0 0 0-.33 4.31Z" style="fill:#d49e68" transform="translate(-14.49 -14.16)"/>
  <path d="M143.57 206a16.91 16.91 0 0 0-.49-4.86c1.23-.29 2.39-.5 3.51-.88.25-.09.53-.11.57.26a6 6 0 0 0 2.33 3.69 2 2 0 0 1 .24.42 54.42 54.42 0 0 1-6.16 1.37Z" style="fill:#d59e69" transform="translate(-14.49 -14.16)"/>
  <path d="M203.82 113.39H208a.68.68 0 0 1 .76.51 12.33 12.33 0 0 1 .49 2.49c0 .32-.11.47-.42.47h-3.94c-.45 0-.54-.29-.6-.66-.12-.88-.29-1.75-.47-2.81Z" style="fill:#f5e095" transform="translate(-14.49 -14.16)"/>
  <path d="M55.63 95.61a11.13 11.13 0 0 1-.21 3.9 15.92 15.92 0 0 1 .21-3.9Z" class="i"/>
  <path d="M173.91 114.1a10.85 10.85 0 0 1-.22-3.89 15.37 15.37 0 0 1 .22 3.89Z" class="c"/>
  <path d="M24.67 86.98c0 .59.25 1.24-.26 1.77.17-.58-.23-1.24.26-1.77Z" class="u"/>
  <path d="M126.56 190.3a12.58 12.58 0 0 0-3.32-7.46c-3.69-3.75-8.16-4.61-13.07-3.08a11 11 0 0 0-8 8.62 16 16 0 0 0 0 6 9.39 9.39 0 0 0 6.58 7.77l1.91.71c2.6 1 3.68 3 3.88 5.65a8.2 8.2 0 0 1-1.37 4.64 3.11 3.11 0 0 0 1.33-.6 31.57 31.57 0 0 0 6.67-5.53 19.94 19.94 0 0 0 5.39-16.72Zm-13.4-.21a2.52 2.52 0 1 1 2.64-2.4 2.54 2.54 0 0 1-2.64 2.4ZM94.51 182.61a7.64 7.64 0 0 0-5.6-6.35c-2.38-.7-4.56 0-6.59 1.25a5.57 5.57 0 0 0-2.9 4.81c0 .51-.06 1-.08 1.53a4 4 0 0 1-4.21 4c-.36 0-.74-.13-1.09 0 0 .29.2.38.35.5a18.72 18.72 0 0 0 6.25 3.39 12 12 0 0 0 10.73-1.61 7 7 0 0 0 3.14-7.52Zm-5.2 1.41a2 2 0 0 1-2-2 2.09 2.09 0 0 1 2-2 2 2 0 0 1 2.08 2 2 2 0 0 1-2.1 2ZM146.51 176.31a7.14 7.14 0 0 0-7.55-1.8 7.77 7.77 0 0 0-5.62 6.66c-.41 3.41 1.42 5.84 4.07 7.71a4.87 4.87 0 0 0 2.79.81 10.92 10.92 0 0 0 3-.52 4.05 4.05 0 0 1 5.18 3 2.22 2.22 0 0 0 .37 1.06 18 18 0 0 0 1.56-5.09c.67-4.54-.36-8.59-3.8-11.83Zm-7.47 6.23a2.002 2.002 0 1 1 .2-4 2.002 2.002 0 1 1-.2 4Z" class="y"/>
  <path d="M53.58 143.66H44a5 5 0 0 1-3.31-1.15c-1.53-1.26-1.58-3.76-1-5.33a3.91 3.91 0 0 1 3.93-2.52 11.13 11.13 0 0 0 3-.29 3.42 3.42 0 0 0 2.78-3.24 3.46 3.46 0 0 0-2.51-3.58 7.72 7.72 0 0 0-2.78-.36H25.83a7.4 7.4 0 0 1-2.15-.25c-1.55-.46-2.18-1.62-1.94-3.54a2.37 2.37 0 0 1 2.53-2H56.9a5.5 5.5 0 0 1 2 .28 2.21 2.21 0 0 1 1.54 2 8.85 8.85 0 0 1 0 1 2.17 2.17 0 0 1-2.32 2.32h-2.3a3.89 3.89 0 0 0-3.72 3.27 3.2 3.2 0 0 0 1.7 3.65 6.18 6.18 0 0 0 3.07.73h7.29c1.12 0 1.17 0 1.1 1.16-.14 2.38-.34 4.75-.49 7.13 0 .78-.57.72-1.08.72H53.58Z" style="fill:#edd084" transform="translate(-14.49 -14.16)"/>
  <path d="M216 142.08h-16.73a2.77 2.77 0 0 1-3.06-2.16 4.49 4.49 0 0 1-.06-2 2 2 0 0 1 1.58-1.67 7.07 7.07 0 0 1 2.15-.24 6.61 6.61 0 0 0 2.75-.45 3 3 0 0 0 2.23-2.66 3.48 3.48 0 0 0-1.9-3.6 4.84 4.84 0 0 0-2.34-.53h-8.06c-.53 0-.75-.27-.79-.79-.18-2.5-.39-5-.55-7.51-.06-1 0-1.09 1.06-1.09h21.11c1.59 0 3.09.43 3.87 2a5.33 5.33 0 0 1 0 5.27 4 4 0 0 1-3.56 1.89 14.15 14.15 0 0 0-3.31.27 3.5 3.5 0 0 0-2.73 4.45 3.37 3.37 0 0 0 2.43 2.4 7.22 7.22 0 0 0 2.27.28h20.21c2.14 0 3 .86 3 3a3.62 3.62 0 0 1-.23 1.75 2.47 2.47 0 0 1-2.4 1.39h-8.18Z" style="fill:#edcf83" transform="translate(-14.49 -14.16)"/>
</svg>