<svg xmlns="http://www.w3.org/2000/svg" viewBox="0 0 237.84 256">
  <defs>
    <style>
      .a{fill:#fff2ae}.b{fill:#c6ae7e}.c{fill:#988159}
    </style>
  </defs>
  <path d="M64.78 250.13a2.29 2.29 0 0 1-2-1.89 2.36 2.36 0 0 1 1-2.51c3-2.42 6-4.82 9-7.25a2 2 0 0 1 1.41-.42h26.4c.37-.46.89-.41 1.4-.41 2.46 0 4.93-.09 7.4.08a1.82 1.82 0 0 0 .56-.09h18.75c1.84.05 3.68 0 5.52 0h1.9a1.15 1.15 0 0 1 1 .38h25.52a2.35 2.35 0 0 1 1.57.51c3 2.38 6.09 4.73 9.15 7.08a2.41 2.41 0 0 1 1.08 2.64 2.27 2.27 0 0 1-1.95 1.85 3.08 3.08 0 0 1-1.13.07c-15.11 0-30.21-.09-45.32.07-3.58 0-7.17.38-10.75.23-16.62-.67-33.24-.09-49.86-.3a1.35 1.35 0 0 1-.65-.04ZM178.62 77.71h28.19a.64.64 0 0 1 .06.1s0 .07 0 .09l-4.56 6.92c.15.31.41.19.61.19h9.36a1.24 1.24 0 0 0 1-.38c3-3.28 6.08-6.53 9.13-9.79.06-.07.1-.15.16-.23-.14-.29-.39-.17-.59-.17h-3.25a1.35 1.35 0 0 0-1.14.53c-1.78 2-3.58 3.9-5.35 5.86a1.41 1.41 0 0 1-1.22.56h-2.86c-.11-.34.14-.5.25-.72a.83.83 0 0 1 .09-.16c1.49-3 4-5.27 6.26-7.65a3.9 3.9 0 0 1 3.15-1.3c4.17.09 8.35 0 12.52 0a2.28 2.28 0 0 1 1 .08 1.88 1.88 0 0 1-.54.64q-10.09 10.11-20.2 20.23a2 2 0 0 1-1.58.66H194.1c-.27.4-.7.39-1.11.4h-5.7a3.64 3.64 0 0 1-1.45-.39 4.37 4.37 0 0 0-1.14-.06c-6.09 0-12.18.09-18.27 0-3.31-.06-6.62-.06-9.93-.12a1.48 1.48 0 0 0-1.29.59q-4.62 5.43-9.26 10.83a12 12 0 0 1-1 1c-.31.29-.29.49 0 .78l3 3c.61.61.64.53 0 1.18-1.91 2-3.81 3.94-5.72 5.9-.55.57-.47.74-1.16 0l-5.68-5.68c-.56-.57-.56-.58 0-1.21l16.55-19.32c2.16-2.51 4.33-5 6.47-7.55 1.29-1.54 2.72-3 4.1-4.42a1.42 1.42 0 0 1 1.17-.46h6.31a1.41 1.41 0 0 1 1-.39h6.12a5.64 5.64 0 0 1 1.51.46ZM68.81 77.71h5.07a1.71 1.71 0 0 1 1.33.56c3 3 5.7 6.36 8.49 9.59q9.33 10.83 18.63 21.69c.81.94.79.67-.07 1.54-1.77 1.79-3.55 3.56-5.33 5.35-.22.23-.4.49-.66.8l-6.54-6.74a1.57 1.57 0 0 1 .55-.7q1.65-1.67 3.31-3.31c.29-.28.41-.47.07-.85-3.48-3.81-6.76-7.8-10.14-11.7a1.79 1.79 0 0 0-1.52-.73H52.94a3.32 3.32 0 0 1-1.64.4h-6.35a1.64 1.64 0 0 1-1.4-.43H28.92a2.58 2.58 0 0 1-2.05-.85Q17 82.39 7.07 72.49c-.25-.24-.48-.49-.7-.73.18-.31.43-.2.63-.2h14a1.59 1.59 0 0 1 1.24.55l5.63 5.6a.44.44 0 0 1 .14.13c.74 1.17 1.47 2.36 2.3 3.69h-3.48c-.38 0-.55-.28-.76-.51-1.79-2-3.58-3.89-5.36-5.86a1.44 1.44 0 0 0-1.21-.55h-3.16c-.2 0-.43-.07-.67.16l.61.69c2.83 3 5.67 6 8.49 9.09a1.72 1.72 0 0 0 1.38.64h9.94c-1.59-2.55-3.27-4.87-4.9-7.45h28.09a6.16 6.16 0 0 1 2.52-.41h5.74a1.52 1.52 0 0 1 1.27.38Z" class="a"/>
  <path d="M49.57 196.38H95.19A2.37 2.37 0 0 1 97.5 198a2.32 2.32 0 0 1-.85 2.72c-1.54 1.24-3.11 2.45-4.66 3.67-1.3 1-2.62 2-3.91 3.08a4.85 4.85 0 0 1-3.17 1.11h-71a4.59 4.59 0 0 1-3-1q-4.2-3.39-8.42-6.76a2.51 2.51 0 0 1-.99-1.94 2.42 2.42 0 0 1 1.9-2.43 5.94 5.94 0 0 1 1.33-.07ZM188.5 196.38h44.75a7.26 7.26 0 0 1 1.24.06 2.23 2.23 0 0 1 1.9 1.67 2.27 2.27 0 0 1-.71 2.51c-.28.25-.6.48-.9.72-2.6 2-5.22 4.08-7.81 6.15a5 5 0 0 1-3.26 1.12h-70.77a4.82 4.82 0 0 1-3.18-1.07c-2.75-2.23-5.52-4.44-8.28-6.64a2.65 2.65 0 0 1-1.13-1.81 2.38 2.38 0 0 1 2.06-2.66 7.2 7.2 0 0 1 1.14-.05Z" class="b"/>
  <path d="M134.05 86c-4 3.62-8 7.24-12.2 10.59-.57.46-1.16.9-1.77 1.31-1.2.82-1.38.8-2.44-.25a17.29 17.29 0 0 1-1.23-1.33 108.14 108.14 0 0 1-11.47-16.67c-.1-.2-.2-.4-.31-.59a.49.49 0 0 1 .12-.68c.33-.29.65-.61 1-.91 3-2.75 5.93-5.51 9-8.1.63-.53 1.29-1 2-1.5a1 1 0 0 1 1.46.08 8.16 8.16 0 0 1 2.18 3.21.79.79 0 0 1-.23.95c-.41.4-.81.81-1.24 1.19-1.81 1.65-3.73 3.2-5.48 4.91a13.84 13.84 0 0 0-1.11 1.19c-.52.62-.53.75-.12 1.44.3.49.63 1 1 1.42a49.51 49.51 0 0 0 5.67 6.59c1.66 1.57 1.41 1.38 2.93.14 4.17-3.42 8.09-7.12 12.07-10.75l3.12-2.87a6.23 6.23 0 0 1 .93 1.25A44.29 44.29 0 0 1 142.42 87c.39 1.28.67 2.59 1.08 3.86a1.17 1.17 0 0 1-.4 1.33l-14 14-6.6 6.6a4.9 4.9 0 0 1-5.28 1.25 5.09 5.09 0 0 1-2-1.36l-21-21-6.35-6.36a12.59 12.59 0 0 1 0-18.16L91.03 64a1.68 1.68 0 0 1 .51.91 144.31 144.31 0 0 0 10.52 21.19 183.68 183.68 0 0 0 15.06 21.17 24.11 24.11 0 0 0 1.83 2c.45.45.57.43 1 0a13.85 13.85 0 0 0 1-1A84.36 84.36 0 0 0 132.5 91a24.81 24.81 0 0 0 1.8-4.63c.04-.24.12-.45-.25-.37Z" class="a"/>
  <path d="M101.21 76.37a9 9 0 0 1-1.2-1.71 47.46 47.46 0 0 1-4.6-11.19c-.25-.86-.45-1.73-.7-2.58a.66.66 0 0 1 .2-.77 2.73 2.73 0 0 0 .34-.34q9.94-9.93 19.88-19.88a5 5 0 0 1 7.46 0l27.31 27.33a12.58 12.58 0 0 1 0 18.15L147.3 88c-.31-.07-.3-.3-.36-.45a155.22 155.22 0 0 0-21.64-37.8 79.06 79.06 0 0 0-5.31-6.52c-1.36-1.43-1.2-1.46-2.5 0a79.6 79.6 0 0 0-12.22 18.52 23.14 23.14 0 0 0-1.07 2.76c-.14.42-.25.85-.41 1.39a1.6 1.6 0 0 0 .72-.49c3.47-3.15 6.95-6.28 10.57-9.26a37.3 37.3 0 0 1 3.2-2.42c1.06-.69 1.2-.68 2.13.2a19 19 0 0 1 1.5 1.61 108.72 108.72 0 0 1 11.39 16.6c.14.25.25.52.4.77s.15.41-.08.57l-.29.25c-3.37 2.83-6.73 5.67-10.25 8.31-.61.46-1.24.9-1.89 1.31a1.13 1.13 0 0 1-1.69-.15 4.87 4.87 0 0 1-1.27-2.11 1.05 1.05 0 0 1 .38-1.26c1.36-1.1 2.71-2.23 4-3.36s2.41-2.08 3.57-3.17a1.26 1.26 0 0 0 .31-1.7c-.34-.61-.65-1.24-1-1.83a58.13 58.13 0 0 0-5.43-7.14c-.85-1-.86-1-2-.27a32.82 32.82 0 0 0-3.48 2.53c-4.29 3.41-8.4 7-12.5 10.68Z" class="a"/>
  <path d="M43.55 93.2c3.13 0 6.26-.06 9.39 0-.86 1-1.86 1.92-2.8 2.87l-40 40.05c-1.09 1.09-1 .85 0 1.87 1.82 1.84 3.65 3.66 5.48 5.49.55.56.55.57 0 1.12q-1.75 1.77-3.52 3.52c-.55.55-.56.55-1.11 0L5.72 143 .5 137.76c-.74-.74-.66-.63 0-1.32l20.7-20.7q10.83-10.81 21.64-21.65c.3-.26.66-.46.71-.89ZM185.87 93.25a26.75 26.75 0 0 1 3.23 0h5l6 6 37.06 37.07c.87.86.87.66 0 1.51l-11.3 11.3a1.72 1.72 0 0 1-.76.6c-.71-.8-1.29-1.72-1.94-2.58-.38-.51-.76-1-1.13-1.54s-.41-.58.1-1.09l6.22-6.23c.27-.27.53-.55.81-.81s.35-.51 0-.79-.36-.36-.54-.54l-41.87-41.91a3.79 3.79 0 0 1-.88-.99ZM68.81 77.71h-9.58l3-3 36.64-36.63c1-.95.71-.95 1.65 0s2.12 2.12 3.18 3.18c.65.65.65.65 0 1.33q-7.8 7.82-15.61 15.61-9.32 9.31-18.59 18.61c-.29.26-.67.45-.69.9ZM178.62 77.71h-8.63c-.08-.45-.46-.67-.75-1Q152.38 59.86 135.5 43c-.35-.35-1-.64-.93-1.14s.59-.71.92-1.05c.78-.8 1.57-1.59 2.35-2.38s.66-.75 1.38 0l11.71 11.7Q164.39 63.55 177.85 77c.24.25.51.47.77.71Z" class="c"/>
  <path d="M49.18 215.9H30.05c-.84 0-1.09-.26-1.11-1.09s0-1.85 0-2.77.3-1 1.12-1.1h37.68c1.65 0 1.8.14 1.8 1.78v1.82c0 1.13-.23 1.36-1.34 1.36h-19ZM187.94 215.9h-18.55a6.6 6.6 0 0 1-.77 0c-.58 0-.87-.31-.89-.9v-3.06c0-.63.31-.91.94-1a6.6 6.6 0 0 1 .77 0h37.77c.79.05 1.07.32 1.09 1.13s0 1.85 0 2.77-.28 1-1.05 1.06h-19.31Z" class="b"/>
  <path d="M49.68 134.9H38.3a1.47 1.47 0 0 1-1.48-.85 1.43 1.43 0 0 1 .36-1.66l5.49-6.25c.44-.5.88-1 1.33-1.5s.48-.5 1 0l3.85 4c.13.14.28.27.4.42.29.37.53.34.83 0 1-1.11 1.93-2.21 2.9-3.31.34-.38.7-.74 1-1.14s.53-.32.84 0c1.27 1.33 2.57 2.65 3.86 4s2.34 2.43 3.52 3.64a1.92 1.92 0 0 1 .65 1.24 1.42 1.42 0 0 1-1.1 1.38 5.25 5.25 0 0 1-1 .07ZM189.08 134.76h-11.09c-.73 0-1.43 0-1.8-.77s0-1.4.55-2l6.45-7.31c.6-.68.61-.66 1.23 0l3.87 4c.67.69.69.7 1.31 0l3.61-4.08c.47-.53.49-.54 1 0 2.46 2.54 4.91 5.1 7.39 7.62a1.47 1.47 0 0 1 0 2.32 2 2 0 0 1-1.28.25Z" class="c"/>
  <path d="M58.09 112.85a1.86 1.86 0 0 1-.6 1.44c-2.09 2.09-4.18 4.2-6.29 6.28a1.91 1.91 0 0 1-2.88 0q-3.16-3.12-6.28-6.29a1.89 1.89 0 0 1 0-2.88q3.09-3.14 6.22-6.22a1.9 1.9 0 0 1 2.95 0c2.08 2.06 4.15 4.14 6.22 6.21a1.93 1.93 0 0 1 .66 1.46ZM196.77 112.88a2.14 2.14 0 0 1-.63 1.44c-2.1 2.1-4.18 4.2-6.29 6.28a1.93 1.93 0 0 1-2.89 0q-3.17-3.12-6.28-6.28a1.92 1.92 0 0 1 0-2.89q3.09-3.12 6.22-6.22a1.91 1.91 0 0 1 2.95 0c2.09 2.06 4.15 4.14 6.23 6.21a2.25 2.25 0 0 1 .69 1.46Z" class="a"/>
  <path d="M218.5 168c.54 1.24 1 2.28 1.45 3.33q4.63 10.67 9.24 21.32l.05.09c.41 1 .39 1-.66 1h-5.17a1 1 0 0 1-1-.73q-3.92-9.85-7.9-19.7a1.21 1.21 0 0 1 .34-1.57c1.17-1.18 2.33-2.41 3.65-3.74ZM8.07 193.58c-.06-.34.15-.6.27-.88L18.6 169c.42-1 .43-1 1.16-.24 1 1 2.06 2.08 3.12 3.1a1 1 0 0 1 .28 1.24q-4 9.87-7.93 19.78a1.08 1.08 0 0 1-1.18.84c-1.75-.05-3.5 0-5.25 0-.25 0-.51.07-.73-.14ZM77.81 168.2a1.64 1.64 0 0 1 .5.8l10.19 23.57.12.26c.34.85.32.89-.62.89h-5.16a1 1 0 0 1-1.14-.73q-3.95-9.94-8-19.86a1 1 0 0 1 .26-1.25c1.12-1.08 2.21-2.2 3.32-3.3.22-.12.35-.23.53-.38ZM148.62 193.52c3.64-8.4 7.29-16.83 10.93-25.21.36-.11.49.11.64.26 1.13 1.12 2.24 2.27 3.39 3.37a.91.91 0 0 1 .21 1.17q-4 9.93-8 19.88c-.18.44-.36.75-.94.74h-5.74a.67.67 0 0 1-.49-.21ZM99.96 224.45c-.22.34-.56.23-.86.23-1.14 0-2.28 0-3.42-.06a1.45 1.45 0 0 0-1.36.65c-.94 1.23-1.92 2.42-2.89 3.63-.08-.45-.46-.68-.75-1l-13.63-13.61a2.06 2.06 0 0 1-.67-.81c.21-.22.48-.13.72-.13h7.45a1.82 1.82 0 0 1 1.42.6c3.27 3.3 6.58 6.57 9.84 9.88a2.08 2.08 0 0 0 1.77.71c.79-.08 1.59.03 2.38-.09ZM145.5 229.45a11.86 11.86 0 0 1-1.63-1.84c-.76-.89-1.49-1.81-2.23-2.71.35-.11.55-.42.8-.66 3.4-3.4 6.81-6.79 10.2-10.21a2.1 2.1 0 0 1 1.67-.7h6.12a2.49 2.49 0 0 1 .94.06c.1.25-.1.35-.22.48l-15.34 15.34a2.18 2.18 0 0 1-.31.24Z" class="c"/>
  <path d="m91.13 105.56-3.28 3L75.5 95.83c.18-.3.43-.2.63-.2h5.82a1.22 1.22 0 0 1 1.08.45c2.6 3.05 5.22 6.09 7.83 9.13.11.09.17.2.27.35ZM162.34 95.57l-12.13 12.51-2.45-2.45c-.19-.19-.25-.35 0-.56s.25-.3.37-.44c2.45-2.85 4.91-5.69 7.34-8.56a1.56 1.56 0 0 1 1.38-.63h4.58a2.17 2.17 0 0 1 .91.13Z" class="a"/>
  <path d="M64.78 250.13h46.89c4.08 0 8.16.06 12.24 0 15.83-.11 31.67 0 47.51 0h1a2.65 2.65 0 0 1-1.31.12h-45.12a2.69 2.69 0 0 0-2.17.9c-1.42 1.51-2.91 3-4.38 4.41-.6.6-.61.6-1.19 0-1.54-1.53-3.09-3-4.59-4.61a2.22 2.22 0 0 0-1.76-.72h-46a2.31 2.31 0 0 1-1.12-.1ZM137.13 238h-8.45c-.17-.53.19-.85.49-1.16 1.12-1.14 2.24-2.27 3.41-3.4h-15.56c-3.73 0-7.46.08-11.18-.06a4.52 4.52 0 0 0-.75.14c-2.26-.15-4.52 0-6.77-.07a9.36 9.36 0 0 1-2.18-.19 1.8 1.8 0 0 0-1.17-.28h-5.68a1.7 1.7 0 0 1-.79.02c-.16-.08-.11-.19 0-.28.21.28.53.18.8.18 5 0 10 .1 15 0 9.53-.09 19.07 0 28.6 0 2.74 0 5.48.07 8.22 0h7.08c-.26.28-.6.16-.9.16h-4.38a1.74 1.74 0 0 0-1.44.57c-1.44 1.47-2.98 2.85-4.35 4.37Z" class="c"/>
  <path d="M96.14 233.31a1.11 1.11 0 0 1 .89-.23h7.16a3 3 0 0 1 1 .18 1.36 1.36 0 0 1 1 .47c1.1 1.09 2.21 2.19 3.3 3.3.26.27.56.54.44 1-1.9.11-3.79 0-5.69 0h-3.7c0-.4-.36-.57-.59-.82-1.24-1.3-2.6-2.52-3.81-3.9Z" class="c"/>
  <path d="M145.55 86c0-.13.12-.24.26-.23s.16.18.12.29a1.62 1.62 0 0 1-.17.32c-.06-.17-.02-.38-.21-.38Z" style="fill:#8d8762" transform="translate(-11.5)"/>
  <path d="M129.1 224.76a7.43 7.43 0 0 1 1.92-.07 1.17 1.17 0 0 1-.84.94c-.46.05-.64-.49-1.08-.87Z" style="fill:#f1e6a5" transform="translate(-11.5)"/>
  <path d="M83.16 153.88c-3.57-5-7.14-10-10.68-15a1.59 1.59 0 0 0-1.48-.76H26.72a1.61 1.61 0 0 0-1.48.77q-5.28 7.5-10.62 15l-.49.73c.26.31.49.61.74.9l30.56 36.27a7.32 7.32 0 0 0 1.71 1.9c.75.41 1.75.06 2.63.14a1.49 1.49 0 0 0 1.38-.64l32-38c.57-.76.5-.62.01-1.31ZM24.38 151c2.07-3 4.15-5.88 6.21-8.84a1.19 1.19 0 0 1 1.1-.56h34.62a1 1 0 0 1 1 .43c2.13 3.06 4.29 6.1 6.44 9.15a3.64 3.64 0 0 1 .19.41h-6.25c-.37 0-.56-.25-.78-.47-1.65-1.64-3.34-3.25-4.92-4.95-1.34-1.44-2.68-1.27-3.84 0-1.59 1.7-3.29 3.29-4.92 5a1.45 1.45 0 0 1-1.16.49h-5.46a1.45 1.45 0 0 1-1.17-.48c-1.67-1.7-3.37-3.39-5.06-5.08a3.18 3.18 0 0 0-1.07-.78 2.1 2.1 0 0 0-2.34.63c-1.53 1.54-3.11 3-4.58 4.62a3.09 3.09 0 0 1-2.65 1.11c-1.85-.1-3.7 0-5.53 0-.18-.41.06-.56.17-.68Zm18.51 28.59c-.06 0-.14-.08-.14-.18a1.28 1.28 0 0 1-.54-.63l-10.61-12.7q-3.75-4.47-7.48-9l-.67-.85a1.61 1.61 0 0 1 .81-.1h5a1.47 1.47 0 0 1 1.18.46c1.26 1.31 2.55 2.58 3.84 3.86a2.66 2.66 0 0 1 .54.78l7.6 17v.1a2 2 0 0 1 .44.94c.12.09.16.21.03.28Zm6.49 4.25c0 .08-.1.16-.23.37-.6-1.34-1.15-2.55-1.69-3.77q-3.62-8.06-7.22-16.11c-.39-.88-.47-.63.26-1.36 2-2.06 4.11-4.09 6.13-6.16a1.8 1.8 0 0 1 1.51-.6h2.68a1.24 1.24 0 0 1 1 .42q3.13 3.15 6.29 6.28a.75.75 0 0 1 .22 1q-4.5 9.91-8.95 19.89Zm24.89-27.18-17.71 21.12c0 .25-.28.37-.39.58s-.17.32-.3.24 0-.31.09-.44.18-.55.41-.75c2.12-4.77 4.27-9.52 6.36-14.3a9.09 9.09 0 0 1 2.2-3.17c1.12-1 2.18-2.14 3.24-3.24a1.55 1.55 0 0 1 1.25-.53h4.94c.14.22.01.33-.09.45ZM222.84 154.08a4 4 0 0 1-.33-.47c-3.49-4.91-7-9.81-10.45-14.74a1.66 1.66 0 0 0-1.56-.8H166.23a1.35 1.35 0 0 0-1.31.56q-5.41 7.7-10.9 15.35c-.29.41-.34.71 0 1a2.67 2.67 0 0 1 .31.36l23.78 28.23c2.67 3.17 5.35 6.33 8 9.51a1.4 1.4 0 0 0 1.29.61 9.88 9.88 0 0 1 1.72 0 1.68 1.68 0 0 0 1.61-.75q14.61-17.38 29.25-34.74c.93-1.1 1.84-2.2 2.78-3.28.32-.27.38-.52.08-.84Zm-59-3.35c2-2.84 4-5.67 6-8.52a1.33 1.33 0 0 1 1.25-.65h34.41a1.15 1.15 0 0 1 1.12.51c2.11 3 4.25 6.05 6.38 9.07a2.38 2.38 0 0 1 .2.42h-6.5a1.54 1.54 0 0 1-1.25-.52q-2.58-2.62-5.2-5.21a2.06 2.06 0 0 0-3.2 0l-.4.4c-1.58 1.58-3.18 3.15-4.73 4.75a1.7 1.7 0 0 1-1.42.57h-5.26a1.56 1.56 0 0 1-1.25-.52c-1.56-1.6-3.15-3.17-4.72-4.75-.18-.18-.36-.36-.55-.53a2 2 0 0 0-3.06 0c-.37.35-.73.72-1.09 1.08l-4.25 4.26a1.14 1.14 0 0 1-.9.45h-5.83c-.05 0-.1-.06-.17-.1.08-.29.27-.44.42-.71Zm17.55 27.87c-.15.05-.23-.11-.27-.25s-.35-.31-.4-.56l-8.85-10.55-8.58-10.24a1.34 1.34 0 0 1-.46-.79h3.24a6.63 6.63 0 0 1 2.45.1c.71.29 1.22 1.08 1.81 1.67a26.76 26.76 0 0 1 3.31 3.43 26.18 26.18 0 0 1 2 4.31q2.54 5.61 5 11.24a6.62 6.62 0 0 1 .24.62 1.57 1.57 0 0 1 .39.82c.23.03.23.15.12.2Zm7 5a.81.81 0 0 1-.36.48c-.74-1.65-1.49-3.3-2.23-5q-3.34-7.44-6.67-14.89c-.43-1-.58-.73.3-1.6 2-2 3.93-3.92 5.87-5.89a1.57 1.57 0 0 1 1.33-.57h2.86a1.16 1.16 0 0 1 .93.38q3.26 3.3 6.56 6.55a.76.76 0 0 1 .17 1q-4.4 9.78-8.77 19.54Zm25.11-26.86-18.38 22-.2.2-.2.38-.19.19c-.05.14-.11.3-.29.19s0-.15.09-.19a1.55 1.55 0 0 1 .38-.78q3.12-7 6.23-13.94a23.19 23.19 0 0 1 1.87-4 23.4 23.4 0 0 1 3-3.08 3.2 3.2 0 0 1 3.78-1.57h4.15c.02.35-.15.46-.24.6Z" class="a"/>
  <path d="m144.75 32.18-3.44-3-5.31-4.7a2.78 2.78 0 0 1 .71-.83q4-4.06 8.12-8.12c.85-.85.84-1.32 0-2.17l-4.93-4.94Q136 4.5 132.06.58c-.79-.78-1.23-.77-2 0l-.21.21Q123.61 7 117.39 13.22a4.6 4.6 0 0 0-.52.56 1 1 0 0 0 0 1.32 7 7 0 0 0 .53.56c2.12 2.11 4.23 4.24 6.36 6.35.74.74 1.53 1.43 2.4 2.24l-.57.47-8 7.08c-.24.22-.49.42-.7.65a1.13 1.13 0 0 0-.12 1.64c.88 1 1.78 2.08 2.72 3.08a1.13 1.13 0 0 0 1.57.11 5.47 5.47 0 0 0 .58-.5l8.46-7.46c.86-.76.87-.76 1.72 0l8.67 7.68c.91.8 1.45.77 2.26-.14s1.45-1.62 2.15-2.44a1.33 1.33 0 0 0-.15-2.24ZM131.31 20c-.18.18-.35.24-.56 0-1.62-1.61-3.23-3.23-4.9-4.9.57-.56 1.08-1.07 1.59-1.59l3.17-3.17c.27-.27.45-.36.77 0 1.56 1.59 3.14 3.15 4.79 4.81Z" style="fill:#f6c99a" transform="translate(-11.5)"/>
  <path d="M147.34 231.74a24.93 24.93 0 0 1-1.81-2.29 1.07 1.07 0 0 0-.29-.78c-.93-1.15-1.86-2.29-2.84-3.4a1 1 0 0 0-.73-.37c-.25-.34-.62-.28-1-.28h-3.45a1.56 1.56 0 0 1-1.26-.52c-2.4-2.42-4.82-4.83-7.23-7.24-.56-.56-.67-.45 0-1.16l6.89-6.9 1.09-1.09c.77-.78.78-1 0-1.81l-.61-.61c-2.23-2.23-4.45-4.47-6.71-6.68a1.9 1.9 0 0 1-.62-1.5v-66.2a1.94 1.94 0 0 1 .64-1.49c2.24-2.28 4.45-4.57 6.66-6.87a2.14 2.14 0 0 0 0-3.3c-1.72-1.75-3.45-3.49-5.21-5.2a2.14 2.14 0 0 0-3.29.07c-.19.18-.36.36-.54.55l-7.53 7.9a2 2 0 0 1-.74.64c-1.44-1.47-2.88-3-4.32-4.44s-2.83-2.94-4.26-4.4a2.14 2.14 0 0 0-3.15-.18c-1.85 1.8-3.66 3.64-5.49 5.47a2.1 2.1 0 0 0-.57 1.85 2.4 2.4 0 0 0 .79 1.38c2 2 3.89 4 5.87 6a2.3 2.3 0 0 1 .7 1.76v66.49a2.11 2.11 0 0 1-.68 1.67c-2.4 2.34-4.75 4.72-7.11 7.09-.75.75-.74 1 0 1.74l2.71 2.7 5.4 5.38-8.68 8.69a9.33 9.33 0 0 1-3.76 0 2 2 0 0 0-2.28.71c-.61.74-1.19 1.49-1.79 2.23a2.77 2.77 0 0 0-.7 1.53l-3 3.78c0 .4.35.3.58.3 2.73.06 5.47.11 8.2.15 12.73.18 25.47-.14 38.2.2 4.14.1 8.24-.56 12.38-.35a.49.49 0 0 0 .35-.11c-.13-.45-.53-.73-.81-1.11Zm-28.67-10.63a5.33 5.33 0 0 0-.57-.81l-12.71-12.72a5.18 5.18 0 0 0-.41-.4c-.23-.21-.28-.41 0-.63a3.44 3.44 0 0 0 .27-.27l13.19-13.19.35-.32c.32.08.47.34.66.54l12.93 12.91a3.44 3.44 0 0 0 .27.27c.28.23.33.45 0 .7a3.44 3.44 0 0 0-.27.27l-13 13c-.16.16-.35.32-.71.65Z" class="a"/>
  <path d="M119.84 197.4c-.76-.76-1.27-.76-2 0q-4.23 4.22-8.45 8.46c-.78.78-.77 1.21 0 2l3 3 5.41 5.41c.29.3.57.62 1 .59a1.27 1.27 0 0 0 1-.51l8.45-8.45c.81-.82.81-1.26 0-2.1Z" class="a"/>
</svg>