<svg xmlns="http://www.w3.org/2000/svg" viewBox="0 0 217.25 243.8">
  <defs>
    <style>
      .a{fill:#c19d75}.b{fill:#a48058}.c{fill:#fae3ad}.d{fill:#1d1d1d}
    </style>
  </defs>
  <path d="M55.81 197.42c2.07.1 4.15.22 6.22.3a29.93 29.93 0 0 0 14-2.79 54.5 54.5 0 0 1 5.1-2.16 31.42 31.42 0 0 1 11.17-1.6 8.63 8.63 0 0 1 6.25 2.75 12.41 12.41 0 0 1 3.36 11.63c-.79 3.73-3.68 6-8 5.79a6.85 6.85 0 0 1-1.68-.27 4.33 4.33 0 0 1-3.06-5.54 4.53 4.53 0 0 1 4.6-3.47c.68 0 1.34-.06 1.69-.73a1.93 1.93 0 0 0-.23-2 2.66 2.66 0 0 0-3.66-.85 7.59 7.59 0 0 0-1.74 1.5c-1.27 1.46-2.51 2.95-3.77 4.41a26 26 0 0 1-4.77 4.49 10.57 10.57 0 0 1-5.2 2 12.74 12.74 0 0 1-3.89-.37 39.36 39.36 0 0 1-10.65-4.28 40.48 40.48 0 0 1-5.68-3.76 15.37 15.37 0 0 1-2.4-2.3 3.51 3.51 0 0 1-.77-1.32c-.21-.73 0-1.16.78-1.31a11 11 0 0 1 2.33-.12ZM125.24 191.28a30.08 30.08 0 0 1 12.49 2.72 58.15 58.15 0 0 0 5.82 2.44 30.48 30.48 0 0 0 11 1.39l5.79-.29a9.9 9.9 0 0 1 2 .07c.92.14 1.23.65.9 1.51a4.34 4.34 0 0 1-.89 1.35 15.26 15.26 0 0 1-1.46 1.44 43.67 43.67 0 0 1-16.69 8.61 13.33 13.33 0 0 1-4.31.44 10.42 10.42 0 0 1-5.34-2.07 28.79 28.79 0 0 1-5.07-4.92c-1.07-1.25-2.13-2.52-3.21-3.76a7.9 7.9 0 0 0-1.93-1.67 2.67 2.67 0 0 0-3.92 1.69 1.46 1.46 0 0 0 1.29 2 3.88 3.88 0 0 0 .68 0 4.58 4.58 0 0 1 4.58 4.29c.2 2.67-1.36 4.52-4.21 4.91a8.57 8.57 0 0 1-3.56-.21 6.86 6.86 0 0 1-5.15-5.77A12.41 12.41 0 0 1 117.6 194a8.82 8.82 0 0 1 6.61-2.69Z" class="a"/>
  <path d="M199.93 100.17a54.44 54.44 0 0 0-.34-8.27 3.75 3.75 0 0 1 0-.67c.29.08.45.33.64.53l16.35 16.34.36.37a.38.38 0 0 1 0 .65c-.14.13-.28.28-.42.42l-40.35 40.35a2.61 2.61 0 0 0-.23.24c-.25.31-.46.34-.76 0q-1.87-1.92-3.8-3.8c-.3-.3-.29-.51 0-.76.15-.13.28-.28.42-.42q17.88-17.9 35.77-35.77c.9-.91.9-.91 0-1.84q-3.44-3.45-6.88-6.88c-.28-.17-.4-.47-.76-.49ZM83.49 32.73c-.31-.24-.36-.63-.5-1-.5-1.11-1-2.22-1.46-3.34a1.68 1.68 0 0 1-.28-1c.06-.31.32-.46.52-.66L107.93.65c.1-.1.21-.19.31-.3a.33.33 0 0 1 .57 0l.54.54 24.06 24.04a2.25 2.25 0 0 0 .78.65c-.84 2-1.65 4-2.6 6-.23-.21-.47-.41-.69-.63l-22-22c-.86-.86-.68-.86-1.55 0L84.26 32.07a2.06 2.06 0 0 1-.77.66ZM14.18 94.51v5.91c0 .64 0 1.29.06 1.93-.38 0-.53.3-.74.51l-5.09 5.06c-.68.69-.62.59 0 1.24l24 24 10.61 10.61.37.37c.24.21.26.4 0 .63-1.18 1.16-2.34 2.33-3.51 3.5a.39.39 0 0 1-.65 0l-.42-.42L.58 109.56c-.77-.77-.77-.77 0-1.54l12.91-12.91a2.38 2.38 0 0 1 .69-.6Z" class="b"/>
  <path d="M108.03 18.42a.76.76 0 0 1 .72.71c.16.87.33 1.74.52 2.6a28.81 28.81 0 0 0 1.42 4.72 10.9 10.9 0 0 0 6.38 6.27 35.22 35.22 0 0 0 6.23 1.7l1 .19a.67.67 0 0 1 .59.72.66.66 0 0 1-.58.64c-.84.17-1.68.32-2.51.5a29.89 29.89 0 0 0-5 1.49 10.88 10.88 0 0 0-6.18 6.24 33.88 33.88 0 0 0-1.75 6.4l-.18.92a.67.67 0 0 1-.68.63.66.66 0 0 1-.69-.62c-.22-1.06-.43-2.12-.66-3.17a24.93 24.93 0 0 0-1.52-4.69 10.61 10.61 0 0 0-5.47-5.5 32 32 0 0 0-7.1-2c-.25-.05-.51-.09-.76-.15-.48-.12-.7-.36-.67-.73a.71.71 0 0 1 .67-.66c.86-.16 1.73-.33 2.59-.51a32.51 32.51 0 0 0 4.49-1.33 11 11 0 0 0 6.58-6.61 36.52 36.52 0 0 0 1.7-6.33c0-.28.1-.55.16-.83a.7.7 0 0 1 .7-.6Z" class="c"/>
  <path d="M96.71 52.1c1.53 1.08 2.94 2.33 4.39 3.51q6.5 5.27 12.95 10.55l.2.16c.52.45.52.45.26 1.07-.61 1.44-1.23 2.87-1.85 4.31l-4.8 11.2c-.08.18-.17.35-.26.52-.3-.06-.27-.31-.33-.47q-5.26-15-10.51-30.09c-.07-.21-.11-.44-.17-.65ZM156.01 56.23l4.25-3.92a1.13 1.13 0 0 1 .29-.15 2.11 2.11 0 0 1 .64.55l24 24c.2.2.38.42.57.63-1.57.49-3.19.75-4.79 1.14-.74.19-1.48.34-2.23.51 0-.33-.27-.49-.46-.68l-21.59-21.6c-.2-.2-.37-.44-.68-.48ZM37.21 79.33 31.41 78a.74.74 0 0 1-.46-.2c0-.31.32-.46.51-.65l23.27-23.29c.2-.19.35-.45.66-.51s.48.28.68.46c.9.81 1.8 1.62 2.69 2.44.2.19.49.31.5.64s-.37.56-.61.79l-20.78 20.8c-.25.25-.6.44-.66.85ZM120.41 90.31l24.22-20.49a.83.83 0 0 1 .06.74q-1.44 7.23-2.89 14.45a3.15 3.15 0 0 0-.09.42c0 .48-.29.66-.75.75-2.62.53-5.23 1.09-7.84 1.64l-11.85 2.47a1.24 1.24 0 0 1-.86.02ZM93.32 106.67l-24.2 20.17-.13-.08c.17-.77.33-1.54.5-2.31.94-4.27 1.89-8.54 2.8-12.82a1.14 1.14 0 0 1 1-1c6.53-1.34 13.07-2.71 19.6-4.07a1.86 1.86 0 0 1 .33 0ZM119.84 105.6a1.32 1.32 0 0 1 .83.09l32.5 8.82.55.2c-.33.1-.51.17-.71.22-5.88 1.29-11.77 2.57-17.64 3.88a1.24 1.24 0 0 1-1.23-.32q-6.82-6.12-13.68-12.2c-.23-.21-.51-.37-.62-.69ZM59.49 81.59l4-.56 13.08-1.81 4-.57a1.25 1.25 0 0 1 1.15.36l11.89 10.87c.14.12.35.21.31.54l-34.5-8.67Z" class="b"/>
  <path d="M96.59 52.21c-.07-.05-.13-.14-.06-.2s.13 0 .18.09Z" class="b"/>
  <path d="m127.58 114.23-.22-.12c.12-.04.18.02.22.12Z" class="a"/>
  <path d="M119.84 105.6c-.09-.07-.05.09-.07 0s0-.06 0-.06.08 0 .07.08Z" class="b"/>
  <path d="M203.69 145.59a2.82 2.82 0 0 0-.44.26c-.85.46-1.69.94-2.55 1.37-3.94 2-8 3.66-12.11 5.31-2.61 1.05-5.24 2.05-7.86 3.08-.73.29-.76.34-.74 1.13a10.62 10.62 0 0 1-.91 4.31 22.46 22.46 0 0 1-3.17 5.14 51.12 51.12 0 0 1-9.21 8.73 73 73 0 0 1-17 9.83 24.45 24.45 0 0 1-7 1.83 4.47 4.47 0 0 1-4.38-2.05 20.9 20.9 0 0 1-1.9-3.43 46.87 46.87 0 0 1-1.91-5.11c-.48-1.55-1.32-1.68-2.43-1.14-.71.34-1.47.61-2.2.93a47.39 47.39 0 0 0-14.88 9.93 28.29 28.29 0 0 0-6.67 10 .31.31 0 0 1-.25.23 22.61 22.61 0 0 0-.92-2.74 28.23 28.23 0 0 0-8-10.46 45.1 45.1 0 0 0-12.15-7.17c-1.26-.52-2.53-1-3.83-1.43a1.27 1.27 0 0 0-1.77.86c-.07.16-.12.32-.18.48a42.86 42.86 0 0 1-3.67 7.78 12.78 12.78 0 0 1-1.73 2.21 4.18 4.18 0 0 1-3 1.26 15.39 15.39 0 0 1-4.86-.81 47.39 47.39 0 0 1-9.28-4.08 70.75 70.75 0 0 1-16.92-12.71 27 27 0 0 1-5.12-7.13 10.32 10.32 0 0 1-1.16-4.93c0-.8 0-.82-.73-1.14-1.91-.81-3.83-1.59-5.73-2.42a153.76 153.76 0 0 1-16.2-7.82 2.19 2.19 0 0 0-.3-.16.62.62 0 0 0-.86.7 5 5 0 0 0 .2.83 51.84 51.84 0 0 0 4.79 11.73 40.76 40.76 0 0 0 7.2 9.7 76.77 76.77 0 0 0 28.07 17.37 63.27 63.27 0 0 0 15.62 3.39c2 .17 3.93.17 5.88.34a68.24 68.24 0 0 0 10.31 0c2.27-.14 4.54-.3 6.82-.24a15.27 15.27 0 0 1 10.06 4 12.6 12.6 0 0 1 3.32 13.82 10 10 0 0 1-8.18 6.78 13.85 13.85 0 0 1-6.23-.51 10.62 10.62 0 0 0-1.07-.29 2.24 2.24 0 0 0-2.17.72 2 2 0 0 0-.09 2.1 6 6 0 0 0 .48.9 11.34 11.34 0 0 0 1.46 1.78 32.79 32.79 0 0 0 4.26 3.54 34.73 34.73 0 0 1 5 4.37A53.19 53.19 0 0 1 107.74 243a2.08 2.08 0 0 0 .4.8 1.46 1.46 0 0 0 .31-.55 56.26 56.26 0 0 1 5.11-9.83 41.06 41.06 0 0 1 10.85-11.49 28.49 28.49 0 0 0 2.79-2.24 14.39 14.39 0 0 0 2.4-2.65 4.24 4.24 0 0 0 .73-1.62 1.71 1.71 0 0 0-1.34-2.12 3 3 0 0 0-1.76.11 14.9 14.9 0 0 1-5.46.76 9.84 9.84 0 0 1-8-4.35 12 12 0 0 1-1.36-11.71c1.73-4.35 5.16-6.91 9.57-8.17a23.49 23.49 0 0 1 7.89-.44 95.42 95.42 0 0 0 10.56.28c1.37-.08 2.73-.19 4.09-.24a65.74 65.74 0 0 0 15.4-2.28 75.78 75.78 0 0 0 26.49-13.52 51.39 51.39 0 0 0 8.29-7.72 50.74 50.74 0 0 0 9.78-19.34 1.89 1.89 0 0 0 .1-.41c.1-.59-.33-.9-.89-.68Zm-91.47 80.83c-1.26 1.24-2.5 2.49-3.75 3.74a.54.54 0 0 1-.4.21c-.07-.07-.19-.15-.29-.25q-1.83-1.85-3.68-3.68c-.24-.24-.31-.41 0-.69 1.24-1.22 2.46-2.44 3.68-3.68.27-.28.47-.33.77 0 1.21 1.24 2.44 2.46 3.68 3.68.18.25.26.4-.01.67Zm2.59-7.95a2 2 0 0 1 .75 1.67 1.49 1.49 0 0 1-.92 1.2 1.47 1.47 0 0 1-1.74-.25c-.65-.6-1.26-1.24-1.88-1.87l-2.4-2.42c-.43-.42-.45-.42-.87 0-1.22 1.22-2.43 2.47-3.65 3.7a5.23 5.23 0 0 1-.82.74 1.55 1.55 0 0 1-2.07-.3 1.61 1.61 0 0 1 0-2.05 4.07 4.07 0 0 1 .41-.42l6.07-5.62c.54-.49.55-.49 1.09 0Z" class="a"/>
  <path d="M173.41 154.41q-7.67-6.74-15.34-13.44c-2.25-2-4.57-3.87-6.79-5.88q-1.76-1.6-3.54-3.17c-1.84-1.63-3.68-3.25-5.59-4.79-1.06-.85-2-1.86-3-2.76-3-2.69-6.13-5.34-9.16-8.05a16.15 16.15 0 0 1-2.43-2.09l-.22-.12c-.7-.51-1.28-1.15-1.95-1.71s-1.55-1.36-2.3-2.08c-1.21-1.16-2.51-2.23-3.77-3.33a2.22 2.22 0 0 0-.65-.5c-.22.11-.27.32-.39.47s-.24.38-.38.57a14.1 14.1 0 0 1-7 5.19c-.54.19-.53.2-.33.7l.18.39 5.85 12.82q5.37 11.75 10.72 23.48l3.6 7.82c3.11 6.79 6.2 13.59 9.32 20.38a7.36 7.36 0 0 0 9.54 3.93 56.78 56.78 0 0 0 5.54-2.44 59 59 0 0 0 18.93-15.11 7.34 7.34 0 0 0-.84-10.28Zm-31.5-7.6a4.49 4.49 0 0 1-.24-.42.36.36 0 0 1-.18-.34l-4.8-7c-.08-.12-.13-.24-.2-.37a5.38 5.38 0 0 1-.86-1.34c-.09-.07-.18-.18-.09-.26s.17 0 .24.11a3.83 3.83 0 0 1 .93 1.11l13.87 15.73a1.74 1.74 0 0 0 1.22.66c.4 0 .79.11 1.18.17.7.11.72.11.63.78-.17 1.24-.38 2.47-.55 3.71-.06.37-.19.55-.61.48-1.29-.23-2.58-.44-3.88-.62-.41 0-.52-.22-.45-.61.11-.58.17-1.18.28-1.76a1.13 1.13 0 0 0-.2-1c-1.81-2.66-3.59-5.33-5.41-8-.24-.28-.58-.63-.85-1.03Zm14.5 21.93a21.15 21.15 0 0 1-7.27 3.24 23.16 23.16 0 0 1-4.53.75c-.13 0-.28.08-.46-.12a39.44 39.44 0 0 0 7.43-6.17c.23-.23.41-.42.8-.26 1.54.65 3.1 1.27 4.69 1.91-.12.36-.42.48-.66.65Zm11.18-12.8a24.56 24.56 0 0 1-6.92 9.59 5.85 5.85 0 0 1-1.32.89c-.09-1.11-.17-2.12-.24-3.13 0-.59 0-1.2-.13-1.78a.74.74 0 0 1 .51-.92 39.45 39.45 0 0 0 5.25-3c.86-.57 1.68-1.18 2.48-1.82.11-.09.21-.28.41-.16a.83.83 0 0 1-.04.33Zm0-.33c-.05 0-.06-.08 0-.1s.07 0 .11 0Z" class="c"/>
  <path d="M141.52 146.05a.28.28 0 0 1 .18.34.36.36 0 0 1-.18-.34Z" class="a"/>
  <path d="M135.57 137.13c.12-.11.17 0 .24.11" class="b"/>
  <path d="M167.64 155.62c-.06 0-.07-.08 0-.11s.07 0 .11 0l-.1.07Z" class="d"/>
  <path d="M199.59 91.9a3.75 3.75 0 0 1 0-.67 6.2 6.2 0 0 1-.19-.83 65.62 65.62 0 0 0-1.74-8.22 7.49 7.49 0 0 0-9.12-5.46 17 17 0 0 1-2.82.58c-1.57.49-3.19.75-4.79 1.14-.74.19-1.48.34-2.23.51l-20.62 4.64-38.74 8.72a.72.72 0 0 0-.54.26c.09.2.19.4.29.6a14 14 0 0 1 1.44 6.09 12.62 12.62 0 0 1-.46 3.62c-.12.43 0 .58.4.63h.26l33.74 6.87 35.15 7.17a7.35 7.35 0 0 0 8.83-5.69 56.57 56.57 0 0 0 1.48-11.74 54.44 54.44 0 0 0-.34-8.22Zm-21.26 9.6a12.81 12.81 0 0 1-1.52-1.4 1.53 1.53 0 0 0-1.05-.47q-9.14-.64-18.27-1.33l-4.2-.28a4 4 0 0 1 1.25-.23l13.79-.75 7.31-.41a1.22 1.22 0 0 0 1-.45c.39-.45.83-.85 1.24-1.29.2-.22.35-.32.62-.06 1 1 2.12 2 3.25 3.15Zm7.75-8.59a37.3 37.3 0 0 0 .5-4.83 41.58 41.58 0 0 0-.09-5 22 22 0 0 1 1.82 3.05c1.64 3.32 2.68 7.22 2.47 10-.23.12-.38-.06-.54-.15-1.25-.74-2.48-1.49-3.74-2.21a.74.74 0 0 1-.42-.86Zm1.11 19.48a1.09 1.09 0 0 1-.12-.78 39.48 39.48 0 0 0-.79-8.54c-.17-.89-.18-.89.61-1.41l3.14-2a1.24 1.24 0 0 1 .79-.34 24.31 24.31 0 0 1-3.63 13.07ZM170.9 32.44l-.8-.88a59 59 0 0 0-23.64-15.83 8.61 8.61 0 0 0-2.65-.57 7.42 7.42 0 0 0-7.08 4.56l-2.54 5.86c-.84 2-1.65 4-2.6 6-.14.36-.26.74-.42 1.1l-6.28 14.62-16 37.35a1.85 1.85 0 0 0-.27.8 14.29 14.29 0 0 1 9.32 5.71l.51-.45 20.9-19.21 16.66-15.27 4.25-3.92a1.13 1.13 0 0 1 .29-.15 13.5 13.5 0 0 1 2.06-2c2.61-2.42 5.25-4.79 7.85-7.22a7.37 7.37 0 0 0 .44-10.5Zm-37.93 28.68c-.05 0-.06.16-.07.15s0-.18 0-.26m17.51-18.2c-.48.08-.95.22-1.43.26a1.94 1.94 0 0 0-1.42.8c-3.42 4.1-6.87 8.19-10.31 12.28l-3.46 4.11c-.1.13-.26.23-.32.38a.32.32 0 0 0 0 .17c-.08 0 .19 0 .11.05 0-.14-.2-.07-.11-.05a.55.55 0 0 1 .11-.64l.13-.19 4.38-6.82c2.35-3.65 4.7-7.32 7.06-11a1.59 1.59 0 0 0 .27-1.36c-.12-.52-.18-1.06-.29-1.59-.06-.32 0-.52.37-.58 1.3-.2 2.58-.44 3.86-.69.38-.07.57 0 .65.4.21 1.35.47 2.69.71 4 0 .32-.1.43-.31.47Zm-1.26-11.19c-.38.18-.57 0-.8-.25q-1.6-1.59-3.36-3a33 33 0 0 0-3.82-2.71.59.59 0 0 1-.35-.4 24.2 24.2 0 0 1 13.09 4.32c-1.72.71-3.26 1.36-4.79 2.04Zm15.52 10.32a.41.41 0 0 1-.29-.13 38.14 38.14 0 0 0-7.86-4.7.9.9 0 0 1-.65-1c.1-1.47.14-2.94.22-4.41 0-.11 0-.24.11-.3a9.28 9.28 0 0 1 2.92 2.17c2.37 2.36 4.91 6 5.55 8.38ZM95.03 107.6a3.48 3.48 0 0 0-1 .73l-21 18.09c-2.71 2.34-5.4 4.69-8.12 7-.9.77-1.78 1.56-2.69 2.32-1.51 1.25-3 2.53-4.47 3.82-1 .83-1.89 1.67-2.85 2.47-1.56 1.29-3 2.65-4.6 3.94-.54.45-1 1-1.57 1.39-1.48 1.13-2.82 2.42-4.25 3.61-1 .84-2 1.7-3 2.57a7 7 0 0 0-2.35 3.72 7.82 7.82 0 0 0 1.57 6.87 59.57 59.57 0 0 0 23.41 18.28 6.7 6.7 0 0 0 2.81.6 7.2 7.2 0 0 0 6.87-4.34c1.24-2.58 2.44-5.19 3.66-7.79l26.54-56.75a1.79 1.79 0 0 0 .29-.83 14.3 14.3 0 0 1-9.25-5.7Zm-39 59.06a.68.68 0 0 1-.1.18 2 2 0 0 1-.75-.49 23 23 0 0 1-5.7-7.14c-.44-.82-.75-1.7-1.26-2.49a3.73 3.73 0 0 1-.25-1.12 36.58 36.58 0 0 0 3.6 2.82 45.17 45.17 0 0 0 4.53 2.71c.25.14.49.24.44.62-.13 1.64-.3 3.25-.47 4.91Zm10.51 6.18a23.41 23.41 0 0 1-4.28-1.66 15.85 15.85 0 0 1-3.85-2.48.37.37 0 0 1 .26-.28c1.47-.53 2.94-1.06 4.4-1.62a.59.59 0 0 1 .75.14 39.76 39.76 0 0 0 7.24 6.46c-.65.25-1.55.11-4.48-.56Zm12.36-33.76c-2.73 4.25-5.37 8.55-8.15 12.76-1.11 1.69-2.17 3.42-3.26 5.13a.92.92 0 0 0-.14.78c.12.58.15 1.18.23 1.77.05.34 0 .51-.42.56-1.27.14-2.53.33-3.8.48-.64.08-.65.06-.72-.51-.17-1.27-.32-2.53-.5-3.8-.06-.39 0-.58.46-.62s1-.16 1.44-.16a1.76 1.76 0 0 0 1.43-.75q4.07-4.93 8.17-9.83l5-6a1.88 1.88 0 0 1 .87-.94 1.6 1.6 0 0 1-.57 1.13Zm.73-1.25-.07-.05.06-.05v.05Z" class="c"/>
  <path d="M79.7 137.78v.05l-.07-.05.06-.05Z" class="b"/>
  <path d="M105.83 84.49Q94.7 58.86 83.56 33.22a1.19 1.19 0 0 1-.07-.49c-.31-.24-.36-.63-.5-1-.5-1.11-1-2.22-1.46-3.34a1.68 1.68 0 0 1-.28-1c-.31-.17-.35-.51-.48-.78-1.12-2.49-2.22-5.07-3.36-7.61a7.37 7.37 0 0 0-9.8-3.91c-1.55.64-3.08 1.33-4.57 2.09a58.57 58.57 0 0 0-19.43 15.76 7.16 7.16 0 0 0-1.62 3.87 7.41 7.41 0 0 0 2.54 6.48Q49.67 48 54.8 52.65c.23.21.52.36.59.7.33 0 .48.28.68.46.9.81 1.8 1.62 2.69 2.44.2.19.49.31.5.64.46.08.71.47 1 .75l28.82 26.24 6.8 6.2a14.25 14.25 0 0 1 10.18-4.8 1.67 1.67 0 0 0-.23-.79ZM59.17 36.06c-.69.33-1.37.69-2 1.06A36.65 36.65 0 0 0 51.41 41a1.49 1.49 0 0 1-.15.2c-.08.07-.18.15-.29.06s0-.21 0-.3a.72.72 0 0 1 .14-.2 25.29 25.29 0 0 1 6.19-9 9.09 9.09 0 0 1 1.87-1.41c.24.17.17.39.19.58.11 1.42.18 2.84.32 4.25a.77.77 0 0 1-.51.88Zm15.31-12c0 .17-.17.2-.27.27a40.67 40.67 0 0 0-6.9 5.79c-.61.63-.38.61-1.28.25l-4.35-1.74c2.73-2.58 9.14-4.63 12.8-4.54Zm7.61 35.85a1.76 1.76 0 0 1-.82-.92q-6.44-8.14-12.86-16.33a1.7 1.7 0 0 0-1.33-.76c-.54 0-1.07-.17-1.6-.25-.28 0-.37-.16-.33-.46.23-1.34.43-2.69.63-4 .05-.31.18-.43.52-.37 1.31.22 2.63.42 3.95.61.35 0 .49.2.42.57s-.12 1-.25 1.51a1.5 1.5 0 0 0 .23 1.2q3.47 5.78 6.9 11.56l3.92 6.59M94.21 92.27c-.11-.14-.26-.13-.39-.16L79.93 89 46.1 81.36l-8.89-2-5.8-1.36a.74.74 0 0 1-.46-.2 2.4 2.4 0 0 1-1-.12l-4.57-1a7 7 0 0 0-3.29 0 7.23 7.23 0 0 0-5.49 5.16A57.47 57.47 0 0 0 14.49 92a12.68 12.68 0 0 1-.31 2.53v5.91c0 .64 0 1.29.06 1.93 0 .39.08.79.11 1.19a55.18 55.18 0 0 0 1.38 8.66 7.37 7.37 0 0 0 8.46 5.47c1.46-.27 2.9-.59 4.35-.89L49 112.63l20.54-4.19 19.63-4 3.25-.67c.6-.12.6-.13.47-.68v-.17a13.88 13.88 0 0 1 1.17-10.09c.05-.2.22-.35.15-.56Zm-66.33 10.44a44.39 44.39 0 0 0-.86 7.36v2.39a22.18 22.18 0 0 1-1.66-3.1 21.89 21.89 0 0 1-2.05-10 .27.27 0 0 1 .3 0h.09c1.28.84 2.56 1.7 3.86 2.52a.65.65 0 0 1 .32.83ZM27.29 94l-3.3 2c-.19.12-.39.21-.59.32-.67-2.62 1.8-10.32 4.2-13a40.5 40.5 0 0 0 .36 9.36c.14.8.14.8-.67 1.32Zm33.42 4-8.12.59-10.54.77c-1.25.09-2.49.19-3.74.25a1.4 1.4 0 0 0-1 .42c-.39.42-.82.79-1.21 1.2-.24.24-.41.2-.63 0-1-1.07-2-2.13-3.11-3.24l3.53-3.4c.56.56 1.1 1.06 1.59 1.6a1.29 1.29 0 0 0 1 .45c2.61.13 5.22.29 7.83.44l13.35.74c.36 0 .72.09 1.08.14Z" class="c"/>
  <path d="M123.92 156.15a10.14 10.14 0 0 0-.7-3.74q-6.9-17.41-13.81-34.92c-.15-.37-.27-.75-.45-1.11a1.58 1.58 0 0 0-1.53-.9 1.52 1.52 0 0 0-1.42.92c-.15.31-.27.63-.39.95q-6.87 17.42-13.74 34.83a10.92 10.92 0 0 0-.79 4.07v18.44a.43.43 0 0 0 .3.46l2.7 1a2.29 2.29 0 0 0 .11-1.05v-14.21a13.44 13.44 0 0 1 .11-1.79 11.56 11.56 0 0 1 11.4-10.19h3a11.67 11.67 0 0 1 11.53 11.8v14.25a3.14 3.14 0 0 0 .1 1.14c.92-.43 1.77-.9 2.67-1.22a1.17 1.17 0 0 0 .86-1.32q.02-8.7.05-17.41Zm-12.09-14.56a4.28 4.28 0 0 1-5.13 4 5 5 0 0 1-3.23-2c-.89-1.2-1-5.61 0-6.82.77-.92 1.45-1.91 2.24-2.8a2.28 2.28 0 0 1 3.57.14c.75 1 1.4 2.07 2.05 3.13a3.27 3.27 0 0 1 .46 1.71v1.37c0 .46.06.85.04 1.27Z" class="b"/>
  <path d="M106.79 88.6a11.11 11.11 0 1 0 11.12 11.14 11 11 0 0 0-11.12-11.14Zm.09 17.49a6.47 6.47 0 1 1 6.48-6.42 6.51 6.51 0 0 1-6.48 6.42Z" class="c"/>
  <path d="M110.98 100a4.1 4.1 0 1 1-4-4.2 4 4 0 0 1 4 4.2Z" class="c"/>
  <path d="M55.94 197.24c2.07.1 4.14.22 6.22.3a29.87 29.87 0 0 0 14-2.79c1.68-.78 3.36-1.55 5.11-2.16A31.2 31.2 0 0 1 92.41 191a8.56 8.56 0 0 1 6.24 2.75 12.38 12.38 0 0 1 3.37 11.62c-.79 3.74-3.68 6-8 5.8a7.36 7.36 0 0 1-1.68-.27 4.33 4.33 0 0 1-3.06-5.54 4.53 4.53 0 0 1 4.59-3.47c.69 0 1.35-.06 1.7-.73a2 2 0 0 0-.23-2 2.67 2.67 0 0 0-3.67-.85 7.3 7.3 0 0 0-1.73 1.5c-1.27 1.46-2.51 2.95-3.78 4.41a25.39 25.39 0 0 1-4.77 4.49 10.54 10.54 0 0 1-5.2 2 12.77 12.77 0 0 1-3.89-.37A39.43 39.43 0 0 1 61.71 206a40.48 40.48 0 0 1-5.68-3.76 16.4 16.4 0 0 1-2.41-2.3 3.71 3.71 0 0 1-.76-1.32c-.21-.73 0-1.16.78-1.31a10.4 10.4 0 0 1 2.3-.07ZM125.41 191.09a30.29 30.29 0 0 1 12.5 2.7 58 58 0 0 0 5.81 2.44 30.53 30.53 0 0 0 11 1.39l5.79-.29a10 10 0 0 1 2 .07c.92.14 1.22.65.89 1.51a4.14 4.14 0 0 1-.88 1.35 16.42 16.42 0 0 1-1.46 1.43 43.55 43.55 0 0 1-16.65 8.62 13.33 13.33 0 0 1-4.31.44 10.35 10.35 0 0 1-5.34-2.07 28.12 28.12 0 0 1-5.07-4.92c-1.07-1.25-2.13-2.52-3.22-3.76a7.68 7.68 0 0 0-1.92-1.67 2.67 2.67 0 0 0-3.94 1.67 1.44 1.44 0 0 0 1.29 2 3.08 3.08 0 0 0 .68 0 4.58 4.58 0 0 1 4.58 4.28c.19 2.68-1.36 4.53-4.21 4.92a8.57 8.57 0 0 1-3.54-.2 6.86 6.86 0 0 1-5.15-5.77 12.38 12.38 0 0 1 3.49-11.44 8.78 8.78 0 0 1 6.61-2.69Z" class="a"/>
  <path d="M200.06 100a53.19 53.19 0 0 0-.35-8.27v-.67c.29.08.45.33.65.53l16.35 16.34c.12.12.23.25.36.37a.37.37 0 0 1 0 .64l-.42.43-40.35 40.35a2.72 2.72 0 0 0-.24.24c-.24.31-.45.34-.75 0a340.36 340.36 0 0 0-3.8-3.8c-.3-.29-.3-.5 0-.76a4.17 4.17 0 0 0 .43-.41l35.76-35.77c.91-.91.91-.91 0-1.84l-6.87-6.88c-.25-.19-.42-.5-.77-.5ZM83.62 32.54c-.32-.23-.36-.62-.51-.95-.5-1.11-1-2.22-1.45-3.34a1.61 1.61 0 0 1-.28-1c.06-.31.32-.46.52-.66L108.06.47c.1-.1.21-.19.3-.3s.37-.24.58 0 .36.36.54.54l24.06 24c.24.24.43.54.77.65-.84 2-1.64 4-2.59 6-.24-.2-.48-.4-.7-.62l-22-22c-.86-.86-.69-.86-1.55 0L84.41 31.89c-.26.24-.45.54-.79.65ZM14.31 94.33v5.91c0 .64 0 1.29.06 1.93-.38 0-.53.3-.74.51-1.7 1.68-3.38 3.37-5.07 5.06-.69.69-.62.59 0 1.24l24 24 10.65 10.63.36.37c.25.2.26.4 0 .63-1.17 1.16-2.33 2.33-3.5 3.5a.39.39 0 0 1-.65 0l-.43-.42L.7 109.38c-.77-.77-.77-.77 0-1.54l12.91-12.91a2.38 2.38 0 0 1 .7-.6Z" class="b"/>
  <path d="M108.16 18.24a.76.76 0 0 1 .72.71c.15.87.32 1.73.51 2.59a28.66 28.66 0 0 0 1.43 4.73 10.91 10.91 0 0 0 6.37 6.27 35.56 35.56 0 0 0 6.24 1.7l1 .19a.66.66 0 0 1 .58.72.64.64 0 0 1-.58.64c-.83.17-1.67.32-2.5.5a29.61 29.61 0 0 0-5 1.49 10.88 10.88 0 0 0-6.14 6.22 33.91 33.91 0 0 0-1.76 6.4c-.06.31-.11.61-.17.92a.69.69 0 0 1-1.38 0c-.21-1.06-.42-2.12-.66-3.17a25.24 25.24 0 0 0-1.51-4.7A10.66 10.66 0 0 0 99.84 38a32 32 0 0 0-7.11-2l-.75-.15c-.49-.12-.71-.36-.67-.73a.69.69 0 0 1 .66-.66c.87-.16 1.73-.33 2.59-.52a30.41 30.41 0 0 0 4.49-1.32 11 11 0 0 0 6.59-6.62 36.49 36.49 0 0 0 1.69-6.33c.06-.28.11-.55.17-.83a.68.68 0 0 1 .66-.6Z" class="c"/>
  <path d="M96.84 51.91c1.53 1.09 2.93 2.34 4.39 3.52l13 10.55.2.16c.52.45.52.45.26 1.07-.61 1.44-1.23 2.87-1.85 4.31l-4.8 11.2c-.08.17-.17.34-.26.52-.3-.06-.28-.31-.33-.47q-5.26-15-10.51-30.09c-.07-.21-.12-.44-.17-.65ZM156.13 56.05l4.28-3.92a1.59 1.59 0 0 1 .29-.15 2 2 0 0 1 .65.55l24 24c.2.2.38.42.56.63-1.56.49-3.19.75-4.78 1.14-.74.19-1.49.34-2.23.51 0-.33-.27-.49-.46-.68q-10.85-10.82-21.63-21.6c-.2-.2-.4-.44-.68-.48ZM37.33 79.15l-5.84-1.3c-.16 0-.34 0-.45-.2 0-.31.31-.46.51-.66l23.31-23.31c.19-.19.35-.46.66-.51s.47.28.67.46c.91.81 1.81 1.62 2.7 2.44.2.19.48.31.5.64s-.38.56-.61.79Q48.41 67.9 38 78.3c-.25.25-.59.44-.67.85ZM120.53 90.13l24.23-20.49a.77.77 0 0 1 .05.73l-2.88 14.46a3.15 3.15 0 0 0-.09.42c0 .48-.29.66-.75.75-2.62.53-5.23 1.09-7.85 1.64l-11.83 2.47a1.27 1.27 0 0 1-.88.02ZM93.41 106.49l-24.16 20.17-.13-.08c.17-.77.33-1.54.5-2.31.94-4.27 1.89-8.54 2.8-12.82a1.13 1.13 0 0 1 1-1q9.81-2 19.61-4.08h.33ZM119.97 105.42a1.32 1.32 0 0 1 .83.09l32.49 8.82a4 4 0 0 1 .55.2c-.32.1-.51.17-.7.21-5.88 1.3-11.77 2.58-17.65 3.89a1.22 1.22 0 0 1-1.22-.32q-6.83-6.12-13.68-12.21a1.87 1.87 0 0 1-.63-.68ZM59.62 81.41l4-.56L76.7 79c1.35-.19 2.7-.37 4-.57a1.25 1.25 0 0 1 1.15.36c4 3.63 7.92 7.24 11.89 10.87.13.12.34.21.3.54L59.6 81.57ZM96.72 52c-.08-.06-.13-.14-.06-.2s.13 0 .18.09Z" class="b"/>
  <path d="m127.71 114.05-.22-.12c.12-.04.18.07.22.12Z" class="a"/>
  <path d="M119.96 105.42c-.08-.07 0 .09-.06 0s.08 0 .07.08Z" class="b"/>
  <path d="M203.82 145.41a4 4 0 0 0-.45.25c-.84.47-1.68 1-2.55 1.38-3.94 2-8 3.66-12.1 5.31-2.61 1-5.24 2.05-7.86 3.08-.74.29-.76.34-.75 1.13a10.33 10.33 0 0 1-.91 4.31 21.78 21.78 0 0 1-3.17 5.14 50.73 50.73 0 0 1-9.2 8.73 72.81 72.81 0 0 1-17 9.83 24.3 24.3 0 0 1-7 1.83 4.48 4.48 0 0 1-4.39-2.05 21.61 21.61 0 0 1-1.89-3.43 49.09 49.09 0 0 1-1.92-5.11c-.48-1.55-1.31-1.68-2.42-1.14-.72.34-1.47.6-2.2.93a47.55 47.55 0 0 0-14.89 9.93 28.42 28.42 0 0 0-6.67 10 .29.29 0 0 1-.24.23 24.49 24.49 0 0 0-.92-2.74 28.33 28.33 0 0 0-8-10.46 45.26 45.26 0 0 0-12.15-7.17c-1.26-.52-2.53-1-3.83-1.43a1.27 1.27 0 0 0-1.76.85c-.07.16-.12.32-.18.48a43.54 43.54 0 0 1-3.67 7.78 12.83 12.83 0 0 1-1.74 2.21 4.14 4.14 0 0 1-3 1.26 15.77 15.77 0 0 1-4.86-.81 47.57 47.57 0 0 1-9.27-4.08 71 71 0 0 1-16.92-12.71 27 27 0 0 1-5.13-7.09 10.2 10.2 0 0 1-1.16-4.93c0-.8 0-.82-.73-1.14-1.91-.81-3.83-1.59-5.73-2.42a152.81 152.81 0 0 1-16.2-7.82 1.82 1.82 0 0 0-.31-.16.61.61 0 0 0-.85.7 6.2 6.2 0 0 0 .19.83 52.52 52.52 0 0 0 4.8 11.73 41.2 41.2 0 0 0 7.19 9.7 76.65 76.65 0 0 0 28.08 17.36 62.83 62.83 0 0 0 15.62 3.4c2 .17 3.92.17 5.88.34a68.24 68.24 0 0 0 10.31 0c2.27-.14 4.54-.3 6.82-.24a15.27 15.27 0 0 1 10.06 4 12.6 12.6 0 0 1 3.32 13.82 10 10 0 0 1-8.18 6.78 13.9 13.9 0 0 1-6.24-.51 7.67 7.67 0 0 0-1.07-.29 2.23 2.23 0 0 0-2.16.72 2 2 0 0 0-.09 2.1 5.18 5.18 0 0 0 .48.9 10.81 10.81 0 0 0 1.46 1.78 32.14 32.14 0 0 0 4.26 3.54 34.73 34.73 0 0 1 5 4.37 53.19 53.19 0 0 1 10.33 16.35 2.08 2.08 0 0 0 .4.8 1.28 1.28 0 0 0 .3-.56 57.28 57.28 0 0 1 5.12-9.82 40.64 40.64 0 0 1 10.8-11.49 28.49 28.49 0 0 0 2.79-2.24 14.39 14.39 0 0 0 2.4-2.65 4.4 4.4 0 0 0 .73-1.62 1.71 1.71 0 0 0-1.35-2.12 3 3 0 0 0-1.75.11 15 15 0 0 1-5.47.76 9.86 9.86 0 0 1-8-4.35 11.94 11.94 0 0 1-1.26-11.71c1.73-4.35 5.15-6.91 9.57-8.17a23.44 23.44 0 0 1 7.88-.44 93.21 93.21 0 0 0 10.57.27c1.36-.07 2.72-.18 4.09-.23a65.74 65.74 0 0 0 15.4-2.28 75.87 75.87 0 0 0 26.5-13.52 47.22 47.22 0 0 0 18.07-27.06 1.89 1.89 0 0 0 .1-.41.63.63 0 0 0-.93-.62Zm-91.48 80.83c-1.25 1.24-2.49 2.49-3.74 3.74a.54.54 0 0 1-.4.21l-.29-.25c-1.23-1.23-2.45-2.46-3.68-3.68-.25-.24-.31-.41 0-.69 1.24-1.22 2.46-2.44 3.68-3.68.27-.28.47-.33.76 0l3.68 3.68c.22.22.27.43-.01.67Zm2.6-8a2 2 0 0 1 .75 1.67 1.51 1.51 0 0 1-.93 1.2 1.47 1.47 0 0 1-1.74-.25c-.65-.6-1.25-1.24-1.87-1.87l-2.4-2.42c-.43-.42-.45-.43-.87 0-1.22 1.22-2.43 2.46-3.65 3.7a5.71 5.71 0 0 1-.82.74 1.54 1.54 0 0 1-2.07-.31 1.61 1.61 0 0 1-.05-2 5.55 5.55 0 0 1 .42-.42l6.07-5.62c.54-.49.55-.49 1.08 0Z" class="a"/>
  <path d="M173.56 154.23q-7.65-6.73-15.33-13.44c-2.26-2-4.57-3.87-6.79-5.88q-1.75-1.6-3.54-3.17c-1.84-1.63-3.68-3.25-5.6-4.79-1-.85-2-1.86-3-2.76-3-2.69-6.13-5.35-9.17-8a16.58 16.58 0 0 1-2.42-2.09l-.22-.12c-.7-.51-1.29-1.15-2-1.71s-1.55-1.36-2.3-2.08c-1.21-1.16-2.51-2.23-3.77-3.33a2.22 2.22 0 0 0-.65-.5c-.22.11-.27.32-.39.47l-.38.57a14.1 14.1 0 0 1-7 5.19c-.54.19-.54.2-.33.7 0 .13.12.26.18.39l5.85 12.82q5.35 11.73 10.72 23.48c1.19 2.61 2.4 5.21 3.6 7.82q4.65 10.19 9.32 20.37a7.36 7.36 0 0 0 9.54 3.94 55.57 55.57 0 0 0 5.53-2.44 58.91 58.91 0 0 0 19-15.16 7.33 7.33 0 0 0-.85-10.28Zm-31.49-7.6a4.49 4.49 0 0 1-.24-.42.37.37 0 0 1-.18-.34l-4.8-7c-.08-.12-.13-.25-.2-.37a5.38 5.38 0 0 1-.86-1.34c-.09-.07-.18-.18-.09-.26s.17 0 .23.11a3.68 3.68 0 0 1 .93 1.11q6.95 7.86 13.87 15.73a1.8 1.8 0 0 0 1.23.66c.39 0 .79.11 1.18.17.7.11.72.11.63.78-.18 1.24-.38 2.47-.56 3.71-.05.37-.18.55-.61.48-1.28-.23-2.57-.44-3.87-.62-.41-.06-.53-.22-.45-.61.11-.58.16-1.18.28-1.77a1.12 1.12 0 0 0-.2-.95c-1.81-2.66-3.59-5.33-5.41-8-.27-.32-.61-.7-.88-1.07Zm14.47 21.93a21.15 21.15 0 0 1-7.27 3.24 23.26 23.26 0 0 1-4.54.75c-.13 0-.27.08-.45-.12a39.44 39.44 0 0 0 7.43-6.17c.22-.23.41-.42.79-.26 1.55.65 3.1 1.26 4.69 1.91-.11.36-.42.48-.65.65Zm11.18-12.8a24.56 24.56 0 0 1-6.92 9.59 6.28 6.28 0 0 1-1.33.89c-.08-1.11-.16-2.12-.24-3.13a17.54 17.54 0 0 0-.13-1.78.74.74 0 0 1 .52-.92 39.45 39.45 0 0 0 5.25-3c.85-.57 1.67-1.18 2.47-1.82.12-.09.21-.28.41-.16a1.09 1.09 0 0 1-.03.33Zm0-.33s-.06-.08 0-.1.07 0 .1 0Z" class="c"/>
  <path d="M141.65 145.87a.28.28 0 0 1 .18.34.37.37 0 0 1-.18-.34Z" class="a"/>
  <path d="M135.7 137c.11-.11.17 0 .23.11" class="b"/>
  <path d="M167.76 155.44c-.06 0-.06-.09 0-.11s.07 0 .1 0l-.1.07Z" class="d"/>
  <path d="M199.71 91.72v-.67a8.21 8.21 0 0 1-.18-.83 68 68 0 0 0-1.74-8.22 7.5 7.5 0 0 0-9.12-5.45 16.91 16.91 0 0 1-2.83.58c-1.56.49-3.19.75-4.78 1.14-.74.19-1.49.34-2.23.51l-20.62 4.63-38.75 8.72a.71.71 0 0 0-.53.26l.29.6a14 14 0 0 1 1.44 6.09 12.62 12.62 0 0 1-.46 3.62c-.12.43 0 .58.4.63h.25l33.74 6.87 35.16 7.17a7.35 7.35 0 0 0 8.83-5.69 56.57 56.57 0 0 0 1.48-11.68 53.19 53.19 0 0 0-.35-8.28Zm-21.25 9.6a11.42 11.42 0 0 1-1.52-1.4 1.53 1.53 0 0 0-1.05-.47c-6.09-.43-12.18-.89-18.27-1.33l-4.2-.28a3.69 3.69 0 0 1 1.25-.23c4.59-.25 9.19-.49 13.78-.75 2.44-.13 4.88-.29 7.32-.41a1.24 1.24 0 0 0 1-.45c.39-.45.83-.85 1.23-1.29.21-.22.36-.32.62-.06l3.26 3.15Zm7.75-8.59a37.3 37.3 0 0 0 .5-4.83 43.8 43.8 0 0 0-.09-5 22 22 0 0 1 1.79 3.1c1.64 3.32 2.68 7.22 2.46 10-.22.12-.37-.06-.53-.15-1.25-.74-2.48-1.49-3.74-2.21a.74.74 0 0 1-.39-.91Zm1.11 19.48a1 1 0 0 1-.12-.78 40.78 40.78 0 0 0-.79-8.54c-.17-.89-.18-.89.61-1.41l3.13-2a1.29 1.29 0 0 1 .8-.34 24.31 24.31 0 0 1-3.63 13.07ZM171.02 32.26l-.8-.88a58.78 58.78 0 0 0-23.63-15.83 8.67 8.67 0 0 0-2.66-.57 7.39 7.39 0 0 0-7.07 4.56l-2.55 5.85c-.84 2-1.64 4-2.59 6-.14.37-.27.75-.42 1.11q-3.13 7.32-6.28 14.65l-16 37.35a1.85 1.85 0 0 0-.27.8 14.31 14.31 0 0 1 9.29 5.7l.51-.45 20.92-19.21 16.66-15.27 4.28-3.94a1.59 1.59 0 0 1 .29-.15 14 14 0 0 1 2.07-2c2.6-2.42 5.25-4.79 7.84-7.22a7.35 7.35 0 0 0 .41-10.5ZM150.5 42.63c-.47.08-.94.22-1.42.26a1.91 1.91 0 0 0-1.42.8q-5.15 6.15-10.32 12.31c-1.15 1.37-2.31 2.74-3.45 4.11-.11.13-.26.23-.32.38a.32.32 0 0 0 0 .17h.12c.05-.14-.21-.07-.12 0a.54.54 0 0 1 .11-.64c0-.07.09-.13.13-.19 1.45-2.28 2.92-4.55 4.38-6.82 2.35-3.65 4.69-7.32 7.06-11a1.59 1.59 0 0 0 .27-1.36c-.13-.52-.19-1.06-.29-1.59-.06-.32 0-.52.37-.58 1.29-.2 2.58-.44 3.86-.69.38-.07.57 0 .64.4.22 1.35.47 2.69.72 4 .03.29-.07.4-.32.44Zm-1.25-11.19c-.39.18-.57 0-.8-.25a43.61 43.61 0 0 0-3.36-3 33.86 33.86 0 0 0-3.82-2.71.55.55 0 0 1-.35-.4 24.2 24.2 0 0 1 13.09 4.32c-1.69.71-3.23 1.36-4.76 2.04Zm15.52 10.32a.39.39 0 0 1-.29-.13 38.4 38.4 0 0 0-7.86-4.7.91.91 0 0 1-.66-1c.11-1.47.15-2.94.22-4.41 0-.11 0-.24.11-.3a9.41 9.41 0 0 1 2.93 2.17c2.37 2.36 4.91 6 5.55 8.38ZM95.16 107.42a3.07 3.07 0 0 0-1 .73l-21 18.09c-2.71 2.34-5.41 4.69-8.13 7-.89.77-1.77 1.56-2.68 2.32-1.51 1.25-3 2.53-4.47 3.82-1 .83-1.89 1.67-2.85 2.47-1.56 1.29-3.05 2.65-4.61 3.94-.54.45-1 1-1.57 1.39-1.47 1.13-2.81 2.42-4.24 3.61-1 .84-2 1.7-3 2.57a7 7 0 0 0-2.34 3.72 7.83 7.83 0 0 0 1.54 6.92 59.5 59.5 0 0 0 23.43 18.26 6.63 6.63 0 0 0 2.81.6 7.2 7.2 0 0 0 6.87-4.34c1.24-2.58 2.44-5.19 3.65-7.79q13.28-28.41 26.54-56.73a1.69 1.69 0 0 0 .3-.83 14.28 14.28 0 0 1-9.25-5.75Zm-39 59.06a1.19 1.19 0 0 1-.1.18 2.11 2.11 0 0 1-.76-.49 22.92 22.92 0 0 1-5.65-7.17c-.45-.82-.75-1.7-1.26-2.49a3.73 3.73 0 0 1-.25-1.12 36.58 36.58 0 0 0 3.6 2.82 45 45 0 0 0 4.52 2.79c.26.14.49.24.45.62-.18 1.59-.3 3.23-.51 4.86Zm10.51 6.18a22.86 22.86 0 0 1-4.26-1.66 15.9 15.9 0 0 1-3.91-2.48.38.38 0 0 1 .27-.28c1.47-.53 2.93-1.06 4.39-1.62a.59.59 0 0 1 .75.14 40.2 40.2 0 0 0 7.25 6.46c-.61.25-1.52.11-4.45-.56Zm12.4-33.76c-2.73 4.25-5.37 8.55-8.15 12.76-1.12 1.69-2.18 3.42-3.26 5.13a.92.92 0 0 0-.14.78c.12.58.15 1.18.23 1.77 0 .34 0 .51-.42.56-1.27.14-2.54.33-3.8.48-.64.08-.65.06-.73-.51-.17-1.27-.32-2.54-.5-3.8 0-.39 0-.58.47-.62s1-.16 1.43-.16a1.78 1.78 0 0 0 1.44-.75c2.7-3.29 5.44-6.56 8.17-9.84l5-6a1.9 1.9 0 0 1 .86-.94 1.59 1.59 0 0 1-.6 1.14Zm.73-1.25-.07-.06h.05Z" class="c"/>
  <path d="M79.83 137.6v.05l-.07-.06h.05Z" class="b"/>
  <path d="M105.96 84.31Q94.83 58.68 83.69 33a1.21 1.21 0 0 1-.07-.5c-.32-.23-.36-.62-.51-.95-.5-1.11-1-2.22-1.45-3.34a1.61 1.61 0 0 1-.28-1c-.31-.17-.36-.51-.48-.78-1.12-2.58-2.23-5.17-3.36-7.74a7.38 7.38 0 0 0-9.81-3.91c-1.54.64-3.07 1.33-4.57 2.09a58.73 58.73 0 0 0-19.42 15.88 7.15 7.15 0 0 0-1.62 3.88 7.39 7.39 0 0 0 2.54 6.48q5.15 4.66 10.27 9.36c.23.21.52.36.59.7.33 0 .47.28.67.46.91.81 1.81 1.62 2.7 2.44.2.19.48.31.5.64.46.08.7.47 1 .75L89.22 83.7l6.79 6.19a14.29 14.29 0 0 1 10.19-4.79 1.67 1.67 0 0 0-.24-.79ZM59.3 35.88c-.69.33-1.37.69-2 1.06a37.61 37.61 0 0 0-5.72 3.84.94.94 0 0 1-.17.22c-.08.08-.19.16-.29.07s0-.21 0-.3a.72.72 0 0 1 .14-.2 25.28 25.28 0 0 1 6.19-9 9.13 9.13 0 0 1 1.87-1.4c.23.17.17.39.19.58.1 1.42.17 2.84.32 4.25a.77.77 0 0 1-.53.88Zm15.31-12c0 .18-.17.21-.28.28A40.6 40.6 0 0 0 67.41 30c-.61.63-.38.61-1.29.25l-4.31-1.77c2.75-2.61 9.14-4.67 12.8-4.58Zm7.61 35.86a1.82 1.82 0 0 1-.83-.92L68.55 42.46a1.7 1.7 0 0 0-1.33-.76c-.54 0-1.07-.17-1.6-.25-.28 0-.38-.16-.33-.46.22-1.34.42-2.69.63-4 0-.31.18-.43.51-.37 1.32.22 2.64.42 4 .61.34 0 .49.2.42.57s-.12 1-.25 1.51a1.5 1.5 0 0 0 .23 1.2l6.9 11.56q1.95 3.3 3.92 6.59M94.33 92.09c-.1-.14-.25-.13-.39-.16L80.06 88.8l-33.84-7.62-8.89-2-5.84-1.3c-.16 0-.34 0-.45-.2a2.47 2.47 0 0 1-1-.12l-4.56-1a7 7 0 0 0-3.29 0 7.22 7.22 0 0 0-5.49 5.16 57.29 57.29 0 0 0-2.08 10.08 13.56 13.56 0 0 1-.31 2.53v5.91c0 .64 0 1.28.06 1.93 0 .39.08.79.11 1.19a52.94 52.94 0 0 0 1.37 8.64 7.37 7.37 0 0 0 8.46 5.47c1.45-.27 2.9-.59 4.34-.89l20.46-4.17 20.55-4.19 19.62-4 3.26-.67c.6-.12.6-.13.47-.68v-.17a13.94 13.94 0 0 1 1.18-10.09c.04-.16.22-.31.14-.52Zm-66.32 10.44a44.39 44.39 0 0 0-.86 7.36v2.39a22.18 22.18 0 0 1-1.66-3.1 21.76 21.76 0 0 1-2-10.05.27.27 0 0 1 .3 0l.09.05c1.28.84 2.56 1.7 3.85 2.52a.66.66 0 0 1 .28.83Zm-.6-8.75-3.3 2-.59.32c-.68-2.62 1.8-10.33 4.2-13a40 40 0 0 0 .36 9.36c.15.84.15.84-.67 1.32Zm33.42 4.06-8.12.58-10.54.78c-1.25.09-2.5.19-3.74.25a1.36 1.36 0 0 0-1 .42c-.39.42-.82.79-1.22 1.2-.23.24-.4.2-.62 0-1-1.07-2-2.13-3.11-3.24l3.53-3.4c.56.56 1.1 1.06 1.59 1.6a1.31 1.31 0 0 0 1 .45c2.61.13 5.22.29 7.82.43 4.46.25 8.91.49 13.36.75.36 0 .72.09 1.08.14Z" class="c"/>
  <path d="M124.05 156a10 10 0 0 0-.71-3.74l-13.76-34.92c-.15-.37-.28-.75-.46-1.11a1.57 1.57 0 0 0-1.52-.9 1.52 1.52 0 0 0-1.42.92c-.15.31-.27.63-.39 1q-6.87 17.42-13.74 34.83a10.72 10.72 0 0 0-.79 4.07v18.43a.45.45 0 0 0 .3.47l2.71 1a2.28 2.28 0 0 0 .1-1V160.8a15.22 15.22 0 0 1 .11-1.79 11.57 11.57 0 0 1 11.41-10.19h3a11.67 11.67 0 0 1 11.52 11.71v14.25a3.16 3.16 0 0 0 .1 1.14c.92-.43 1.77-.9 2.66-1.22a1.16 1.16 0 0 0 .86-1.32q-.01-8.7.02-17.38Zm-12.09-14.56a4.29 4.29 0 0 1-5.14 4 5 5 0 0 1-3.23-2c-.89-1.2-1-5.61 0-6.82.76-.92 1.45-1.91 2.23-2.8a2.29 2.29 0 0 1 3.58.14c.74 1 1.4 2.06 2.05 3.13a3.37 3.37 0 0 1 .46 1.71v1.36c.05.4.06.84.05 1.25Z" class="b"/>
  <path d="M106.92 88.42a11.11 11.11 0 1 0 11.12 11.14 11 11 0 0 0-11.12-11.14Zm.09 17.49a6.47 6.47 0 1 1 6.47-6.42 6.5 6.5 0 0 1-6.47 6.42Z" class="c"/>
  <path d="M111.1 99.84a4.1 4.1 0 1 1-4-4.2 4 4 0 0 1 4 4.2Z" class="c"/>
</svg>