<svg xmlns="http://www.w3.org/2000/svg" viewBox="0 0 208.71 215.24">
  <defs>
    <style>
      .a{fill:#e9d9a0}.b{fill:#ecdda4}.c{fill:#e9daa1}.d{fill:#c2a174}.e{fill:#caad80}.f{fill:#d2b989}.g{fill:#c4a57a}.h{fill:#e1ce98}
    </style>
  </defs>
  <path d="M137.48 92.64c-.22-.15-.24-.31 0-.48.86-.67 1.76-1.29 2.57-2a36.28 36.28 0 0 0 3.42-2.89 26.59 26.59 0 0 1 2.26-2.48.56.56 0 0 0 .19-.73c-.13-.27-.39-.24-.62-.24h-9.73a12.57 12.57 0 0 0-5 .86c-2.2.82-4.29 1.88-6.48 2.71-1.52.59-3 1.4-4.53 1.84a3.71 3.71 0 0 1-2.58-.24 25.38 25.38 0 0 1-3.27-1.91 28.25 28.25 0 0 1-3.44-2.54 3.13 3.13 0 0 0-2.18-.72c-2.46 0-4.92.09-7.37 0a4.61 4.61 0 0 0-3.2 1.28 23.77 23.77 0 0 1-6.43 4.08 3.35 3.35 0 0 1-2.58-.06c-3-1.31-6-2.77-9.12-3.87-.45-.16-.87-.39-1.31-.57a11.47 11.47 0 0 0-4.79-.85c-3 .08-6.07 0-9.11 0a7.48 7.48 0 0 0-.82 0c-.48 0-.59.24-.37.69a3 3 0 0 0 .76 1.07 4.71 4.71 0 0 1 .81 1.17c.18.25 0 .45-.25.52a18.48 18.48 0 0 1-5.66-8.82 46.55 46.55 0 0 1-2-14.21 24.27 24.27 0 0 1 1.55-8.4c.35-.87.45-.91 1.24-.4a9.83 9.83 0 0 0 3.13 1.23c.75.17.8.13 1.19-.55a11.93 11.93 0 0 1 6-4.91c1-.44 2.06-.89 3.06-1.42a18.43 18.43 0 0 0 2-1.26 7.81 7.81 0 0 0 1.62-1.52h.22a25 25 0 0 0 7.42 5.69c.42.24.83.47 1.26.69a12.76 12.76 0 0 1 6.71 8.23 16.08 16.08 0 0 1-.29 10 10.06 10.06 0 0 1-8.11 6.9c-5 1-9.12-.73-12.6-4.21a6.64 6.64 0 0 1-1.88-5.14 8.92 8.92 0 0 1 3.66-7.41 7.37 7.37 0 0 1 8.1-.41 4.16 4.16 0 0 1 1.71 5c-.36.06-.52-.26-.77-.41a5.11 5.11 0 0 0-3.73-.71 3.43 3.43 0 0 0 .1 6.69 9.87 9.87 0 0 0 3.16.13c3.46-.5 4.79-3.18 5-5.62.36-4.23-2.8-8.32-6.77-9.56a11.36 11.36 0 0 0-14.76 9 16.48 16.48 0 0 0-.03 5.65 11.89 11.89 0 0 0 3.94 6.88 21.55 21.55 0 0 0 5.33 3.5c1.81.87 3.66 1.66 5.48 2.51 2.11 1 4.23 1.92 6.35 2.86 1.17.53 2.35 1 3.5 1.6.54.27.93 0 1.37-.19a24.54 24.54 0 0 0 6.27-4.21s.11 0 .18-.08a2.61 2.61 0 0 0 .81-.81 48.79 48.79 0 0 0 3.83-5.21c.57-.91 1.12-1.84 1.66-2.78.1-.17.17-.36.38-.44a1 1 0 0 1 .85 0c.5.82 1 1.63 1.52 2.45a39.67 39.67 0 0 0 3.08 4.42 17.36 17.36 0 0 0 1.86 2.25 32.64 32.64 0 0 0 6.08 4.18 2.71 2.71 0 0 0 2.74 0c1.69-.77 3.37-1.59 5.1-2.3 1.22-.51 2.43-1.1 3.64-1.69 1.92-.94 3.94-1.7 5.87-2.63a21.17 21.17 0 0 0 6.71-4.84c.44-.3.91-.57.93-1.19l1-1.89a4.27 4.27 0 0 0 1.06-2.39c.55-1.77.7-1.9 2.58-1.91h3c1 0 1.38.38 1.3 1.36a35.75 35.75 0 0 1-.81 5.54 3.46 3.46 0 0 0-.1 1.11 1 1 0 0 1-.2.66 31.69 31.69 0 0 0-1.5 3.24 19.55 19.55 0 0 1-4 5.34 3.44 3.44 0 0 0-.75.82 35.4 35.4 0 0 1-5.58 4.32c-.27.18-.67.29-.84.63Z" class="a"/>
  <path d="M42.15 110.81a16.06 16.06 0 0 0 4.7 4 11 11 0 0 1 2 1.4c.29.25.35.55-.07.7-4 1.45-7.27 4.27-10.82 6.54a20.58 20.58 0 0 1-6.78 3c-6.17 1.29-11.71.12-16.37-4.32a48.49 48.49 0 0 1-6.16-7.6 31.52 31.52 0 0 0-4.48-5.3 11.43 11.43 0 0 0-3.65-2.41c-.22-.08-.48-.15-.53-.42s.24-.46.46-.59a6.66 6.66 0 0 1 4.93-.78 1.56 1.56 0 0 0 1.7-.51c1.55-1.62 3.13-3.23 4.77-4.78a12.56 12.56 0 0 1 10.26-3.34 15.51 15.51 0 0 1 6.79 2.36 3.38 3.38 0 0 0 2.21.57c1-.09 2.11 0 3.2 0 .15.2 0 .39-.13.61-.34.89-.66 1.79-1 2.67a2.59 2.59 0 0 0-.07 1.8 13.27 13.27 0 0 1-.07 7.26 6.83 6.83 0 0 1-6 5.19 7.9 7.9 0 0 1-6-1.26 4.7 4.7 0 0 1-2.16-4.75 7.28 7.28 0 0 1 .38-1.9 4.39 4.39 0 0 1 .64-1.16c.79-.95 1-.93 1.67.15a6.23 6.23 0 0 0 1.6 2 2.87 2.87 0 0 0 3.43.28 3.19 3.19 0 0 0 1.11-3.38 4.2 4.2 0 0 0-2-2.7c-3.22-1.86-8.12-.69-9.92 2.54-1.68 3-1.83 6.19.23 9.1a13 13 0 0 0 9.56 5.49 14.75 14.75 0 0 0 10.54-3.13 20.82 20.82 0 0 0 5.21-5.85c.24-.52.49-.95.82-1.48ZM166.57 111.01a33.08 33.08 0 0 0 2.64 4 16.85 16.85 0 0 0 9.73 6.17 13.44 13.44 0 0 0 11.44-2.74 12.84 12.84 0 0 0 2-1.93c2.92-3.37 1.94-8.79-.38-11a7.51 7.51 0 0 0-5.62-2 6.78 6.78 0 0 0-3.43.86 4.13 4.13 0 0 0-2 4.09 2.71 2.71 0 0 0 4.3 1.85 6.24 6.24 0 0 0 2-2.31c.48-.87.83-.9 1.48-.13a4.8 4.8 0 0 1 1 2.42c.53 2.84-.39 4.77-3 6a8.44 8.44 0 0 1-8-.28 5.93 5.93 0 0 1-2.92-3.66 13.34 13.34 0 0 1-.28-7.56 3.66 3.66 0 0 0-.14-2.4c-.41-1-.78-2-1.15-2.87 1.06 0 2.11-.06 3.15 0a3.85 3.85 0 0 0 2.4-.61 15.42 15.42 0 0 1 8.33-2.43 12.47 12.47 0 0 1 8.8 3.52c1.58 1.5 3.14 3 4.61 4.64a1.64 1.64 0 0 0 1.78.56 7 7 0 0 1 3.83.26 4.47 4.47 0 0 1 1.1.53c.58.4.57.71-.09 1a13.22 13.22 0 0 0-4.31 3 40.64 40.64 0 0 0-4.47 5.58 41 41 0 0 1-5.87 7.07 16.5 16.5 0 0 1-9.5 4.35 19.66 19.66 0 0 1-13.35-3.39c-2.28-1.5-4.44-3.18-6.79-4.58a23.66 23.66 0 0 0-3.56-1.78c-.87-.32-.89-.54-.13-1.12a10.13 10.13 0 0 1 1.09-.76 16.58 16.58 0 0 0 5.31-4.35ZM69.45 96.04c2 1.4 3.87 2.85 5.71 4.31a38 38 0 0 1 4 3.54 12.77 12.77 0 0 1 2.48 3.48.57.57 0 0 1 .06.53 4.53 4.53 0 0 1-1.27 0 25.68 25.68 0 0 0-10 .92 14 14 0 0 0-5.27 3.24 31.75 31.75 0 0 0-5.8 7.11c-.12.19-.15.46-.49.55-.27-.35-.56-.72-.84-1.1a19 19 0 0 0-7.69-6.41 18.63 18.63 0 0 1-3.88-2.26 12.65 12.65 0 0 1-4.51-6.19 16.47 16.47 0 0 1-.88-8.84 12.89 12.89 0 0 1 5.89-8.51 17.19 17.19 0 0 1 8.37-2.72 1 1 0 0 1 1.19.66 21.72 21.72 0 0 0 8.54 9.18c.77.47.82.61.51 1.49a9.2 9.2 0 0 1-5 5.39 4.48 4.48 0 0 1-4.22-.19 8.41 8.41 0 0 1-3-3l1.81-.16a4.07 4.07 0 0 0 1.92-.65 2.44 2.44 0 0 0 .7-3.71 4.67 4.67 0 0 0-7.5-.29 7.84 7.84 0 0 0-1.93 5.26 6 6 0 0 0 1.58 4 11.12 11.12 0 0 0 5.72 3.38c4 1.11 7.38-.13 10.17-3.1a17 17 0 0 0 3.31-5.14c.06-.22.16-.43.32-.77ZM126.96 108.1a8.23 8.23 0 0 1 1.74-2.95 31.08 31.08 0 0 1 5-4.66c1.78-1.44 3.6-2.81 5.48-4.18.36.24.43.67.59 1a17 17 0 0 0 4 5.64 9.17 9.17 0 0 0 6.85 2.69 12.21 12.21 0 0 0 7.4-2.86c2.69-2.27 3.19-5.65 1.37-8.87a5.37 5.37 0 0 0-3.49-2.92 4.91 4.91 0 0 0-5.17 2.47 2.32 2.32 0 0 0 .46 2.73 4.59 4.59 0 0 0 3.18 1.19h1.09a8.1 8.1 0 0 1-2.7 2.86 4.71 4.71 0 0 1-4.87.23 9.19 9.19 0 0 1-4.76-5.36c-.26-.73-.19-.94.49-1.34a21.64 21.64 0 0 0 8.7-9.37c.29-.59.68-.58 1.16-.55a17.79 17.79 0 0 1 5.75 1.33 15.24 15.24 0 0 1 5.41 3.77 12.46 12.46 0 0 1 3.3 8.06 18.14 18.14 0 0 1-1.27 7.4 13.49 13.49 0 0 1-6.52 7.12c-.72.38-1.44.77-2.19 1.11a17.78 17.78 0 0 0-6.71 5.54c-.47.58-.92 1.17-1.43 1.82-.26-.41-.48-.74-.68-1.08a30.91 30.91 0 0 0-7.1-8 13.45 13.45 0 0 0-6.07-2.54 28.17 28.17 0 0 0-7.94-.28 2.28 2.28 0 0 1-1.07 0Z" class="b"/>
  <path d="M150.31 77.66a1.05 1.05 0 0 1-.17-1.06 26.43 26.43 0 0 0 .57-4.85c0-.34.13-.67.17-1 .06-.62-.12-.79-.74-.73-1.32.13-2.66 0-4 .06-.91 0-.95 0-1.17.93a10.73 10.73 0 0 1-1.06 2.76c-.15.25-.32.48-.62.16a15.54 15.54 0 0 0 .46-8.57 11.33 11.33 0 0 0-15.41-8.25 9.68 9.68 0 0 0-6 7.6 6.67 6.67 0 0 0 1.42 5.39 5.34 5.34 0 0 0 3.89 1.93 8.49 8.49 0 0 0 3.05-.21 3.59 3.59 0 0 0 2.41-4.76 3.71 3.71 0 0 0-3.73-2 5.89 5.89 0 0 0-2.5.84c-.23.13-.4.37-.69.4a3.89 3.89 0 0 1 .76-4.22 6.05 6.05 0 0 1 5.44-1.76 8.27 8.27 0 0 1 7.08 7.08 7.89 7.89 0 0 1-1.28 6.32 10.66 10.66 0 0 1-2.94 2.66 13.78 13.78 0 0 1-7.39 2.39 11.47 11.47 0 0 1-8.42-3.33 10.88 10.88 0 0 1-2.69-5.21 16.17 16.17 0 0 1 .86-10.6 12.32 12.32 0 0 1 5.44-5.92c1-.53 1.92-1 2.86-1.59a23.11 23.11 0 0 0 6.44-5.19 18.75 18.75 0 0 0 6.91 4.32 11.08 11.08 0 0 1 5.94 5.07c.24.46.56.44.93.37a9.47 9.47 0 0 0 3.32-1.28c.73-.47.87-.42 1.2.35a19.34 19.34 0 0 1 1.33 5.23 41.82 41.82 0 0 1-1.56 16.57s-.09.07-.11.1Z" class="c"/>
  <path d="M175.33 79.53a5.59 5.59 0 0 1 3.18-.89 2 2 0 0 1 2 1.52c.73 2.13-.18 3.82-2.53 4.18a12.17 12.17 0 0 1-8.67-1.56l-.25-.18c-.74-.56-.8-.83-.32-1.61a29.2 29.2 0 0 0 2.18-4.28 23.25 23.25 0 0 0 1.39-4.28c.27-1.36 1-1.9 2.5-1.67a24 24 0 0 1 5.6 1.58 22.29 22.29 0 0 0 7.78 1.52 31 31 0 0 0 5.1-.18c.46 0 .54.15.52.51a19.23 19.23 0 0 1-.5 3.63 23.58 23.58 0 0 1-8.21 13 91.63 91.63 0 0 1-12.56 8.58c-.94.54-1.34.37-1.6-.67a29.11 29.11 0 0 0-4.15-9.84c-.39-.55-.85-1.06-1.28-1.59a1.79 1.79 0 0 1 .8-2.75.66.66 0 0 1 .65.18 15.3 15.3 0 0 0 11.69 2.35c2.5-.38 4.44-1.65 5.11-4.24a5.5 5.5 0 0 0-1.61-5.7 4 4 0 0 0-4.12-.78 3.94 3.94 0 0 0-2.7 3.17ZM33.53 79.32A4.22 4.22 0 0 0 30.19 76a4 4 0 0 0-4.29 1.7 5.67 5.67 0 0 0 2.11 8.52 8.66 8.66 0 0 0 2.94.78 16.38 16.38 0 0 0 9.07-1.47 9.56 9.56 0 0 0 1.72-1.08.61.61 0 0 1 .91 0 5.93 5.93 0 0 1 .74.85 1.13 1.13 0 0 1-.1 1.59c-2.91 3.2-4.38 7.09-5.43 11.19-.4 1.54-.73 1.65-2.1.8-2.28-1.43-4.66-2.7-6.84-4.29a49.36 49.36 0 0 1-8.45-7.06 22.29 22.29 0 0 1-5.56-13.24v-.41c0-.34.1-.5.48-.45a37 37 0 0 0 4.08.16 23.21 23.21 0 0 0 9.49-1.74 19.73 19.73 0 0 1 4.61-1.29c.27 0 .54-.09.81-.11a1.66 1.66 0 0 1 1.94 1.41c.28 1 .52 1.91.83 2.84a29.39 29.39 0 0 0 2.81 6c.51.85.46 1.12-.37 1.69a10.27 10.27 0 0 1-5.16 1.77c-1 .08-2 0-3.06 0a4.36 4.36 0 0 1-1-.17 3 3 0 0 1-1.9-4.65 1.87 1.87 0 0 1 1.59-1 4.56 4.56 0 0 1 2.3.33Z" class="b"/>
  <path d="M172.94 49.71c5.27 14.44-3.34 29.71-19 31.68-.23-.21 0-.37.08-.53a23.69 23.69 0 0 0 1.85-10.48c0-.76 0-.76.69-.89a12.62 12.62 0 0 0 10.49-10.73.76.76 0 0 0 0-.21c-.22-1.4.59-2.17 1.61-3a13.68 13.68 0 0 0 4-5.35c.06-.15.09-.37.28-.49ZM35.7 49.53c.39.21.4.55.52.82a14.94 14.94 0 0 0 4.87 5.82 1.13 1.13 0 0 1 .54 1 12.59 12.59 0 0 0 10.14 12l.4.1c.83.17.85.17.79.94a23.11 23.11 0 0 0 1.7 10.2c.09.21.26.41.19.67-11.58-.82-24.95-12.96-19.15-31.55ZM37.22 37.19a26.05 26.05 0 0 1 8.29 1.59 12.59 12.59 0 0 1 3.94 2.34 11 11 0 0 1 3.56 7.47 12.42 12.42 0 0 1-.68 5.23 1.16 1.16 0 0 1-.77.85 11.9 11.9 0 0 1-12.62-2.93 13.54 13.54 0 0 1-2.86-5.59 28.71 28.71 0 0 1-.92-8.3c0-.47.11-.71.63-.67s.95.01 1.43.01ZM173.56 39.96a23.2 23.2 0 0 1-1.78 8.86 10.77 10.77 0 0 1-9.13 6.71 12.71 12.71 0 0 1-5.34-.55 1.16 1.16 0 0 1-.92-.84 12.3 12.3 0 0 1 1.26-10.92 11.34 11.34 0 0 1 5.63-4.23 23.21 23.21 0 0 1 7.37-1.46c.75 0 1.5-.05 2.25-.1.48 0 .69.13.67.63s-.01 1.26-.01 1.9Z" class="b"/>
  <path d="M131.1 184.21c0-.29.22-.39.35-.53l8.44-8.5 18-18.17 15.25-15.42q6.3-6.36 12.59-12.74a1.56 1.56 0 0 1 .75-.5 17.31 17.31 0 0 0 6.85-3.3 1.59 1.59 0 0 1 .35-.08c-.23.28-.37.47-.54.64l-10.6 10.68-17.85 18-16.04 16.24-13.89 14.05c-.19.19-.39.37-.58.57a.56.56 0 0 1-.73.17c-.8-.38-1.62-.65-2.35-1.11ZM15.32 125.53a23.81 23.81 0 0 0 5.52 2.66h.09a5.13 5.13 0 0 1 3.15 1.9q14.49 14.67 29 29.31l10.57 10.66 13.37 13.56c.14.14.33.24.35.56a7.94 7.94 0 0 0-2.33 1.12c-.36.27-.55-.07-.76-.28l-4.27-4.27-10.5-10.53-11.38-11.49-15.33-15.51-17.21-17.37c-.1-.1-.18-.21-.27-.32ZM127.78 191.53c0 .19-.17.29-.29.41-.66.68-1.32 1.37-2 2-3.24 3.27-6.5 6.53-9.74 9.8l-10.44 10.56-.29.28c-.92.9-.71.84-1.55 0l-11.24-11.35-10.87-11-.36-.36c-.35-.3-.28-.55.06-.82a15.83 15.83 0 0 0 1.28-1.18c.36-.37.6-.28.92 0l3 3 17.27 17.47.15.15c.52.5.52.51 1 0l4.05-4.05 16.29-16.43.36-.37c.22-.23.4-.17.6 0a6.77 6.77 0 0 0 1.59 1.43.253.253 0 0 1 .21.46Z" class="d"/>
  <path d="M57.65 36.41a22.16 22.16 0 0 1 11.73 3.92 24.31 24.31 0 0 1 5 4.54c.58.7.57.71-.09 1.38a12.82 12.82 0 0 1-5.67 3.11 1 1 0 0 1-1.08-.34 19.06 19.06 0 0 0-4.63-3.33 13.27 13.27 0 0 0-6.49-1.54 4.54 4.54 0 0 1-4-1.92 17.58 17.58 0 0 0-3.48-3.3c-.13-.11-.28-.19-.41-.3-.51-.41-.48-.61.12-.82a24.45 24.45 0 0 1 3.36-.89 26.39 26.39 0 0 1 5.64-.51ZM151.55 36.65a27.63 27.63 0 0 1 8.34 1.27 2.5 2.5 0 0 1 .38.15c.38.18.44.42.14.69s-.72.52-1.06.8a22.65 22.65 0 0 0-3.32 3.32 3.67 3.67 0 0 1-3.12 1.45 15.89 15.89 0 0 0-11.21 4.45 5.39 5.39 0 0 0-.6.57.82.82 0 0 1-.92.24 12.82 12.82 0 0 1-5.83-3.24c-.52-.52-.52-.54-.08-1.08a22.7 22.7 0 0 1 13.51-8.23 26.54 26.54 0 0 1 3.77-.39ZM76.11 25.84a10.26 10.26 0 0 1-.5 3 3.71 3.71 0 0 1-4.3 2.59 10 10 0 0 1-8.36-9.3 7.91 7.91 0 0 1 .2-2.33c.31-1.4.68-2.78 1-4.18.11-.51.31-.57.78-.44 1.28.35 2.58.63 3.86 1a9.88 9.88 0 0 1 7.32 9.66ZM145.65 21.3a10.23 10.23 0 0 1-8.35 10.16 3.78 3.78 0 0 1-4.29-2.66 10.16 10.16 0 0 1 5.81-12.27 41.4 41.4 0 0 1 5-1.34c.43-.11.54.1.62.44.28 1.16.58 2.31.87 3.47a6.78 6.78 0 0 1 .34 2.2ZM86.2 123.01a3.19 3.19 0 0 1-.21 1.7c-.29.57-.43.6-.88.12a27.51 27.51 0 0 0-3.43-3 44.38 44.38 0 0 0-9.1-5c-1.22-.52-2.44-1-3.64-1.62s-1.38-1-.57-2.18a5.77 5.77 0 0 1 4-2.35 10.27 10.27 0 0 1 8.57 2.4 14 14 0 0 1 5.12 8.48 4.17 4.17 0 0 1 .1.6c.06.24.04.54.04.85ZM134.73 110.47a8 8 0 0 1 4.12 1 4.86 4.86 0 0 1 1.73 1.7c.59 1 .5 1.37-.52 1.85-1.38.66-2.78 1.28-4.19 1.89a39.79 39.79 0 0 0-10.32 6.15c-.65.56-1.25 1.16-1.87 1.75s-.68.41-.92-.23a3.46 3.46 0 0 1-.18-1.2 12.71 12.71 0 0 1 3.32-8.48 12 12 0 0 1 6.5-4.19 8.72 8.72 0 0 1 2.33-.24Z" class="b"/>
  <path d="M141.93 36.83c-.81.45-1.5.81-2.17 1.22a.67.67 0 0 1-1-.17c-.87-.92-1.76-1.81-2.65-2.71l-14.09-14.23c-1.61-1.63-3.21-3.26-4.82-4.88a2.8 2.8 0 0 1-.66-.9 42.27 42.27 0 0 0-4.78-8.43c-.1-.13-.18-.28-.27-.42s0-.06.06-.16c1.2 1.19 2.38 2.36 3.54 3.54 2.31 2.32 4.6 4.66 6.91 7 2.81 2.83 5.62 5.67 8.45 8.48a1.87 1.87 0 0 1 .64 1.42 9.57 9.57 0 0 0 .57 2.9 5.21 5.21 0 0 0 5.71 3.47c.31 0 .57-.16.84.12 1.21 1.22 2.44 2.45 3.72 3.75ZM67.78 37.34l4-4a1.22 1.22 0 0 1 .72-.34 5.36 5.36 0 0 0 4.73-4.56 2.42 2.42 0 0 1 .71-1.31c3.15-3.17 6.28-6.35 9.43-9.53l6-6a2.34 2.34 0 0 1 .69-.6c.23.21 0 .35-.07.51a38.3 38.3 0 0 0-2.58 5.78 3.77 3.77 0 0 1-.92 1.45q-8.35 8.37-16.7 16.79c-1 1-1.93 1.93-2.87 2.92-.36.37-.64.49-1.12.13s-1.25-.77-2.02-1.24ZM208.38 103.91a12.55 12.55 0 0 0-4.28-.52c-.52 0-.79-.34-1.09-.65l-8.19-8.32c-1.77-1.79-3.56-3.58-5.33-5.38-.49-.5-.48-.5-.05-1s.62-.81.93-1.22c.45-.62.45-.62 1-.11l5.47 5.53 9.36 9.45Z" class="d"/>
  <path d="M150 123.19a11.12 11.12 0 0 1 .74 2.1c.92 2.88 1.84 5.77 2.74 8.66a3.63 3.63 0 0 1-1.27 4.28 3.56 3.56 0 0 1-5.47-4c.82-2.84 1.66-5.68 2.5-8.52.23-.75.46-1.54.76-2.52Z" class="b"/>
  <path d="m1.87 103.96 16.78-16.93 1.74 2c.23.25 0 .42-.12.6-.71.73-1.42 1.47-2.14 2.2-3.76 3.81-7.53 7.6-11.28 11.43a1.84 1.84 0 0 1-1.87.66 11.82 11.82 0 0 0-3.11.04Z" class="d"/>
  <path d="M58.65 123.31a2 2 0 0 1 .44 1c1 3.25 2.06 6.49 3.06 9.75a3.57 3.57 0 1 1-6.79.28c.27-1.09.63-2.16.94-3.24.74-2.52 1.47-5 2.21-7.56a1.4 1.4 0 0 1 .14-.23Z" class="b"/>
  <path d="M124.65 175.95a1.64 1.64 0 0 1 1.29-.65c2.86-.17 5-1.42 6-4.26.29-.84.37-.86 1.24-.85a2.35 2.35 0 0 0 .7-.08 3.37 3.37 0 0 1 1.61 0 2.14 2.14 0 0 0 2.12-.35.64.64 0 0 1 .37-.15c.26 0 .59-.14.74.16s-.15.42-.31.58c-1.22 1.18-2.26 2.54-3.49 3.72-.78.75-1.43 1.63-2.17 2.43-.46.49-1 .92-1.47 1.4-.93.91-1.83 1.83-2.75 2.74a2.92 2.92 0 0 1-1 .83c-.28.1-.3.34-.31.59-.16 0-.18-.17-.2-.3a17.84 17.84 0 0 0-2.37-5.81Z" class="e"/>
  <path d="M78.45 185.45a4.86 4.86 0 0 1 3.46 1.42c.52.51.54.69.22 1.35a4.73 4.73 0 0 1-6 2.36 9 9 0 0 1-2.28-1.35c-.23-.19-.35-.38-.14-.69a8.83 8.83 0 0 1 2.48-2.54 3.69 3.69 0 0 1 2.26-.55ZM130.42 185.44a3.39 3.39 0 0 1 2.11.62 7.88 7.88 0 0 1 2.35 2.39c.19.29.28.52 0 .78a7.19 7.19 0 0 1-3.87 1.72 5 5 0 0 1-4.57-2.89 1 1 0 0 1 .23-1.12 5.25 5.25 0 0 1 3.75-1.5Z" class="d"/>
  <path d="M143.93 87.68c-.14-.2 0-.31.14-.43a24.65 24.65 0 0 0 2.35-2.55 20.8 20.8 0 0 0 2.65-4.71c.25-.59.47-1.2.76-1.78.16-.31.23-.05.28.11a11.8 11.8 0 0 1-1.39 3.59 19.05 19.05 0 0 1-4.79 5.77Z" class="c"/>
  <path d="M64.86 87.75c.26-.33.52-.26.78 0 1 .86 2 1.64 3 2.4.23.18.4.41.07.66a27.61 27.61 0 0 1-3.85-3.06Z" class="a"/>
  <path d="M142.32 75.82c.16.71 0 .93-.93 1.19Z" class="c"/>
  <path d="M119.79 125.6a6 6 0 0 1 .19-2.7 13.53 13.53 0 0 1-.19 2.7Z" class="f"/>
  <path d="M113.02 169.6a2.84 2.84 0 0 1 2.45 0ZM96.65 173.67h-2.34a3.54 3.54 0 0 1 2.34 0Z" class="g"/>
  <path d="M80.65 160.58c.22.06.4.18.21.41s-.46.21-.67-.05a.79.79 0 0 1 .46-.36ZM120 122.34c0-.57-.2-1.16.18-1.69a5.08 5.08 0 0 1-.18 1.69Z" class="f"/>
  <path d="M143.03 166.3c-.51-.06-1.06.17-1.54-.19a4.47 4.47 0 0 1 1.54.19Z" class="e"/>
  <path d="M120.22 120.32c0-.51-.2-1 .18-1.51a3.51 3.51 0 0 1-.18 1.51Z" class="f"/>
  <path d="M98.07 83.6a.88.88 0 0 1-.81.81Z" class="h"/>
  <path d="M85.37 173.68a.79.79 0 0 1 .85.06.51.51 0 0 1-.85-.06Z" class="f"/>
  <path d="M129.65 167.71c.42-.3.89-.13 1.34-.16a3.39 3.39 0 0 1-1.34.16Z" class="e"/>
  <path d="M88.65 121.67a1.69 1.69 0 0 1 .16 1.28 2.34 2.34 0 0 1-.16-1.28Z" class="f"/>
  <path d="M113.02 173.26c-.32.31-.71.2-1.08.19a1.56 1.56 0 0 1 1.08-.19ZM114.96 173.44c-.39 0-.79.14-1.12-.18a1.62 1.62 0 0 1 1.12.18Z" class="g"/>
  <path d="M141.31 166.09c-.36 0-.74.11-1-.18a2.35 2.35 0 0 1 1 .18Z" class="e"/>
  <path d="M120.41 118.66c0-.38-.13-.76.16-1.08a2 2 0 0 1-.16 1.08ZM88.47 119.63a1.3 1.3 0 0 1 .16 1.07 1.8 1.8 0 0 1-.16-1.07Z" class="f"/>
  <path d="M127.96 174.53c-.33.28-.74.15-1.11.17a3 3 0 0 1 1.11-.17ZM115.83 169.6c.31 0 .65-.09.86.26-.28-.11-.61-.05-.86-.26Z" class="e"/>
  <path d="M102.39 174.91c.24.29.28.56-.06.81a1.71 1.71 0 0 0 .06-.81ZM102.16 175.9a.51.51 0 0 1-.81.07 2.45 2.45 0 0 0 .81-.07Z" class="g"/>
  <path d="M140.12 165.88c-.31 0-.63.08-.89-.18a1.45 1.45 0 0 1 .89.18Z" class="e"/>
  <path d="M104.79 75.2h-.85c.29-.31.58-.38.85 0Z" class="h"/>
  <path d="M88.26 118.19a.93.93 0 0 1 .16.88 1.29 1.29 0 0 1-.16-.88ZM123.07 173.66a.63.63 0 0 1 .43-.38l-.09.39c-.12.13-.23.13-.34-.01Z" class="f"/>
  <path d="M87.42 180.83a.7.7 0 0 1-.2.63.82.82 0 0 1 .2-.63ZM87.22 181.47a.7.7 0 0 1-.18.6.66.66 0 0 1 .18-.6Z" class="g"/>
  <path d="M128.18 167.9a.84.84 0 0 1 .65-.15.85.85 0 0 1-.65.15Z" class="e"/>
  <path d="M106.43 175.31a.36.36 0 0 1 0-.6Z" class="g"/>
  <path d="M123.07 173.66h.34c-.19.34-.37.22-.56 0ZM139.11 165.67a.78.78 0 0 1-.69-.16 1 1 0 0 1 .69.16ZM138.26 165.47a.75.75 0 0 1-.66-.17.82.82 0 0 1 .66.17Z" class="e"/>
  <path d="M94.18 173.68a.69.69 0 0 1-.65.19.77.77 0 0 1 .65-.19Z" class="g"/>
  <path d="M114.06 112.71a.87.87 0 0 1 .22.26.26.26 0 0 0-.22-.26Z" class="h"/>
  <path d="M145.49 83.47a4.53 4.53 0 0 0-1.22-.08h-8.91a13.76 13.76 0 0 0-6 1.32c-3.22 1.46-6.48 2.83-9.71 4.26a2.13 2.13 0 0 1-1.86 0 21.49 21.49 0 0 1-5.7-3.55 7.1 7.1 0 0 0-5.63-2.07 31.26 31.26 0 0 1-5.12 0 5.7 5.7 0 0 0-4.31 1.7 23.81 23.81 0 0 1-6.08 3.9 2.34 2.34 0 0 1-2 0q-5.1-2.33-10.28-4.52a11.37 11.37 0 0 0-4.75-1.07c-3.1.07-6.21 0-9.31 0a6.07 6.07 0 0 0-1.13 0c-.78.17-1 .6-.71 1.35a5.8 5.8 0 0 0 .74 1.11c.3.44.78.77.83 1.36a1.1 1.1 0 0 0 .53.49c1.09.28 1.74 1.21 2.58 1.84.44.34 1.14.51 1.28 1.2a16.54 16.54 0 0 0 2.2 1.64 62.33 62.33 0 0 1 9.06 7.45 29 29 0 0 1 6.32 9.92c.56 1.54.87 3.15 1.34 4.71.27.25.21.57.16.89l.06.34a.65.65 0 0 1 .15.66v.36a.89.89 0 0 1 .17.86v.57c.17.27 0 .61.16.88v.56c.19.34 0 .73.16 1.07a2.27 2.27 0 0 0 0 1c.2.41 0 .87.16 1.28v.57a7.29 7.29 0 0 1 .1 1.81c0 .16 0 .37.15.44s.39-.08.52-.25a1 1 0 0 0 .25-.65c0-.93.4-1.8.4-2.71 0-.57.25-.7.74-.69h3.36a1.63 1.63 0 0 1 1.56.74 26.42 26.42 0 0 0 2.41 2.77c.37.4.8.94 1.42.29h-.07a22.49 22.49 0 0 1-3.23-4.94 20.18 20.18 0 0 1-1.69-4.94.66.66 0 0 1-.17-.68c.09-.68-.22-1.33-.17-2.2.5.75.88 1.38 1.31 2a41 41 0 0 0 6.69 7.23c1 .91 1 .91.2 2.07a7.85 7.85 0 0 0-1.12 1.78l-.12.14c.41.47.24.94.08 1.46s-.54 1.11.3 1.4c.51-.18.66-.66.88-1.07.56-1.07 1-2.19 1.71-3.24.34.76.68 1.46 1.06 2.14s.59 1.61 1.35 2.12c.69.19.76-.24.67-.73a3.5 3.5 0 0 0-.72-1.52c.53.12.6.11.85-.25l-.1-.11c-.44-.88-1.06-1.66-1.58-2.49-.63-1-.6-.74.18-1.44a44.94 44.94 0 0 0 6.89-7.37 6.93 6.93 0 0 0 1.09-1.83c0-.18.12-.35.31-.35s.22.21.17.37c-.18.51.11 1.1-.29 1.57a.11.11 0 0 0 0 .15.88.88 0 0 1-.17.88c-.06 0-.07.07 0 .13a.66.66 0 0 1-.16.69c-.51 1-.76 2.2-1.23 3.27a25 25 0 0 1-3.45 5.57l-.71.91a.77.77 0 0 0 .11.19c1 .26 1.52-.54 2-1.17.73-1 1.69-1.87 2.37-2.93a1 1 0 0 1 .93-.52h3.78c.22 0 .58 0 .53.31-.17 1.22.93 2.15.73 3.4-.07.44.23 1 .92.59a.12.12 0 0 0 0-.17c.25-.89-.08-1.81.19-2.7a.89.89 0 0 0 0-.56c.23-.55-.07-1.15.18-1.69a.35.35 0 0 0 0-.33c.19-.49-.08-1 .18-1.51a.11.11 0 0 0 0-.15c.19-.34 0-.74.16-1.08a12.28 12.28 0 0 0 .42-2.09 29.6 29.6 0 0 1 12.44-19.77c1.34-1 2.7-2 4.05-3.08 0-.33.23-.48.46-.63 1.43-.92 2.7-2.07 4.08-3.06 1.58-1.13 2.63-2.75 4-4.09.65-.58.37-1.23-.38-1.43Zm-41.42 28.11a8.62 8.62 0 0 1-2.47 5.79c-.32.3-.56.44-.92 0a29.22 29.22 0 0 1-5.73-8 2.83 2.83 0 0 1-.17-1.88 20.69 20.69 0 0 1 1.81-4.87.74.74 0 0 1 .39-.42 25.79 25.79 0 0 0 4 5.6 17.93 17.93 0 0 0 2.42 2.19 1.55 1.55 0 0 1 .67 1.59Zm-.26-4.08a20.42 20.42 0 0 1-4.81-4.83c-.15-.22-.27-.47-.41-.7a1.77 1.77 0 0 1 .15-2.37c1.87-2.26 3.59-4.63 5.38-7a2 2 0 0 1 .25-.23 34.69 34.69 0 0 1 2.29 2.87c1.22 1.55 2.39 3.15 3.63 4.69a1.2 1.2 0 0 1 .18 1.39 10.08 10.08 0 0 1-1.71 2.66 25.08 25.08 0 0 1-3.83 3.52c-.43.38-.69.33-1.12.03Zm9.37 3.35a33.47 33.47 0 0 1-4.9 6.39c-.56.58-.56.57-1.11 0a8.41 8.41 0 0 1-2.41-6.3.8.8 0 0 1 .31-.72 24 24 0 0 0 6.74-8s.06 0 .13-.09a19.92 19.92 0 0 1 1.76 4 5 5 0 0 1-.52 4.72Z" class="h"/>
  <path d="M128.65 160.96a17.24 17.24 0 0 1-5.13-6.38 36 36 0 0 1-2.51-8.49 76 76 0 0 1-1.15-10.56 68.67 68.67 0 0 1-.11-7 12 12 0 0 0 0-2.75c-.77 0-.62-.58-.61-1 0-.89.08-1.8-.89-2.25 0-.38.32-.51.47-.73s.1-.57-.29-.67a1.8 1.8 0 0 0-.4 0h-4.49a1 1 0 0 0-1 .6 5.77 5.77 0 0 1-1.11 1.45 9.16 9.16 0 0 0-1.07 1.33c-.48.68-.94 1.55-2 1.52-.3-.12-.58-.42-.94-.11-.1.27-.25.41-.52.19s-.25-.49-.59-.47c-.16.22 0 .39.07.57.25.59.52 1.17.77 1.76.14.35-.05.42-.35.34a1 1 0 0 1-.07.7c-.72 1.91-1.45 3.81-2.18 5.72 0 .12-.08.27-.35.3l-2.48-6.52a.6.6 0 0 1-.15-.73c.12-.34.25-.69.39-1 .35-.86.35-.86-.5-1.17a1.14 1.14 0 0 1-1.4-.27.26.26 0 0 0-.42 0c-.38.27-.67 0-.87-.23-.88-1.18-2-2.11-2.81-3.36a1.11 1.11 0 0 0-1.09-.57h-4.39a2.75 2.75 0 0 0-.41 0c-.34 0-.56.31-.39.55.41.6.12 1.1-.08 1.62a1.87 1.87 0 0 0-.11 1.1 1.68 1.68 0 0 1-.34 1.32 2.74 2.74 0 0 1-.14-1.08c0-.36.08-.76-.21-1.07-.07 1.33.13 2.65.15 4a90.44 90.44 0 0 1-1.3 19.1c-.83 4.31-2.1 8.46-5 11.93 0 .94.69.64 1.18.55a5.32 5.32 0 0 1 1.28-.3c2.69.1 5.38.06 8.08 0a58.85 58.85 0 0 0 7.15-.14.61.61 0 0 1 .64.21c.2.29 0 .52-.14.74a12.27 12.27 0 0 0-1.71 3.24 1.48 1.48 0 0 0 .14 1.73h.24v-.06a13 13 0 0 1 3.45-5.45c1.38-1.26 1.37-1.28 2.77-.08a12.19 12.19 0 0 1 3.37 4.91v.07h.2c.54-.79.12-1.5-.19-2.21s-.87-1.29-1.26-2-.21-.92.5-1h13.08a2.34 2.34 0 0 0 1.75-.4c.49-.47.8-.25 1.17.15a33.78 33.78 0 0 0 5.13 4c.46.34 1 .65 1.56.1-.77-.51-1.6-1.11-2.39-1.75Z" class="f"/>
  <path d="M131.45 44.71a31.06 31.06 0 0 0-1.72-7.56c-2.08-5.76-5.34-10.5-11.35-12.78a.72.72 0 0 1-.48-.7 27.3 27.3 0 0 0-1.89-7.1A45.84 45.84 0 0 0 104.87.34c-.49-.47-.52-.46-1.07.08a49.3 49.3 0 0 0-8.28 10.47 35.27 35.27 0 0 0-4.62 12.48 1.25 1.25 0 0 1-.91 1.16 16.56 16.56 0 0 0-7.69 6.19 29.74 29.74 0 0 0-5 14c-.08.78-.06.81.69.91a23.2 23.2 0 0 1 9.93 4.1 43.38 43.38 0 0 1 10.73 11.14 62.56 62.56 0 0 1 5.61 9.79 1 1 0 0 0 .47-.62c.68-1.49 1.47-2.93 2.29-4.34a51.25 51.25 0 0 1 11.69-14.37 24.71 24.71 0 0 1 12.05-5.7c.74-.1.76-.1.69-.92Zm-30-32.52c.72-.58 1.4-1.2 2.13-1.76a1.09 1.09 0 0 1 1.58 0c.73.56 1.42 1.17 2.13 1.76a.42.42 0 0 1 .08.68c-1 1.27-1.93 2.55-3 3.95-1-1.4-2-2.68-3-3.95-.19-.27-.19-.46.08-.68Zm-6 13c.71-2.42 1.37-4.85 2-7.28 0-.17.11-.32.14-.49.07-.41.28-.49.65-.35a7.57 7.57 0 0 1 3.44 2.65 2.06 2.06 0 0 1 .3 1.94 6.43 6.43 0 0 1-.68 1.7 2.48 2.48 0 0 0-.06 2.88c1 1.8 2 3.62 3.09 5.63.35-.63.62-1.1.87-1.57.66-1.24 1.3-2.48 2.06-3.65a5.25 5.25 0 0 0 .5-1.11 2.07 2.07 0 0 0-.16-1.86 7.9 7.9 0 0 1-.77-1.67 2.67 2.67 0 0 1 .66-2.91 8.12 8.12 0 0 1 2.74-1.93c.69-.3.72-.3.92.4.55 1.94 1.09 3.87 1.63 5.81.18.65.38 1.31.56 2a1 1 0 0 1-.17.95q-4.35 5-8.68 10.06a.38.38 0 0 1-.11 0c-.28 0-.37-.25-.51-.41q-4.08-4.72-8.22-9.45a1.19 1.19 0 0 1-.22-1.3Zm2.37 25.34a2.37 2.37 0 0 1-.26.39 32.67 32.67 0 0 0-2.43-2.78 23.7 23.7 0 0 0-8.9-5.64c-.92-.32-.94-.33-.87-1.27A15.69 15.69 0 0 1 88.65 32a11.64 11.64 0 0 1 2.26-2.06 1.1 1.1 0 0 1 1.38 0 32.82 32.82 0 0 1 5.75 4.4 43.43 43.43 0 0 1 4.34 4.75.93.93 0 0 1 .18 1.1Zm11.55 3c-1.46 2.74-2.82 5.53-4.23 8.29a4.55 4.55 0 0 1-.82 1.29c-1.85-3.42-3.49-6.79-5.19-10.13a1.46 1.46 0 0 1 0-1.26 56.89 56.89 0 0 1 3.31-6.91c.59-1.1 1.21-2.18 1.87-3.36a19 19 0 0 1 1.42 2.37c1.33 2.41 2.58 4.87 3.68 7.41a2.41 2.41 0 0 1-.04 2.3Zm13.5-11.19a23.61 23.61 0 0 0-11.1 7.89c-.12.16-.26.31-.39.46s-.06 0-.1 0c-.34-.18-.36-.56-.5-.85-1.47-3.22-2.92-6.46-4.39-9.69a.89.89 0 0 1 0-1.1 40 40 0 0 1 10.08-9.19 1.21 1.21 0 0 1 1.55 0 11.87 11.87 0 0 1 4 5 18.27 18.27 0 0 1 1.46 6.35c.07.63-.02.96-.61 1.17Z" class="b"/>
  <path d="M165.38 186.77c-.49-.22-1 0-1.54-.19a.15.15 0 0 0-.18 0c-.32-.22-.73 0-1-.18 0-.06-.09-.07-.14 0-.28-.17-.62 0-.89-.18a.08.08 0 0 0-.12 0c-.22-.12-.48 0-.69-.16a.12.12 0 0 0-.16 0c-.2-.14-.47 0-.66-.17a30.52 30.52 0 0 1-4.27-1.52 9.75 9.75 0 0 0-2.25-1 1.94 1.94 0 0 1-1.5-.5c-.55-.45-1.15-.84-1.72-1.27a17.14 17.14 0 0 1-3.8-3.36c-.29-.42-.57-.22-.68.08-.3.78-.91.78-1.58.78h-13.18a4.81 4.81 0 0 0-1 .08.53.53 0 0 0-.42.77 2.71 2.71 0 0 0 .59 1.17 5.42 5.42 0 0 1 1.12 1.69 2 2 0 0 1 .22 1.82c-.43.46-.17 1-.07 1.45a3.42 3.42 0 0 1-.77 3.14 14.56 14.56 0 0 1-3.45 2.7 1.07 1.07 0 0 1-1.15-.1 11.1 11.1 0 0 1-2.82-2.18 3.66 3.66 0 0 1-1.1-3.25c.06-.4.15-.82-.23-1.14a1.18 1.18 0 0 1-.08-1.34 11.27 11.27 0 0 1 1.87-3.48 2.55 2.55 0 0 0 .56-.91c-.65-.6-1.28-.93-2.11-.46-.21.12-.54 0-.81 0h-12.92a2.79 2.79 0 0 1-.82 0 1.16 1.16 0 0 0-1.3.26 1.3 1.3 0 0 1-1 .24c-.19 0-.27-.19-.35-.34a22.55 22.55 0 0 0-2 1.93.37.37 0 0 1-.46.36 2.29 2.29 0 0 0-.27.14A27.7 27.7 0 0 1 90 186.46a12.15 12.15 0 0 0-2.41.37 2.43 2.43 0 0 0 .68.84l12.49 12.22c.9.88 1.78 1.79 2.7 2.66.49.47.7.41.87-.26a18.32 18.32 0 0 1 1.76-4.67c.28-.5.62-1 .91-1.47s.13-.94-.47-1a4.45 4.45 0 0 0-.82 0 17 17 0 0 1-2.14-.09 3.62 3.62 0 0 1-2.95-2.23 15.67 15.67 0 0 1-1.07-3.72c-.14-.73 0-1 .78-.92a15.78 15.78 0 0 1 4 .6 3.3 3.3 0 0 1 2.15 1.89 14.89 14.89 0 0 1 .83 2.63c.08.32 0 .68.38.9s.57 0 .85.06a17.52 17.52 0 0 1 4.55-3.07 8.61 8.61 0 0 1 7-.18 8.23 8.23 0 0 1 4.66 4.42.71.71 0 0 1-.06.81c-.11 0-.17.06-.17.18-.25.23-.53.14-.81.07a8.72 8.72 0 0 1-.87-.42 15.25 15.25 0 0 0-3.82-1.88 6.35 6.35 0 0 0-2.34 0 .09.09 0 0 0-.14 0c-.19.18-.46 0-.65.19-3.33 1.19-5.13 3.72-6.11 7-.18.18 0 .46-.2.63-.19.16 0 .42-.18.6a.13.13 0 0 0 0 .17c-.1.33-.26.75.12.9s.61-.31.79-.62c.08-.15.13-.32.21-.47.47-.87 1.07-1.66 1.55-2.57.19.22.15.31.11.41a5.69 5.69 0 0 0 .36 4.55c.2.41.4 1 1.09.54a3 3 0 0 0-.22-1.53 2.44 2.44 0 0 1 0-1.86 5.31 5.31 0 0 1 3.64-3.71 1.74 1.74 0 0 1 .77-.21 1.09 1.09 0 0 0 .26 0 1.24 1.24 0 0 1 1 0h.26a1.67 1.67 0 0 1 .71.27 13.34 13.34 0 0 1 1.7 1c0 .23-.19.15-.3.21a5.34 5.34 0 0 0-3.76 5 15.41 15.41 0 0 1 0 2.45 1.07 1.07 0 0 0 .74 1.12c.71-.27.42-.83.35-1.3a5.53 5.53 0 0 1 1-4.25 2.22 2.22 0 0 1 2.2-1c2.64.41 5.3-.19 7.94.2a.83.83 0 0 0 .31 0 .7.7 0 0 0 .38-1.24 1.89 1.89 0 0 0-1.57-.59h-4.5c1.59-.06 3.18.07 4.76-.09a1.13 1.13 0 0 1 1 .38 4.34 4.34 0 0 0 1.5 1 5 5 0 0 1 2.74 2.87 4.87 4.87 0 0 0 .42.82c.15.22.3.53.6.48a.33.33 0 0 0 .26-.18v-.29a2 2 0 0 0-.14-.38 7.09 7.09 0 0 0-.7-2 5 5 0 0 0-3.06-2.64c-.21-.2-.81 0-.61-.61a6.13 6.13 0 0 1 2.31-1.26c.27-.16.6 0 .87-.16a.1.1 0 0 0 .15 0 1.08 1.08 0 0 1 1 0c.31.24.76-.12 1 .25a5.84 5.84 0 0 1 3.94 4.24 2.88 2.88 0 0 1 0 1.43l-.08.39a.27.27 0 0 0 .07.08.51.51 0 0 0 .63-.18 2.14 2.14 0 0 0 .41-1.62c0-.49 0-1 .58-1.15s.76.46.95.87.25 1.05.45 1.55c.14.35.34.77.77.66s.14-.53.19-.8a1 1 0 0 0-.07-.5l-.63-2.15a11 11 0 0 0-2.81-4.76 9.41 9.41 0 0 0-3.66-2.26c-.36-.17-.78.06-1.12-.18a1.28 1.28 0 0 0-.82 0c-.33.25-.75 0-1.08.19a7.06 7.06 0 0 0-2.21.88c-.71.44-1.46.82-2.19 1.23-.45.25-.83.24-1.11-.25a.59.59 0 0 1 0-.6 5.55 5.55 0 0 1 2.12-3 11.64 11.64 0 0 1 4.45-2.07 5.63 5.63 0 0 1 2.45 0 .38.38 0 0 0 .36 0c.25.21.65-.09.86.26a15.64 15.64 0 0 1 4.32 2.26 22.64 22.64 0 0 0 1.84 1.56.19.19 0 0 0 .22.06c.22-.08.25-.34.43-.46a5.89 5.89 0 0 0 .63-2c.52-1.53 1.25-2.86 3.08-3.11a8.16 8.16 0 0 0 1-.26c.21-.11.45 0 .65-.15a1.48 1.48 0 0 0 .78 0c.43-.17.91 0 1.34-.16.87.44.74.59.62 1.27a17.11 17.11 0 0 1-.58 2.32 4.59 4.59 0 0 1-3 3.38c-.35.18-.76 0-1.12.17a5.11 5.11 0 0 0-1.51-.06c-.42 0-1-.18-1.2.32s.31.68.52 1c1-.14 2-.41 3-.56a5.71 5.71 0 0 0 3.09-2.12 7.32 7.32 0 0 0 1.31-2.18c.16-.33.27-.74.73-.78a8.4 8.4 0 0 1 2.24-.14 4.07 4.07 0 0 0 2.76-.31A135.28 135.28 0 0 1 150 201.35c-.34.33-.79.59-.49 1.18a.48.48 0 0 0 .54-.17c1.12-1.13 2.33-2.17 3.48-3.27 2.41-2.3 4.7-4.74 7.08-7.08a35.71 35.71 0 0 1 3.85-3.63 7 7 0 0 0 1.16-1.15c.19-.23.27-.52-.24-.46Z" style="fill:#caad81" transform="translate(-22.35 -20.47)"/>
  <path d="M122.06 182.61c-.1.36.09.78-.19 1.14a1.53 1.53 0 0 1-.47-1.05 4 4 0 0 0-.68-1.88c-.24-.3-.41-.65-.87-.56a1.23 1.23 0 0 0-1 .79 2.22 2.22 0 0 0 0 1.2 1.25 1.25 0 0 1-.75 1.44.36.36 0 0 0-.36.15c-.63 1.05-1.17 2.15-1.87 3.16-.29.41 0 .77.36 1s.91.46 1.36.78c-3.71-.6-6 2-8.42 3.28.79-.77 1.92-1.86 3-3a5.28 5.28 0 0 0 1.64-4.05c0-.39 0-.86-.54-1 0 .2 0 .4-.08.74-.42-.84-.79-1.55-1.13-2.28a3.37 3.37 0 0 0-1.68-1.71 5.13 5.13 0 0 1-1.92-1.09 2 2 0 0 0-2.37-.75 2.81 2.81 0 0 1-.71 0h-3.48a1.8 1.8 0 0 0-.8.09.42.42 0 0 0-.2.22.29.29 0 0 0 .17.33 1.71 1.71 0 0 0 1 .18h4.81a1.34 1.34 0 0 1 1.19.44c.1.14.23.27.14.45a.4.4 0 0 1-.42.24c-.94-.22-1.91 0-2.84-.19a3.8 3.8 0 0 0-1.61 0 23.64 23.64 0 0 1-3.37.08c-.29 0-.32-.38-.69-.3a3.45 3.45 0 0 0-2.55 1.82 6.18 6.18 0 0 0-.74 2.28 4.54 4.54 0 0 0 .15 2.29.57.57 0 0 1 0 .67 7.21 7.21 0 0 0 2.1 2.58 16 16 0 0 1 2.67 2.93 1.2 1.2 0 0 1-.77-.33c-1.36-.91-2.76-1.76-4.14-2.63a6.32 6.32 0 0 0-4.68-1 1.54 1.54 0 0 1-1 0 5.51 5.51 0 0 1 2.63-1.72 18.45 18.45 0 0 1-1.76-2.65c-.3.28-.45 0-.53-.19a9.78 9.78 0 0 1-.42-1.14 4.37 4.37 0 0 1 .18-3.89c.1-.17.24-.35.08-.56-1.1-.12-1.1-.12-1.46.83a1.47 1.47 0 0 1-.23.45 8 8 0 0 0-1.44 2.54.68.68 0 0 1-.19 0c-.16-.21-.09-.46-.13-.69a5.49 5.49 0 0 0-.35 2.6 11.07 11.07 0 0 0 2.19 6.16c2 2.8 4.26 5.23 7.57 6.47.22.09.42.22.63.33a19.42 19.42 0 0 1 4.69 3.92 24.34 24.34 0 0 1 1.88 2.29c.47.65 1 .65 1.5.05a5.71 5.71 0 0 0 .39-.47 27.36 27.36 0 0 1 9-7.76 16.42 16.42 0 0 0 5-4.21 12.49 12.49 0 0 0 2.78-6.59 5.22 5.22 0 0 0-.27-2.23Z" class="g"/>
  <path d="M123.46 171.03c-.09.34-.19.8-.34 1.25s-.38.34-.64.1a7.2 7.2 0 0 0-1.72-1.43.48.48 0 0 1-.25-.52c.06-.26.31-.22.5-.24a2.07 2.07 0 0 0 .76-.29 1.17 1.17 0 0 1 1.69 1.13Z" class="e"/>
  <path d="M118.02 179.11c.47-.11.83-.21 1.19-.26a.52.52 0 0 1 .58.45c.09.37-.26.35-.45.42-.55.2-.97.04-1.32-.61ZM95.65 186.6a4.09 4.09 0 0 1 0-2.76c-.06.92 0 1.84 0 2.76ZM90.65 181.46v2a2.54 2.54 0 0 1 0-2Z" class="g"/>
  <path d="M119.72 169.69a.25.25 0 0 1-.28.23c-.17 0-.22-.13-.2-.28a.21.21 0 0 1 .21-.19.26.26 0 0 1 .27.24Z" class="e"/>
  <path d="M118.16 183.3v-1.43a1.34 1.34 0 0 1 0 1.43ZM99.23 179.39c.14-.27.74 0 .62-.57.3.21.29.42 0 .55a2.15 2.15 0 0 1-.62.02ZM108.87 178.8c-.11.53.5.32.61.61-.74-.05-.74-.05-.61-.61ZM96.83 177.39h-1.22a.9.9 0 0 1 1.22 0ZM114.23 177.63c-.33-.15-.71 0-1-.25.34 0 .73-.15 1 .25ZM113.22 177.38h-1a.71.71 0 0 1 1 0Z" class="g"/>
  <path d="M98.98 166.35a.4.4 0 0 1 0 .54.41.41 0 0 1 0-.54Z" class="f"/>
  <path d="M95.47 177.39a1.5 1.5 0 0 1-.88.16 1 1 0 0 1 .88-.16ZM97.65 177.53a1.44 1.44 0 0 1-.84-.18 1 1 0 0 1 .84.18ZM112.05 177.38a1.54 1.54 0 0 1-.87.16 1 1 0 0 1 .87-.16Z" class="g"/>
</svg>