<svg xmlns="http://www.w3.org/2000/svg" viewBox="0 0 256 256">
  <path d="M0 256V0h256v256ZM199.32 82.8v-2.25c0-10.89-1.23-21.6-4.89-31.92-.87-2.45-2.05-3.38-3.86-3-2.1.4-2.54 1.94-2.78 3.85-2.49 19.75-12.42 34-31.34 41.06-3.89 1.46-6.66 3.25-8.91 7-5.18 8.52-13.15 14.34-21.35 19.74A186.76 186.76 0 0 1 94 133.65a9 9 0 0 0-3 2.6c-.71.81-1 2-1.7 2.78a178.27 178.27 0 0 0-22.66 31.83A87.6 87.6 0 0 0 57 196.43c-1.27 6.73 2.4 12.41 8.75 13.77 7.5 1.61 14.08-2 15.55-8.68a6.76 6.76 0 0 0-.34-4c-1.81-3.9-1.53-7.48 1.15-10.77 1.13-1.4 2.7-2.43 3.86-3.8a5.9 5.9 0 0 0 1.58-3.17c.07-6.66 1.88-9.24 8.24-11a3.68 3.68 0 0 0 3.06-3.87 24.16 24.16 0 0 1 .94-5.73c.63-2.1 2.31-3 4.51-3.07s3.44.78 4 2.86a5.61 5.61 0 0 0 .53 1.14c1.12 2.26 2.25 2.67 4.74 2.08a46.42 46.42 0 0 1 7-1.28c8-.63 12.87 2.59 15.5 10.13.54 1.53 1.38 2.6 3.08 2.67s2.62-.95 3.3-2.41c1.18-2.53 2.34-5.07 3.74-7.48 10.47-18.08 24.89-31.57 45-38.39a4.47 4.47 0 0 0 3-3.66 178.51 178.51 0 0 0 5.13-38.97Z"/>
  <path fill="#fff" d="M199.32 82.8a178.51 178.51 0 0 1-5.17 39 4.47 4.47 0 0 1-3 3.66c-20.09 6.82-34.51 20.31-45 38.39-1.4 2.41-2.56 4.95-3.74 7.48-.68 1.46-1.6 2.49-3.3 2.41s-2.54-1.14-3.08-2.67c-2.63-7.54-7.49-10.76-15.5-10.13a46.42 46.42 0 0 0-7 1.28c-2.49.59-3.62.18-4.74-2.08a5.61 5.61 0 0 1-.53-1.14c-.52-2.08-1.84-2.93-4-2.86s-3.88 1-4.51 3.07a24.16 24.16 0 0 0-.94 5.73 3.68 3.68 0 0 1-3.06 3.87c-6.36 1.73-8.17 4.31-8.24 11a5.9 5.9 0 0 1-1.51 3.13c-1.16 1.37-2.73 2.4-3.86 3.8-2.68 3.29-3 6.87-1.15 10.77a6.76 6.76 0 0 1 .34 4c-1.47 6.69-8 10.29-15.55 8.68-6.35-1.36-10-7-8.75-13.77a87.6 87.6 0 0 1 9.61-25.57A178.27 178.27 0 0 1 89.3 139c.7-.81 1-2 1.7-2.78a9 9 0 0 1 3-2.6 186.76 186.76 0 0 0 32.2-16.45c8.2-5.4 16.17-11.22 21.35-19.74 2.25-3.71 5-5.5 8.91-7 18.92-7.11 28.85-21.31 31.34-41.06.24-1.91.68-3.45 2.78-3.85 1.81-.34 3 .59 3.86 3 3.66 10.32 4.86 21 4.89 31.92Zm-60.09 80c.37-.52.63-.83.83-1.17 10.88-19.16 25.95-33.57 46.8-41.48a2.86 2.86 0 0 0 1.49-1.74c4-17.4 5.87-35 3.57-52.79-.08-.63-.24-1.26-.43-2.21a6.79 6.79 0 0 0-.57.87c-6.16 16.52-17.75 27.38-34.33 33.11a4.28 4.28 0 0 0-2.05 2.08c-2.9 5.88-5.4 12-8.57 17.69-7.92 14.31-17.56 27.21-31.44 36.42-.44.29-.66.91-1 1.37a5.37 5.37 0 0 0 1.7.24 30 30 0 0 1 13.29.15 19.28 19.28 0 0 1 10.71 7.43Zm-44.35-20.2c-.51.49-.88.79-1.19 1.14a168.3 168.3 0 0 0-21.34 29.92 84.34 84.34 0 0 0-9 23.36c-.44 2.08-.4 4 1.19 5.66 2.23 2.26 7.58 2.1 9.47-.43a3.79 3.79 0 0 0 .69-3c-2.94-7.76-.58-14 5.12-19.48a4.93 4.93 0 0 0 1.4-2.77c.63-6.08 3.53-10.53 9.16-13a3.5 3.5 0 0 0 2.42-3.15c.55-4.2 2.34-7.72 6.24-9.85.76-.41 1.58-.72 2.6-1.19Zm4.72-4.32c2.79 3 5.35 5.74 7.91 8.47 2.28 2.42 2.3 2.43 5 .53 11.3-8 19.45-18.7 26.35-30.49.07-.12 0-.34-.09-.73-11.93 9.3-25.11 16.1-39.17 22.19Z"/>
  <path d="M139.23 162.77a19.28 19.28 0 0 0-10.7-7.46 30 30 0 0 0-13.29-.15 5.37 5.37 0 0 1-1.7-.24c.33-.46.55-1.08 1-1.37 13.88-9.21 23.52-22.11 31.44-36.42 3.17-5.72 5.67-11.81 8.57-17.69a4.28 4.28 0 0 1 2.05-2.08c16.58-5.73 28.17-16.59 34.33-33.11a6.79 6.79 0 0 1 .57-.87c.19.95.35 1.58.43 2.21 2.3 17.83.45 35.39-3.57 52.79a2.86 2.86 0 0 1-1.49 1.74C166 128 150.94 142.44 140.06 161.6c-.2.34-.46.65-.83 1.17ZM94.88 142.57l6.76 7.22c-1 .47-1.84.78-2.6 1.19-3.9 2.13-5.69 5.65-6.24 9.85a3.5 3.5 0 0 1-2.42 3.17c-5.63 2.44-8.53 6.89-9.16 13a4.93 4.93 0 0 1-1.37 2.79c-5.7 5.47-8.06 11.72-5.12 19.48a3.79 3.79 0 0 1-.69 3c-1.89 2.53-7.24 2.69-9.47.43-1.57-1.7-1.63-3.63-1.19-5.7a84.34 84.34 0 0 1 9-23.36 168.3 168.3 0 0 1 21.34-29.92c.28-.36.65-.66 1.16-1.15ZM99.6 138.25c14.06-6.09 27.24-12.89 39.16-22.22.05.39.16.61.09.73-6.9 11.79-15 22.51-26.35 30.49-2.69 1.9-2.71 1.89-5-.53-2.5-2.72-5.11-5.48-7.9-8.47Z"/>
</svg>