<svg xmlns="http://www.w3.org/2000/svg" viewBox="0 0 256 256">
  <defs>
    <style>
      .a{fill:#faebe3}.c{fill:#ac4abd}.d{fill:#f9d0f2}.e{fill:#d88ffb}.g{fill:#b9fdfc}.i{fill:#b1fdfa}.m{fill:#652e52}.t{fill:#404e4f}.z{fill:#662a73}.aj{fill:#643b5b}.an{fill:#383152}.as{fill:#53666b}.bb{fill:#e1ac9a}.bj{fill:#5e4d48}.bk{fill:#4d2a51}.bl{fill:#402a39}.bp{fill:#897f7d}.bt{fill:#652f27}.bw{fill:#796b5d}.by{fill:#5e415c}.ci{fill:#805242}.cn{fill:#6b4032}.co{fill:#a9796c}.cr{fill:#774089}.ct{fill:#602a6e}.cu{fill:#ad81c0}.cw{fill:#78468b}.cy{fill:#aafdf7}.cz{fill:#577178}.db{fill:#9dfcf2}.dd{fill:#a26fb4}.de{fill:#8dfbee}.df{fill:#f9ebe2}.dl{fill:#e3b3a6}.ds{fill:#a772b6}.dx{fill:#e5eff7}.dy{fill:#aeb1b8}.eb{fill:#344147}.ed{fill:#323a3d}.ev{fill:#839096}.ex{fill:#aab9c4}.ey{fill:#224448}.fj{fill:#67baa5}
    </style>
  </defs>
  <path d="M215 0h4c.92 1.55.41 3.25.37 4.85-.09 3.27.09 6.52.21 9.77.08 2.32.08 4.63.17 6.94.14 2.9-.79 5.72-.56 8.62.43 5.33.31 10.69.8 16 .16 1.79 0 3.6.17 5.4a1.2 1.2 0 0 1-.88 1.43 1.16 1.16 0 0 1-1-.08 29.77 29.77 0 0 0-10.2-2.9A36.26 36.26 0 0 0 197 50a56.42 56.42 0 0 0-12.3 2.75 5.61 5.61 0 0 0-1.29.6c1.87-.54 3.73-1.11 5.61-1.6a30 30 0 0 1 9.55-.7c3.58.23 7.15.56 10.7 1 1.74.32 3.41.89 5.16 1.16a24.08 24.08 0 0 1 3.67 1.17c2.42.7 2.89 2.55 3.17 4.79a69.47 69.47 0 0 0 3.93 14.93 117 117 0 0 0 9.4 19.7 72.27 72.27 0 0 0 5.79 8.91 23.77 23.77 0 0 0 2.42 2.59 5.23 5.23 0 0 1 1.59 5c-.37 2.1-.29 4.23-.45 6.35-.34 4.42-.61 8.85-1.37 13.22a13.81 13.81 0 0 0-.09 2.13 131.59 131.59 0 0 1-2.9 13.17c-.16.41-.25.85-.38 1.27-.62 1.57-1.2 3.15-2 4.66-1.31 3.28-3 6.39-4.3 9.68-.54 1.05-1 2.14-1.52 3.2-2.69 5.61-7.35 8.49-13.33 9.61-4.92.92-8.77-.93-12.14-4.28a13.6 13.6 0 0 1-2.11-3.5 2 2 0 0 1-.14-.39 19.41 19.41 0 0 1-.43-4.6c-.79.2-.8.76-1.06 1.12a17.73 17.73 0 0 0-1.63 13.23c1.31 5.14 4.1 9.45 9.16 11.86a32.25 32.25 0 0 0 5.27 2.08 7.16 7.16 0 0 1 1.6.59c2 1.14 2.28 2.13 1 4-3.18 4.82-5.69 10.06-9.23 14.64-1.71 2.2-3 4.69-5.18 6.55-8.33 6.05-17.8 10-27 14.49-7.53 3.72-15.43 6.48-23.28 9.4-3 1.12-6 2.39-9 3.48-5.76 1.72-11.36 3.92-17.1 5.7-2.35.74-4.76 1.23-7.16 1.76a10.68 10.68 0 0 1-6.1-.82 66.92 66.92 0 0 1-8.6-4.08c-5.79-3.1-11.58-6.24-17.19-9.67a180.37 180.37 0 0 1-18.5-12.41c-1-.77-2-1.42-3-2.1-3.39-3-7.08-5.52-10.6-8.3A82.32 82.32 0 0 1 43 200.26a84.27 84.27 0 0 1-5.8-7.83c-.33-1 .21-1.51 1.08-1.8 4.13-1.39 8.12-3.19 12.27-4.5 5.2-1.66 10.19-3.84 15.28-5.77 2.62-1 5.35-1.61 8-2.38 7.33-2.09 14.73-3.93 22.09-5.92a27.37 27.37 0 0 0 7.63-3c1.46-.91 1.7-1.54 1.25-3.21a10.77 10.77 0 0 0-6.93-7.85 60.3 60.3 0 0 0-16.53-3.88 54.42 54.42 0 0 0-10.91-.22c-2.47.28-5 .27-7.5.43-1.21.08-1.56-.32-1.29-1.55a24.3 24.3 0 0 0 .25-5.3A3.93 3.93 0 0 0 61 149a11.8 11.8 0 0 1-1 1.89c-1.18 1.21-2.2 2.6-3.78 3.36a30.29 30.29 0 0 1-4.22 1.43 8.81 8.81 0 0 1-4.56 0c-6.63-1.34-11.64-5.2-15.89-10.23-.49-.58-1.06-1.08-1.56-1.65a46.57 46.57 0 0 1-8.07-16.55 82.92 82.92 0 0 1-2.05-22.81c.05-1.55.39-1.9 1.88-1.72a14.57 14.57 0 0 0 6.87-.48c1.63-.57 2.2 0 2 1.66a33.44 33.44 0 0 0 6.81 24.92c.27.36.48 1 1.17.83 1.54.5 2.72 1.61 4.12 2.38a47.4 47.4 0 0 0 10 4.62 1.23 1.23 0 0 1 .38.19c.79 1.27 2.11 1.69 3.42 2.13.45.15.92.24 1.35.42 1.06.44 1.18.91.48 1.84-.27.36-.7.6-.82 1.17 1.56-2.48 3.81-2.13 6.1-1.59 1 .23 2 .42 3 .68 1.77.44 1.77.41 1.1 2.18.38-.4.69-.86 1-1.29a1.53 1.53 0 0 1 1.45-.74 17.88 17.88 0 0 0 3.94-.07c1.2 0 1.9.47 1.94 1.78 0-1.22.71-1.63 1.78-1.86 3.42-.73 6.94-.94 10.3-2 .86-.28 1.74-.49 2.2-1.39a2.86 2.86 0 0 1 .8-.59c2.57-1.21 4.1-3.51 5.86-5.51 1.16-1.27 1.39-3.08 2.09-4.62a9.52 9.52 0 0 1 .81-1.81c.81-1.08.79-2.38 1.07-3.62a57.14 57.14 0 0 1 1.21-6c1.42-4.11.52-8.36 1.18-12.5a10.22 10.22 0 0 0-.27-3.52c0-.37.24-.68.31-1.06.27-1.4.38-1.43 1.93-.61a14.3 14.3 0 0 0-1-4.9 36.84 36.84 0 0 1-1.41-4 7.75 7.75 0 0 0-1.67-3.67 91.73 91.73 0 0 0-6.84-9.67c-.35-.44-.76-1-.34-1.53s1-.38 1.56-.24a5.09 5.09 0 0 1 1.67.73c3.14 1.79 5.17 4.71 7.43 7.39a32.8 32.8 0 0 0-8.91-9.64l-.33-.23a15.65 15.65 0 0 0-4.32-2.4c-1.79-.83-1.89-1.27-.86-2.9.43-.68.87-1.35 1.34-2 .78-1.12 1.31-1.28 2.5-.54a21.86 21.86 0 0 1 7.55 7.35c1 1.67 2.05 3.3 2.93 5a11.87 11.87 0 0 0-1.21-2.81 27.52 27.52 0 0 0-9.23-10 2.07 2.07 0 0 1-1.18-2.39A4.37 4.37 0 0 0 92 63.7a12.52 12.52 0 0 1-2.54 4.4 1.53 1.53 0 0 1-1.88.58c-4-1.6-8.25-2-12.46-2.58a1.74 1.74 0 0 1-1-.39c-1.28-2.38-1.58-5-1.92-7.61v-.85c.1-1.55.57-2 2.08-1.62 3.53.92 7.07 1.75 10.66 2.41a79.37 79.37 0 0 0 17.41 1 79.91 79.91 0 0 0 11.44-1.16c1.44-.26 2.82-.78 4.26-1.07a4 4 0 0 1 2.49.2 49.07 49.07 0 0 0 10.18 3.52c5.34 1.09 10.69 1.9 16.18.91a114.41 114.41 0 0 0 17.8-5.27 59.77 59.77 0 0 0 25.21-17.35A118.84 118.84 0 0 0 203 21c1.05-1.77 1.78-3.74 2.81-5.55a22.77 22.77 0 0 1 2.19-3.66c2-3.46 4.16-6.88 6-10.47A2.59 2.59 0 0 1 215 0Z" class="a"/>
  <path fill="#d990fb" d="M256 39.56v127.12a35.76 35.76 0 0 1-8.31 8.07 90.7 90.7 0 0 1-12.41 7.25 48.55 48.55 0 0 1-13.69 4.1 30.85 30.85 0 0 1-14.19-.89c-2.58-1.48-4-3.95-5.26-6.48a9.06 9.06 0 0 1-1.15-3.18 40.63 40.63 0 0 1-.31-5.94 14.8 14.8 0 0 1 .74-4.17c.15-.45.16-1.17.87-1.1s.76.65.89 1.16a5.44 5.44 0 0 0 .32.79 8.69 8.69 0 0 1 .65 1.38 10.07 10.07 0 0 0 4 4.18 1.63 1.63 0 0 1 .35.23c2.87 2.2 6.11 2.57 9.56 2a19.1 19.1 0 0 0 13.62-9.53 2.16 2.16 0 0 1 .24-.35 43 43 0 0 0 4.44-9c.8-1.43.9-3.1 1.58-4.57a8.16 8.16 0 0 0 1.21-3.26 2.16 2.16 0 0 1 .14-.43 170.52 170.52 0 0 0 4.37-21.26 157.64 157.64 0 0 0 1.34-20.81A94.76 94.76 0 0 0 243.76 91c-1.12-6.82-2.3-13.62-3.16-20.48a2.87 2.87 0 0 1 0-1.13c.21-.74.7-1 1.24-.4 1.87 2 4 3.8 5.64 6 .61.79 1.39 1.43 1.79 2.11a76.31 76.31 0 0 0-8.16-8.7 5.27 5.27 0 0 1-1.4-3.34c-.25-1.73-.48-3.47-.6-5.2-.41-6.52-1.09-13-.93-19.56.06-2.42.49-4.81.34-6.72 0 .9-.26 2.28-.44 3.67a9.5 9.5 0 0 0-.19 3v6.38A124 124 0 0 0 239 61.51c.1.85.08 1.7.12 2.55s-.55 1.15-1.34.81a3.69 3.69 0 0 1-.83-.54 86.84 86.84 0 0 0-11.16-8 6.65 6.65 0 0 1-.65-.54c-.61-.59-.55-1.42-.77-2.15a4.84 4.84 0 0 0-.41-2.28 2.91 2.91 0 0 1-.12-.39c-.09-.8-.29-1.58-.45-2.37 0-.13-.08-.26-.11-.39-.2-.84-.31-1.69-.48-2.54a2 2 0 0 1-.1-.4 24.44 24.44 0 0 0-.55-3.19 2.7 2.7 0 0 1-.09-.48c-.63-4.74-1.45-9.45-1.77-14.22-.45-6.56-.56-13.13-.83-19.69a33.49 33.49 0 0 1 .16-6.09 2.66 2.66 0 0 1 .52-1.6h26.16c.57.63.37 1.44.48 2.17A229.55 229.55 0 0 0 252 28.93c1 3.67 2.75 7.07 4 10.63Z"/>
  <path d="M256 199.1v55.73c0 1-.19 1.17-1.17 1.17q-19.62-.06-39.24 0a10.66 10.66 0 0 1-2-3.74 161.31 161.31 0 0 1-6.08-15.74c-1.68-5.71-3.5-11.39-4.29-17.33-.86-2.66.65-4.38 2.27-6.21a76.15 76.15 0 0 0 6.41-9c2.24-3.46 4.09-7.15 6.43-10.54a2 2 0 0 1 2.77-.48 60.6 60.6 0 0 0 8.53 3.87 46.59 46.59 0 0 0 14.54 2.94 51.71 51.71 0 0 0 9.59-.89c.79-.16 1.55-.36 2.24.22Z" class="c"/>
  <path d="M0 206.77v-31.56a2.27 2.27 0 0 1 1.24-.63 104.11 104.11 0 0 0 17.5-5.73c4.32-1.76 8.59-3.65 12.87-5.51A134.68 134.68 0 0 1 50.27 157a36.6 36.6 0 0 1 5-1.1c1.13-.19 2.23-.56 3.38-.67 2.59-.17 5.17-.5 7.75-.72a74.93 74.93 0 0 1 25.6 1.86c2.53.67 4.91 1.7 7.37 2.54 2.78 1 4.9 4.67 5.14 7.32a2.77 2.77 0 0 1-1.77 2.83 32.85 32.85 0 0 1-6.46 2.54c-8.49 2.13-17 4.27-25.33 6.91-10.65 3.38-21 7.66-31.53 11.32a64.51 64.51 0 0 0-9.59 3.82c-5.35 2.3-10.65 4.69-15.8 7.43a80.91 80.91 0 0 1-9.1 4c-1.06.41-2.09.88-3.14 1.33-.57.23-1.1.59-1.79.36ZM0 122.31V71.69A56.09 56.09 0 0 1 6.4 61a103.23 103.23 0 0 1 12.34-14.63C24.2 41.2 30.35 37.27 38 36.3a19.24 19.24 0 0 1 4.78-.51c2.3.27 4.37 1 5.22 3.46.25 2-.92 3.5-1.63 5.16a27.76 27.76 0 0 1-3.38 6 3.13 3.13 0 0 1-.19.36 20.63 20.63 0 0 0-1.72 2.61c-2.74 3.74-5.22 7.66-8 11.34-2.66 3.5-5 7.23-7.41 10.89-1.62 2.44-3.26 4.88-4.79 7.38a11.21 11.21 0 0 0-1 1.86c-4.2 6.89-8.15 13.91-11.75 21.15-2.49 5-4.75 10.11-7.1 15.17-.22.41-.24 1.11-1.03 1.14Z" class="d"/>
  <path d="M0 69.13v-68C0 .19.19 0 1.17 0c7 .05 14 0 21 0a11.64 11.64 0 0 1 1.1 3.49 61.94 61.94 0 0 0 10 19.94c.76 1 1.5 2.06 2.35 3s.66 2.41.88 3.64a10.63 10.63 0 0 0 .16 1.69c.21.83.11 1.69.3 2.53s-.44 1.47-1.22 1.83a27.76 27.76 0 0 1-3 .92c-5.58 1.9-10.2 5.27-14.43 9.27a120.08 120.08 0 0 0-9.06 10.36A83.77 83.77 0 0 0 1.18 68.3c-.24.42-.47.98-1.18.83Z" class="e"/>
  <path fill="#da8ffc" d="M200.8 0h1.42c.44.6.1 1.19 0 1.76-1 4.08-2.07 8.14-3.41 12.12a3.73 3.73 0 0 0-.24 1.37c1.61-3.75 3.29-7.46 4.75-11.27a17.58 17.58 0 0 1 1.79-4h8.53a4.32 4.32 0 0 1-.88 2.76 90.51 90.51 0 0 1-7.3 12.09c-1.82 2.47-3.2 5.25-5.42 7.42a4 4 0 0 1-.94.85 55.64 55.64 0 0 1-11.17 7.24 84.35 84.35 0 0 1-19.17 6.88 105.48 105.48 0 0 1-14 2.48 69.31 69.31 0 0 1-18.35-.68c-4.92-.84-9.44-2.68-14-4.52a6 6 0 0 1-.77-.37c-.55-.32-1.09-.7-.93-1.43s.83-.69 1.39-.68a11.57 11.57 0 0 0 2.9-.42c4.51-1.08 9-2.2 13.4-3.72a92.15 92.15 0 0 0 11.3-4.68c1.6-.8 3.24-1.52 4.81-2.39a25.63 25.63 0 0 0 6-3.42c2.93-2 5.93-3.87 8.83-5.92A78.71 78.71 0 0 0 180 2.29 27.87 27.87 0 0 1 182.32 0h8c.42 1.29-.44 2.26-.94 3.27C187.58 6.86 186 10.51 184 14a56.35 56.35 0 0 1-3.68 5.73c-.53.73-1.08 1.44-1.63 2.36a26.72 26.72 0 0 0 5.36-4.31A119.43 119.43 0 0 0 195.39 5.8c1.45-1.75 3.11-3.31 4.49-5.13.24-.32.63-.4.92-.67Z"/>
  <path d="M0 127.43v-2.56c1.72-4.56 4-8.87 6-13.34 2.15-5 4.73-9.68 7.3-14.42 1.49-2.74 3.18-5.37 4.61-8.14a3 3 0 0 1 .18-.36 31.33 31.33 0 0 0 2.41-4.11 1.41 1.41 0 0 1 .6-.63c.81-.29 1.15.09 1.07.86a14.91 14.91 0 0 0-.11 1.5c-.87 3.83-1.54 7.7-2.11 11.59a72 72 0 0 0-.5 16.4A82.24 82.24 0 0 0 21.11 126a48.26 48.26 0 0 0 8 17.17 42.13 42.13 0 0 0 3.64 4.35 38.26 38.26 0 0 0 9.35 7 7.28 7.28 0 0 0 2.64 1.2c1.18.43 1.28.89.54 1.92a1.76 1.76 0 0 1-.39.19c-1.66.52-3.42.73-4.94 1.67-3.75 1.64-7.62 3-11.38 4.59-2.38 1.09-4.47.22-6.53-1a43.69 43.69 0 0 1-14.73-13.64 46.08 46.08 0 0 1-6.69-16c-.44-1.99-.26-4.02-.62-6.02ZM120.32 0h24.46c.16.66-.35.92-.77 1.21-3.85 2.67-7.88 5.07-11.9 7.47a106.47 106.47 0 0 1-14.35 7.13A123.08 123.08 0 0 1 103 20.46a7.51 7.51 0 0 1-4.06-.28 49.13 49.13 0 0 0-5.83-1.68c-3-.93-6-.88-9.1-1a60 60 0 0 0-17.89 2.28 4.46 4.46 0 0 0-.8.28 2.35 2.35 0 0 1-.44.17c-1 .18-1.89.48-2.85.66h-.42c-2 .2-2.26-.13-1.61-2a46.44 46.44 0 0 0 1.65-4.59A73.32 73.32 0 0 1 68.56 0h12.52C81 1.8 79.68 3 79 4.56c-.18.42-.63.7-.72 1.2 2.45-2 4.75-4.24 7.59-5.73h29.58c.35 1.06-.94 1.45-1 2.54 2.2-.51 3.92-1.8 5.87-2.57Z" class="e"/>
  <path d="M42.4 256H0v-6.54a5.79 5.79 0 0 1 1.29-2.14c2.5-3 4.89-6.06 7.13-9.25a3 3 0 0 1 .48-.52c.46-.27.77-.9 1.46-.57A3.87 3.87 0 0 0 15 238c.6-.35 1.18-.68 1.83-.18a1.67 1.67 0 0 1 .59 1.79 1.63 1.63 0 0 1-1.51 1.28c-.4.07-.88-.11-1.37.7a3.31 3.31 0 0 1 3.35 0c.38.24.71-.19.87-.54a2.27 2.27 0 0 1 3.1-1.18c1.12.35 2 .36 2.76-.66a.81.81 0 0 1 1-.34 1 1 0 0 1 .59 1.18 6.06 6.06 0 0 0 .34 3.21c.24.61.59 1.1 1.36 1s.77-.75.7-1.41a2.77 2.77 0 0 1 1.2-2.57c1.64-1.33 3.33-2.32 5.57-1.68a2.38 2.38 0 0 1 1.56.87 6 6 0 0 0 2.53 2c1.14.61 2 .29 2.23-.95a3.08 3.08 0 0 1 1.3-2.16 2.83 2.83 0 0 0 1.17-1.89 1.06 1.06 0 0 0-.46-1.12c-.41-.25-.73.06-1 .31-.64.61-1.28 1.14-2.26.83-.41-.13-.57.19-.74.49-.39.68-1 .62-1.62.44a1.32 1.32 0 0 1-1-1.22 10.73 10.73 0 0 1 .28-2.53.75.75 0 0 1 .69-.61c2.24-.44 4.31-1.47 6.59-1.79a2.57 2.57 0 0 0 1.78-1.9c.34-1 .86-2 1.17-3a3.42 3.42 0 0 1 2.15-2.63.86.86 0 0 0 .67-1.09c-.23-.79-.28-1.78-1.32-2-.78-.17-1.44-.37-1.68-1.26-.14-.5-.63-.51-1.07-.52h-2.27c-1.6-.07-2.14-1.09-1.33-2.49 1.71-3 4.32-3.08 6.22-.24.23.35.46.85 1 .55s.21-.75 0-1.13a4.24 4.24 0 0 0-1.13-1.26c-.92-.79-.86-.9.15-1.63a11.81 11.81 0 0 1 3.62-1.54 1.72 1.72 0 0 1 .64 0 3.85 3.85 0 0 1 1.63 1.09c1.79 1.6 3.84 2.87 5.6 4.52 1.29 1.19 2.85 2 4.17 3.17a2.36 2.36 0 0 1 1 1.8c0 1.9.06 3.79 0 5.69 0 1.39-.57 1.69-1.83 1.15s-2.26-1.19-3.42-1.73c-.25-.12-.5-.27-.76-.38-2.42-1-3.39-.5-3.84 2a9 9 0 0 0-.08 1.27c.47 1.81-.82 2.86-1.82 4-.59.66-1 .2-1.17-.47a3.42 3.42 0 0 0-2.19-2.42.91.91 0 0 0-1.16.22c-.35.42-.12.78.18 1.13 1.62 1.91 1.62 1.91.18 4a.5.5 0 0 0 0 .55c.39.2.59-.16.82-.34a1.44 1.44 0 0 1 1.94-.08c.86.62 1.35.38 1.67-.57.2-.59.55-1.25 1.22-1.24.84 0 .48 1 .87 1.42l.11.17a2 2 0 0 1 .16.4 32.5 32.5 0 0 0 .8 4.7 3.15 3.15 0 0 1 .09.42 18.75 18.75 0 0 0 .71 4 2.75 2.75 0 0 1 .11.41c.19 1.55-.69 2.42-1.88 3.2a50.45 50.45 0 0 1-10.65 5.25A13.32 13.32 0 0 0 42.4 256Z" class="g"/>
  <path fill="#d98ffb" d="M146.77 0h7.11c.11.79-.62 1-1 1.35s-1 .48-1.37 1.25c2-.81 3.7-1.83 5.52-2.6h9.1c.42.69-.16 1.06-.52 1.44-2.76 2.8-5.42 5.7-8 8.63-2.1 2.36-4.79 4-7.14 6.06a6.09 6.09 0 0 0-1.25 1.14c2.51-1.22 4.72-2.43 6.92-3.67 4.54-2.55 8.87-5.47 13.32-8.17 2.69-1.62 5.25-3.54 7.79-5.43h3.7c.18.7-.37 1-.76 1.4-4.08 3.8-8 7.78-12.53 11.06-1.27.92-2.71 1.55-4 2.37-2.45 1.5-4.73 3.27-7.26 4.67a46.85 46.85 0 0 0-4.75 2.52 142.36 142.36 0 0 1-21.79 8.07 61.19 61.19 0 0 1-18.17 1.56 31 31 0 0 1-11.36-2.87 19.2 19.2 0 0 1-4.65-2.41c-.7-.67-1.63-1.06-2.31-1.78a.64.64 0 0 1-.13-.4c.27-1 1.3-.83 1.95-1.24 2.15-.57 4.27-1.31 6.53-.54 2.89 1.11 5.87 2.06 8.46 3.86-1.7-1.87-4.06-2.71-6.14-4-.79-1.09-.73-1.43.44-1.83a23.15 23.15 0 0 1 2.57-.8 82.37 82.37 0 0 0 16.1-5.82A141.71 141.71 0 0 0 143 2.27 19.06 19.06 0 0 1 146.77 0Z"/>
  <path d="M0 247.44v-39.53a2.86 2.86 0 0 1 1.2-.71c2.92-1.32 5.87-2.59 8.77-3.95 2.27-1.07 4.61-2 6.85-3.13 2.81-1.45 5.7-2.75 8.6-4 1.47-.66 3-1.26 4.45-1.86.5-.2 1.08-.59 1.61-.14s.19 1 .09 1.59c-.37 1.61-1.35 3-1.81 4.54a159.37 159.37 0 0 1-7.77 15c-4.57 7.94-9 16-14.47 23.37-1.92 2.58-3.81 5.18-5.75 7.74-.41.51-.77 1.24-1.77 1.08Z" class="c"/>
  <path d="M182.89 256H149c.08-1.31 1-2.17 1.69-3.17a28.7 28.7 0 0 0 2.58-4.06c.78-1.77.45-2.46-1.36-3.08a29.28 29.28 0 0 0-5.25-1.07c-.68-.11-1.69 0-1.8-1-.09-.87.64-1.38 1.33-1.67a57.3 57.3 0 0 1 7.85-2.81 2.87 2.87 0 0 1 2.49.68 6.89 6.89 0 0 0 1.89 1 2.36 2.36 0 0 0 2.64-.41 7.22 7.22 0 0 1 1.11-.89 1 1 0 0 1 1.2.13.86.86 0 0 1 .14 1.16c-.35.69-.83 1.49.08 2a2.52 2.52 0 0 0 2.81-.22 9.12 9.12 0 0 0 2.37-2.61c.15-.31.23-.81.75-.65a.84.84 0 0 1 .55.91 14.73 14.73 0 0 1-.13 3.25c-.17.65-.24 1.28.54 1.53a1.41 1.41 0 0 0 1.74-.86 2.46 2.46 0 0 0 .27-.95c.07-1 .38-1.84 1.54-2.08.69-.14.73-.66.54-1.22a2.63 2.63 0 0 0-1.28-1.64 4.06 4.06 0 0 1-1.06-.7 2 2 0 0 1-.55-2.55 3.16 3.16 0 0 1 2.75-.77c.79.34.82 1 .58 1.67-.33 1-.15 1.43 1 1.41a1.46 1.46 0 0 1 1.31.75c.53.95 1.47 1.43 2.35 2.24a3.08 3.08 0 0 1 2-3.38c.65-.28.46-.93.52-1.49.19-2 .68-3.8 2.7-4.71.39-.17.5-.37.41-.75-.13-.57 0-1.06.58-1.27a1.11 1.11 0 0 1 1.28.4 7.69 7.69 0 0 0 2.3 2.06c.76.49.43 1.26.21 1.94s-.66 1.44-1.59 1.3-1.07.16-.91 1c.21 1-.49 1.7-1.09 2.36a3 3 0 0 0-.71 3c.4 2.09.68 4.28-1.48 5.8-.36.26-.72.79-.2 1.2s.8 0 1.12-.31a3.82 3.82 0 0 0 .79-1.33 2.38 2.38 0 0 1 2.55-1.36c1.09.28 1 1.21 1.13 2.05a4 4 0 0 1-.66 2.84 29.55 29.55 0 0 1-3 4.14c-.56.6-1.07 1.18-2 1.08s-.17.86-.73 1.11Z" class="i"/>
  <path fill="#a1fcf4" d="M182.89 256v-.56c-.08-.41-.71-.72-.42-1.13s.86 0 1.28.12a1.17 1.17 0 0 0 1.21-.49 29.06 29.06 0 0 0 3.7-5.13c.64-1.07.24-2.2.09-3.3a.64.64 0 0 0-.85-.55c-.64.27-1.6 0-1.85 1a3.46 3.46 0 0 1-1.21 2 1.23 1.23 0 0 1-1.57.15c-.59-.44-.3-1 0-1.54.09-.16.19-.37.34-.44 2.29-1.19 2-3.44 1.47-5.13a3.66 3.66 0 0 1 1.2-4.08 1.79 1.79 0 0 0 .46-2.17c-.4-.93.12-1.17.84-.86 1.4.58 1.56-.38 1.93-1.3s-.09-1.4-.93-1.61-1-.79-1.32-1.37-.7-1-1.36-.65-.17.75 0 1.17c.31.7.12 1.15-.75.92-.43-.11-.86 0-1 .31-.49 1.37-1.85 2.39-1.52 4.09.17.87.2 1.74-1.13 2a1.86 1.86 0 0 0-1.39 1.93 7.53 7.53 0 0 1-.17 1.72c-.62-1.34-2.39-1.41-2.85-2.9a1.25 1.25 0 0 0-1.6-.6c-1.27.44-1.14-.31-1-1.08a8.55 8.55 0 0 1 .36-1.08c.12-.35.09-.74-.25-.86a2.54 2.54 0 0 0-2.51.51c-.57.5-.38 1.31.19 1.89a3.14 3.14 0 0 0 1.25.89c1.2.41 1.45 1.53 1.68 2.59a.79.79 0 0 1-.86 1c-1.22-.06-1.41.69-1.39 1.64a2.42 2.42 0 0 1-1.3 2.2c-.72.46-1.21.12-1.8-.2s-.52-.86-.33-1.44a9.93 9.93 0 0 0 .05-4.24c-.37 1.69-1.93 2.35-2.88 3.49-.72.86-2.13.57-3.16.39-.88-.15-1-1.46-.43-2.39.19-.32.66-.68.17-1.11s-.82-.15-1.22.2c-2.13 1.87-4.11 1.85-6.12-.23-.64-.67-1.25 0-1.82-.32 0-.52.46-.68.85-.85 3.16-1.38 6.42-2.53 9.61-3.82a1.11 1.11 0 0 1 .84 0c.09.36.12.66.7.44.74-.29 1.7-.19 1.86-1.3a.86.86 0 0 1 .7-.38 1.4 1.4 0 0 1 1.2 1.78c-.3 2 1.24 3.55 1.3 5.46 0 .42.35.48.69.12a1.81 1.81 0 0 0 0-2.83 6.44 6.44 0 0 1-1-1.55 2.23 2.23 0 0 1 .52-2.73 3.1 3.1 0 0 1 3.29-.71 2 2 0 0 1 1.36 2.24c0 .44-.07.93.46 1s.54-.5.69-.85a2.3 2.3 0 0 1 .46-.7c1.12-1.11 1.12-1.11-.12-1.93-1.43-.94-1.44-2.24 0-3.19.2-.13.39-.26.58-.41 1.48-.89 2.86-2 4.7-2.11.53.39.49 1.34 1.39 1.49 0-1-1.07-.91-1.38-1.53.15-.53.63-.66 1-.85 4.65-2.21 9.22-4.57 13.75-7 1.09-.58 2.06-1.34 3.12-2 1.32-.77 1.69-.61 2 .9.48 2.16.71 4.37 1.18 6.54.41 1.59 1 3.14 1.25 4.76a2.54 2.54 0 0 1 .06 1.52c-.31.48-.77.13-1.15.2a.67.67 0 0 0-.62.47.38.38 0 0 0 .25.45.75.75 0 0 0 .9-.08c.24-.27.13-.76.58-.9 1.16 1 1.16 2.32 1.1 3.68-.39.43-.95.36-1.45.42a2.59 2.59 0 0 0-1.86.91c-.37.46-.7 1.13-1.46.85s-.79-.89-1-1.48.23-1.25-.38-1.39a14.67 14.67 0 0 0-2.66-.09c-.29 0-.36.39-.43.67a4.39 4.39 0 0 0 .16 2.51 2.52 2.52 0 0 1-.15 2.58 3.9 3.9 0 0 0-.83 2.87 4.46 4.46 0 0 1-3.2 4.24c-1.7.67-2.33 1.95-1.72 3.46.19.47.47.93 1 .74s.21-.69.11-1.06a3.31 3.31 0 0 1-.22-.82c0-.55.07-1.08.73-1.19a1.07 1.07 0 0 1 1.27.88 1.51 1.51 0 0 1 .06.7 1.5 1.5 0 0 0 .86 1.73c1.32.81 1.29 1.48 0 2.26-1 .56-1.74 1.46-3.05 1.24-.65-.11-.56.79-1 1.09h-2.27c-.63-.74-.23-1.51-.07-2.28.08-.37.23-.82-.23-1s-.62.32-.8.63a1.49 1.49 0 0 0-.13 1.6c.17.32.42.66.09 1Z"/>
  <path fill="#f2f3fe" d="M108.38 256H83.64a86 86 0 0 1-25-11.43 2.92 2.92 0 0 1-.81-1.35 2.37 2.37 0 0 1-.11-.46 63.19 63.19 0 0 1-1.44-14.25c0-1.42.31-1.64 1.49-1.33a40.76 40.76 0 0 1 4.66 8.36 54.48 54.48 0 0 1 2 5.44 3 3 0 0 0 .72 1.5c.69.31.94-.3 1.25-.65a41 41 0 0 1 4.88-4.53c1.62-1.33 2.68-1.35 4.21.23a39.24 39.24 0 0 1 7.28 9.55c1.34 2.67 1.36 2.68 4 1.39a37.69 37.69 0 0 1 9.45-3.39 4.23 4.23 0 0 1 3.37.59 28.72 28.72 0 0 1 8.46 8.65c.3.46.77.98.33 1.68Z"/>
  <path fill="#ab4abd" d="M256 178.05V198a13 13 0 0 1-5.11 1c-3.58 0-7.17.43-10.76 0a37.22 37.22 0 0 1-6.83-1.26c-4.25-1.3-8.49-2.7-12.23-5.22-.54-.36-1.29-.62-1-1.49s1-.79 1.67-.72a34.48 34.48 0 0 0 16.9-2.73 73.57 73.57 0 0 0 11.68-5.83 50.65 50.65 0 0 0 4.07-3.09c.46-.4.84-1.02 1.61-.61Z"/>
  <path d="M191.13 256c0-1-.15-2.16 1.52-1.46a11.5 11.5 0 0 0 3.17-1.77c.15-.62-.33-.9-.75-1-1.08-.33-1.62-.85-1.12-2a1.43 1.43 0 0 0 0-.84.74.74 0 0 0-.9-.52c-.43.07-.49.43-.43.76a3.24 3.24 0 0 0 .36 1.06c.28.49.82 1 0 1.41a1.28 1.28 0 0 1-1.92-.58c-.89-2-.09-3.93 1.88-4.44a3.93 3.93 0 0 0 2.9-4.66c-.11-.67-.2-1.22.4-1.64a2.09 2.09 0 0 0 .61-2.89c-.57-1.24-.18-2.4 0-3.6.07-.49.37-.48.71-.29a3 3 0 0 0 2.33.14c.78-.22 1.37.05 1.06 1a1.92 1.92 0 0 0 .23 1.46c.46 1.11.9.92 1.36.07.86-1.57 2.3-1.31 3.69-1.24.72 0 .73.66.87 1.12 1.87 6.26 4.64 12.18 7.09 18.22.22.54.71 1.06.27 1.71Z" class="i"/>
  <path d="M40.41 0h14.22a1.82 1.82 0 0 1 .29 1.74 32.09 32.09 0 0 0-.25 3.71c.63-1.37 1.53-2.58 2.18-3.92A2.88 2.88 0 0 1 58 0h4.55c.4.57 0 1-.3 1.4a161.14 161.14 0 0 0-9 15.27c-.33.62-.6 1.28-.95 1.9A2.29 2.29 0 0 1 50 20c-3.29-.84-6.15-2.63-9.17-4.07-.38-.18-.74-.4-1.12-.6-2.49-1.31-2.92-2-2.4-4.75A73 73 0 0 1 40 .62a2 2 0 0 1 .41-.62Z" class="e"/>
  <path d="M199.12 22.85a72.66 72.66 0 0 0 5.71-7.7A102.19 102.19 0 0 0 213.6 0h1.4c-2.64 5.3-5.72 10.34-8.83 15.37a69.44 69.44 0 0 1-13.47 17.1 68.78 68.78 0 0 1-14 10 141.11 141.11 0 0 1-13.59 6.11 59.7 59.7 0 0 1-10.48 3.08A70.43 70.43 0 0 1 138 53.37a51.44 51.44 0 0 1-19.82-4.44 7 7 0 0 0-5-.56c-2.52.69-5.16.64-7.75.9q-5.72.57-11.47.67A95 95 0 0 1 74.54 48a83 83 0 0 1-19.9-6.13c-1.35-.62-1.47-.54-1.73 1a31 31 0 0 0-.7 7.19c.09 1.66-.34 3.29-.3 5a72.78 72.78 0 0 0 .74 10.32 2.06 2.06 0 0 1-.27 1.89c-1-.31-.71-1.25-.81-1.88a40.3 40.3 0 0 1-.34-4.18 46.64 46.64 0 0 0 .49 5.13c.15.62.26 1.34-.48 1.76-.91.32-1.15-.72-1.82-.88a33.65 33.65 0 0 1-4.79-7 37 37 0 0 1-1.91-3.63c-.52-1.14-1.09-1.66-2.29-1a.54.54 0 0 1-.07-.76c.69-.84 1.51-1.56 2.13-2.47.06-.08.25 0 .35.13a24.13 24.13 0 0 0 1.9 4.44c2 2.75 3.4 5.87 5.71 8.71a29.85 29.85 0 0 0-.23-3.73V48.57a55.42 55.42 0 0 1 .79-6.9c.1-.68.16-1.32-.47-1.8s-1-.66-1.26.36a26.94 26.94 0 0 1-5 10.11.69.69 0 0 1-.36.16c-.46.63.05-1.14-.55-.22-.17.25-.36.61-.79.37-.07-.66.51-1 .78-1.44 1.85-3.11 3.7-6.21 4.35-9.85-.27-2.19-2.84-3.15-4.69-3.3a15.84 15.84 0 0 0-4.5.26c-.43-.22-.19-.48 0-.74a3.63 3.63 0 0 1 1.23-.48 3.15 3.15 0 0 1 .44-.11c1.52-.18 3.06.13 4.58-.36.74-.24 1.36.52 2.06.75a86.18 86.18 0 0 0 14 7A88.06 88.06 0 0 0 73 45.66a91.31 91.31 0 0 0 9.39 1.52c5.26.55 10.55 1.23 15.85.36a2 2 0 0 1 .42-.07c3.7.06 7.37-.41 11-.67a7.16 7.16 0 0 0 4.49-.76c.73-.47 1.44.23 2.17.24 2.73 1 5.35 2.18 8.14 3A51.91 51.91 0 0 0 145.27 51a104.52 104.52 0 0 0 13.8-2.6 78.7 78.7 0 0 0 8-2.78c4.16-1.62 8-3.82 12-5.78a48.68 48.68 0 0 0 10.19-7.18 70.75 70.75 0 0 0 8.77-8.88 5.25 5.25 0 0 1 1.09-.93Z" class="m"/>
  <path fill="#ab4abc" d="M207.41 184.87a30.36 30.36 0 0 0 11.64 1.13 32 32 0 0 0 8.55-1.76c1.66-.61 3.4-1 5.08-1.6 3.49-1.19 6.45-3.31 9.64-5a43.2 43.2 0 0 0 12-9.38c.51-.56 1.11-1 1.66-1.54v9.67c-1.57 2-3.73 3.32-5.76 4.77a46.37 46.37 0 0 1-11.89 6c-1.79.62-3.53 1.35-5.35 1.9-4.5 1.36-9.08 1-13.66.82a38.39 38.39 0 0 1-10.82-3.7c-.5-.35-1.21-.48-1.09-1.31Z"/>
  <path fill="#d990fa" d="M0 168.67v-20.19c.82-.1 1 .61 1.27 1.1A44.57 44.57 0 0 0 7 157a30.63 30.63 0 0 0 10.45 6.64 29.55 29.55 0 0 1 3.82 1.48c.85.82.62 1.42-.35 1.94s-1.7.95-2.54 1.44a23.82 23.82 0 0 1-5.76 2 61.19 61.19 0 0 1-11.46-1.3 2.28 2.28 0 0 1-1.16-.53Z"/>
  <path fill="#55453c" d="M108.38 256c-.68-2.36-2.51-3.93-4-5.74a26.43 26.43 0 0 0-4.56-4 4.2 4.2 0 0 0-3.58-.8 36.15 36.15 0 0 0-11.13 4.37c-.67.4-1 .15-1.44-.32a12.42 12.42 0 0 1-1.48-2.57 36.76 36.76 0 0 0-7.27-9.35c-1.38-1.34-2-1.27-3.51 0a48.27 48.27 0 0 0-5.24 5c-.35.39-.68 1-1.35.39a1 1 0 0 0 0-1 1 1 0 0 1 .08-1.3 1.58 1.58 0 0 0 2-.57c1.07-1.14 2.2-2.23 3.31-3.33a6.12 6.12 0 0 1 1.79-1.4 2.77 2.77 0 0 1 3.27.49 36.12 36.12 0 0 1 7.13 8.6c.36.62.76 1.2 1.13 1.81 1.09 1.81 1.1 1.85 3.07 1 1.54-.63 3.07-1.28 4.56-2a29.78 29.78 0 0 1 5.59-1.56 3.06 3.06 0 0 1 2 .37 22.67 22.67 0 0 1 7.46 6 29.26 29.26 0 0 1 2.9 3.86c.42.7.81.82 1.44.23 1.27-1.17 2.83-2 4.24-3.36a45.93 45.93 0 0 1-5.51-2.55c-4.71-2.12-9.08-4.88-13.63-7.31-3.51-1.87-7-3.83-10.29-6-5.59-3.64-11.32-7.07-16.52-11.28-.53-.42-1.14-1.21-1.79-.86s-.4 1.29-.43 2a10.08 10.08 0 0 1-.11 2.13c-.1.39-.25 1-.8.29a13.76 13.76 0 0 1 .55-6.94 65.7 65.7 0 0 1 6.21 4.4c5.83 4.18 11.92 8 18.11 11.61C97 240.08 103.41 243.66 110 247c1.39.69 2.84 1.26 4.29 1.83a10.9 10.9 0 0 0 6.4.39c6.37-1.3 12.37-3.74 18.51-5.76a32.62 32.62 0 0 1 4.74-1.4c.22-.17.5-.16.59.08a1.06 1.06 0 0 1-.41 1.23c-4.62 1.51-9.11 3.39-13.81 4.65-1.49.4-1.6.66-.78 1.89a14.65 14.65 0 0 1 1.68 4.05c.26.82.56 1.06 1.41.72 2-.85 4-2 6.09-2.69a2.53 2.53 0 0 0 1.22-1.33c.28-.48.51-1 1.22-1 .83.47.19 1.2.32 1.8 0 1.1-1 1.41-1.65 1.93-1.36.73-2.86 1.13-4.25 1.77a6.88 6.88 0 0 0-2.16.88H130a2.2 2.2 0 0 1-.69-1.64 8.17 8.17 0 0 0-1.54-3.78 1.88 1.88 0 0 0-2.35-.81 48.83 48.83 0 0 1-7 1.58c-1.8.37-3 1.8-4.44 2.75-1 .64-1.94 1.34-3 1.9Z"/>
  <path fill="#f9dffd" d="M256 39.56c-.7-.05-.74-.74-.9-1.14a86.42 86.42 0 0 1-5.68-19c-.56-3.49-1.61-6.9-2-10.39-.38-3-1.23-5.93-1-9H250a2.92 2.92 0 0 1 .76 1.97c.51 4 1.48 7.92 2 11.9.26 1.83 1.15 3.52 1.22 5.41.29-3 .59-6 1-8.91.09-.7 0-1.57 1-1.81Z"/>
  <path fill="#a94bb9" d="M0 127.43c.54 2.09.57 4.26 1.08 6.36a51.39 51.39 0 0 0 4.07 11.26 40.55 40.55 0 0 0 7.19 10.09 42 42 0 0 0 11.33 8.55 6 6 0 0 0 4.72.14c-.08 1-1 .88-1.63 1.16a28.43 28.43 0 0 1-10.16-2.14c-6.74-2.74-11.55-7.57-15.21-13.7A19.18 19.18 0 0 1 0 145.92Z"/>
  <path fill="#a94bba" d="M50.09 19.69c1.13.16 1.62-.63 2-1.43A149 149 0 0 1 62.27.79a3.94 3.94 0 0 0 .32-.79h4.84c.45.7 0 1.28-.3 1.83-2.07 3.71-3.91 7.55-5.74 11.38a36.54 36.54 0 0 0-2.62 6.7c-.17.66-.32 1.41-1.11 1.71a13.36 13.36 0 0 1-5.52-1c-.69-.23-1.69.07-2.05-.93Z"/>
  <path d="M139.67 253.07c.33-.69 1.59-.59 1.43-1.69.53-.43 1.32-.33 1.8-.86 2-1.07 4.3-1.41 6.48-2a20.29 20.29 0 0 0 2.3-.69c.27-.11.54-.26.56-.58s-.32-.43-.57-.53a14.93 14.93 0 0 1-1.74-.61c-1.37-.59-2.87-.46-4.3-.75-.65-.14-1.14.34-1.64.7-.66.5-1.13.44-1.26-.48a3.49 3.49 0 0 1 1.12-2.34c.31-.37.82-.73.08-1.18 4.2-1.83 8.49-3.42 12.79-5 6.2-2.29 12.37-4.65 18.36-7.49 4.44-2.11 8.88-4.22 13.29-6.39a79.81 79.81 0 0 0 13.82-8 1.32 1.32 0 0 1 .87-.41c.18.28 0 .51-.11.75-.34.39-.86.66-.31 1.36a5.87 5.87 0 0 1 .69 1.81 4.93 4.93 0 0 1 0 .67c0 1.32.54 2.55.6 3.87 0 .57.16 1.12-.33 1.56-.43-2.27-.88-4.53-1.27-6.81-.15-.87-.33-1-1.14-.48a140.41 140.41 0 0 1-17.9 9.48 4.76 4.76 0 0 0-.47.31 18.52 18.52 0 0 0-4.52 2.3c-2.06 1-4.05 2.17-6.15 3.09a10.89 10.89 0 0 1-3.6 1.14c-.23 0-.43 0-.52.24a2.6 2.6 0 0 1-2.54.9c-3.86 1.4-7.72 2.79-11.44 4.55l-7.58 2.72a1.4 1.4 0 0 0-.6.36c-.32.38-.93.68-.73 1.27s.74.25 1.13.32a36.66 36.66 0 0 1 6.37 1.35c1.34.49 1.7 1.11 1.33 2.49a9.39 9.39 0 0 1-1.32 2.81c-1.19 1.75-2.43 3.48-3.65 5.21h-1.42c-.42-.68.17-1 .5-1.45 1.08-1.37 2-2.86 3-4.35a51.53 51.53 0 0 0-5 1.17c-1.65.57-3.32 1.1-5 1.66-.43.09-.91.5-1.41 0Z" class="t"/>
  <path fill="#fadbfc" d="M200.8 0c-3.31 4.12-6.8 8.09-10.41 12a75.17 75.17 0 0 1-11 10.17c-.35.26-.69.91-1.16.43s.2-.8.45-1.16c1.46-2.15 3.06-4.21 4.36-6.45a98.22 98.22 0 0 0 5.15-10.19c.69-1.59 1.71-3 2.09-4.75h3.41c.39 1-.17 1.74-.53 2.5-.87 1.83-1.66 3.7-2.6 5.51a54.72 54.72 0 0 0 5.13-6.14 9.75 9.75 0 0 1 1.7-1.92Z"/>
  <path fill="#d890fa" d="M23.35 0h15.92c.56 1 .11 1.87-.2 2.71a65.59 65.59 0 0 0-2.27 8.49c-.29 1.3-.86 1.56-2 .87a26.6 26.6 0 0 1-4.33-3.42 56.37 56.37 0 0 1-6.71-7.27C23.44 1 23 .63 23.35 0Z"/>
  <path fill="#faddfc" d="M177.2 0c-.75 1.22-2 1.83-3.09 2.65-4.66 3.54-9.86 6.21-14.72 9.44-3 2-6.42 3.58-9.65 5.32-.33.18-.78.66-1.1.11s.28-.71.59-1c2.67-2.17 5.56-4 7.92-6.6 2.82-3 5.67-6.07 8.52-9.1a1.23 1.23 0 0 0 .44-.85h5.4c.43.66-.18 1-.45 1.46a23.63 23.63 0 0 1-1.72 2.05c1.72-1.1 3.22-2.52 5-3.51Z"/>
  <path fill="#febbf3" d="M80.22 256H62.88a45 45 0 0 1-6.41-4.2c-.47-.4-1-.75-.9-1.49.47-.83 1.39-1.13 2-1.77a2.63 2.63 0 0 0 1.22-1.66c.24-1.36.56-1.5 1.78-.79 2.24 1.31 4.47 2.65 6.72 3.94a71.33 71.33 0 0 0 10.43 4.44c.92.31 2.12.28 2.5 1.53Z"/>
  <path fill="#6d257a" d="M219.29 189.42c1.84 0 3.67.24 5.5.24A31.57 31.57 0 0 0 237.4 187c1.93-.83 3.91-1.55 5.84-2.4a48.51 48.51 0 0 0 10.08-6.32 11 11 0 0 1 2.65-2v1.7c-1.39.54-2.32 1.73-3.46 2.6a58.92 58.92 0 0 1-12.11 6.58 62.15 62.15 0 0 1-8.1 2.82 30.93 30.93 0 0 1-10.38.68c-.28 0-.56-.1-.84-.12a.72.72 0 0 0-.77.49c-.21.46.16.58.42.75a48.33 48.33 0 0 0 9.32 4.38 40.24 40.24 0 0 0 13.52 2.5 50.73 50.73 0 0 0 10.29-.6A10.79 10.79 0 0 1 256 198v1.14c-3.24.21-6.46.66-9.69 1a31.47 31.47 0 0 1-8.41-.66 50.37 50.37 0 0 1-13.36-4.29 25.54 25.54 0 0 1-3.49-1.8 1.68 1.68 0 0 0-2.55.39l-.1-.09c.66-1.38.13-2.97.89-4.27Z"/>
  <path d="M23.35 0a16.84 16.84 0 0 0 2.78 3.7A48.73 48.73 0 0 0 35 11.82c.65.44 1.24.66 1.39-.44.48-3.67 1.9-7.1 2.81-10.66a5.2 5.2 0 0 0 .07-.72h1.14c-.25 2.45-1.41 4.62-1.89 7a43.89 43.89 0 0 0-1 5 2.19 2.19 0 0 0 1.21 2.34 67.75 67.75 0 0 0 11.4 5.37c2.56.54 5 1.64 7.67 1.69-.39 1.06-1.59.35-2.16 1-1.32.1-2.5-.67-3.81-.62a14.46 14.46 0 0 1-4.56-1.54 23.57 23.57 0 0 0-4-1.74 62.44 62.44 0 0 1-8.39-5 36.42 36.42 0 0 1-8.65-7.64 17.89 17.89 0 0 0-1.57-1.6 49.19 49.19 0 0 0 7.26 15.31 46.21 46.21 0 0 0 5.07 6.82c.27.27.66.61.27 1.08-.61 0-.58.29-.51.78a6.8 6.8 0 0 1-.12 3.58l-.17.12c-.17-1.21-.42-2.41-.5-3.62a3.69 3.69 0 0 0-1.06-2.22 61.31 61.31 0 0 1-12-22.63A11.26 11.26 0 0 1 22.21 0Z" class="z"/>
  <path fill="#5c3a59" d="M26.74 164.72c.51-.39 1.28-.3 1.68-.89 3.71-1.77 7.6-3.06 11.41-4.58 1.67-.67 3.42-1.11 5.14-1.67.45-.23 1-.28 1.34-.8-1.32-1.1-3.11-1.11-4.47-2a31.67 31.67 0 0 1-9.13-6.82c.4-.38.66-.05.67 0a13 13 0 0 1-2.91-3c-.27-.36-.68-.71-.27-1.22 1.46 1.51 2.91 3 4.39 4.54a26.92 26.92 0 0 0 10.25 6.5c.79.27 1.62.46 2.42.69a13.27 13.27 0 0 0 2.19.86c.45.6 1 .31 1.51.14a8.09 8.09 0 0 1 3.26-.59 1.23 1.23 0 0 1 1 .42 121.84 121.84 0 0 0-14.41 4.07 121.26 121.26 0 0 0-14.07 5.67c-1.35.64-2.81 1-4.17 1.66a90.53 90.53 0 0 1-13.13 5.1A48.82 48.82 0 0 1 0 175.21v-1.14c.75-1 2-1.07 3-1.33 1.41-.35 2.8-.82 4.24-1 .44-.12 1.43.12.54-.84-.21-.23-.35-.49-.14-.75a.8.8 0 0 1 .8-.15 16.61 16.61 0 0 0 3.52.26c.27 0 .57.09.79-.16a29.76 29.76 0 0 0 5.42-2c1.34-.21 2.33-1.15 3.52-1.67.5-.22.7-.66 0-1-.35-.21-.94-.29-.75-.85s.71-.22 1.1-.2c1.63.07 3.12.79 4.7.34Z"/>
  <path fill="#f2f2fd" d="M110.94 256a39 39 0 0 1 6.59-4.83 6.75 6.75 0 0 1 1.92-.39c1.92-.47 3.89-.68 5.77-1.34s2.22-.35 3.19 1.31A14.27 14.27 0 0 1 130 256Z"/>
  <path fill="#d891f9" d="M256 8.56c-.92 1.23-.55 2.74-.78 4.11-.39 2.27-.45 4.59-.64 6.9 0 .36.09.92-.36 1-.63.07-.47-.58-.55-.95-1.29-5.93-2.46-11.88-3.36-17.89-.09-.56-.19-1.11-.28-1.67 1.74 0 3.48.05 5.21 0 .7 0 .79.17.78.81C256 3.4 256 6 256 8.56Z"/>
  <path fill="#6e466f" d="M38.41 36.11c2.38-.38 4.78-.62 7.08.37 1.21.52 2.42 1.18 2.28 2.84a5 5 0 0 0-5-3.09 30.41 30.41 0 0 0-12.53 2.65c-6.54 2.79-11.45 7.66-16.04 12.93a111.6 111.6 0 0 0-10.65 14.1c-1.19 1.92-2.16 4-3.52 5.78v-2.56c.8-.51 1-1.43 1.49-2.18C7.68 57.16 14.83 48.21 24 41.09a30.9 30.9 0 0 1 9.64-4.67l.68-.2c2.3-.65 2.29-.65 2.08-3v-1.28l.11-.12a2.83 2.83 0 0 1 .81 2.78c-.12.97.15 1.4 1.09 1.51Z"/>
  <path fill="#403759" d="M0 247.44c1.61-1 2.51-2.68 3.59-4.14a201.86 201.86 0 0 0 11.9-17.7c4-6.71 7.77-13.52 11.48-20.38.78-1.44 1.37-3 2-4.48.12-.28.23-.51.53-.61.37.19.45.56.56.91a2.4 2.4 0 0 1-.32 1.63c-1.76 3.7-3.66 7.33-5.58 11-1 1.44-1.7 3-2.58 4.51a7.62 7.62 0 0 1-.38.69c-.51.74-.95 1.53-1.39 2.31-1 1.65-1.85 3.35-2.82 5a18.54 18.54 0 0 0-1.43 2.28l-.32.48c-.77 1.41-1.82 2.65-2.52 4.1a17.54 17.54 0 0 1-1.4 2.11c-.48 1.11-1.56 1.72-2.25 2.66-2.89 4-5.86 7.93-9.09 11.67Z"/>
  <path fill="#6e367d" d="M146.77 0A37.68 37.68 0 0 1 141 4.09a140.06 140.06 0 0 1-14.6 8.65 98.11 98.11 0 0 1-21.7 8c-.8.19-1.6.4-.55 1.35a.54.54 0 0 1-.33.28c-.29.06-.72 0-.77-.18-.35-1.49-1.57-.94-2.48-1.11a3.25 3.25 0 0 1-1-.35c-.29-.21-.68-.37-.55-.86 3.83 1.1 7.25-.74 10.71-1.74A91.35 91.35 0 0 0 131 8.84Q137.52 5 143.87.9a6.77 6.77 0 0 0 .91-.87Z"/>
  <path fill="#eff0fb" d="M139.67 253.07a112.26 112.26 0 0 1 10.91-3.3c.37-.08.84-.54 1.13 0s-.2.8-.43 1.12c-1.2 1.72-2.43 3.42-3.66 5.12H134c.07-.95.93-.83 1.5-1.11Z"/>
  <path fill="#431d4b" d="M55.76 22.21c-.17-.43 0-.56.42-.58s1.12.25 1.58-.25c1.08-2.59 1.84-5.31 3.07-7.85 1.93-4 3.85-8 6-11.93a4.11 4.11 0 0 0 .6-1.6h1.13a13.3 13.3 0 0 1-1.85 4A90.55 90.55 0 0 0 62 14.22c-.84 1.78-1.42 3.78-2.23 5.55-.32.72-.22 1.16.63 1.28a19.59 19.59 0 0 0 4.46-1.13c2.7-.9 5.53-1.18 8.26-1.93a1.13 1.13 0 0 1 .7.07c.87 1.35.53 2.2-1 2.25a14.4 14.4 0 0 0-3.46.45c-1.1.43-2.28.51-3.4.88a23.84 23.84 0 0 0-3.56.7c-1.64 1.55-3.73.62-5.58 1a.93.93 0 0 1-1.06-1.13Z"/>
  <path fill="#4b2f50" d="M20.75 84.77c-.86 1.32-1.37 2.87-2.5 4-.24.07 0-.53-.32-.25s-.31.67-.59.93c.38-.13.26-.92.92-.7a28.2 28.2 0 0 1-2.59 4.81c-1.73 3.19-3.51 6.35-5.21 9.55-3 5.55-5.41 11.35-8 17.07-.6 1.33-1.16 2.68-1.8 4-.14.3-.22.63-.62.67v-2.56c1.89-4 3.85-8 5.64-12.06a169.35 169.35 0 0 1 7.86-15c2-3.51 3.78-7.15 6.09-10.48.18 0 .22.84.54.07.08-.23.37-.23.58-.05Z"/>
  <path d="M220.14 0c-.49 7.94.07 15.85.39 23.77.25 6.15 1.34 12.19 1.93 18.28-.41.68.09 1.35 0 2s.26 1.26-.63 1.44a2.59 2.59 0 0 1-.56-1.71c-.83-5.41-1.61-10.82-2-16.28-.11-1.52.27-3 .14-4.52a3.45 3.45 0 0 0-.12-1.39c-.08-6.92-.75-13.84-.23-20.77A4.78 4.78 0 0 0 219 0Z" class="aj"/>
  <path fill="#5f3061" d="M31.23 195.65c.36-1.52.33-1.62-1.11-1.07-2 .76-4 1.71-6 2.54-4.6 1.89-8.92 4.38-13.51 6.32-2.62 1.1-5.27 2.19-7.8 3.51a9.68 9.68 0 0 1-2.8 1v-1.14c3.25-1.39 6.48-2.81 9.75-4.17s6.28-3.17 9.48-4.65c2.1-1 4.17-2 6.31-2.85 1.36-.54 2.55-1.46 4-1.69a11.56 11.56 0 0 1 1.65-.45c.92.21 1.13.89 1 1.7-.04.54-.2 1.12-.97.95Z"/>
  <path fill="#f0f2fd" d="M61.17 256H44.11c-.07-.83.63-1 1.15-1.2a71.64 71.64 0 0 0 8.45-3.63 2.55 2.55 0 0 1 2 .37c1.65 1.06 3.17 2.3 4.86 3.32.43.2.77.54.6 1.14Z"/>
  <path fill="#773e89" d="M151.6 21.64c2.46-1.36 5-2.55 7.36-4.12 1.87-1.26 3.72-2.57 5.67-3.71a52.39 52.39 0 0 0 11.39-9c1.58-1.64 3.52-2.89 4.88-4.75h1.42c0 .5-.37.74-.66 1a82.45 82.45 0 0 1-15.43 13c-3.49 2.22-6.78 4.75-10.47 6.67-.34.17-.62.43-1 .29-.66-.24-1.1.28-1.62.5s-1.01.59-1.54.12Z"/>
  <path d="M203.63 224.72c.29-1.95-.73-3.78-.55-5.73a.35.35 0 0 1 .53 0 135.77 135.77 0 0 0 3.68 15.11c1.72 6.15 4.33 11.95 6.65 17.86a22.07 22.07 0 0 1 1.65 4h-1.14c-2.35-5.66-4.74-11.3-6.91-17-.51-1.32-.59-2.77-1.32-4-.39-1.24-.41-2.59-1.12-3.74a42.59 42.59 0 0 0-1.19-5c-.1-.49-.18-1-.28-1.5Z" class="an"/>
  <path fill="#6d2d7a" d="M26.74 164.72c-1.62.66-3.19 0-4.77-.17-.26 0-.53-.26-.74.11.14.5.81.16 1 .6a.84.84 0 0 1-1.14 0 33.31 33.31 0 0 1-13.8-7.46 41.27 41.27 0 0 1-6.33-8.1c-.28-.42-.39-1-.91-1.21v-2.56c1.21 1.27 1.71 3 2.64 4.43A30.17 30.17 0 0 0 15.73 162a32.13 32.13 0 0 0 11.01 2.72Z"/>
  <path fill="#fad4fd" d="M205.07 0a52.61 52.61 0 0 1-2.53 6.89c-1 2.53-2.13 5-3.13 7.55a13.13 13.13 0 0 1-1.13 2c-.7-1-.19-1.87.07-2.62C199.91 9.35 201 4.68 202.22 0Z"/>
  <path fill="#da8db8" d="M80.22 256a4.92 4.92 0 0 0-2.28-1.05 72.76 72.76 0 0 1-17.35-8.44 2.26 2.26 0 0 0-1.36-.51c0 1.24-.18 2.36-1.54 2.83-.25-.53.14-.88.37-1.27.61-.54.3-1.18.19-1.79s-.09-1.05.33-1.46a36.71 36.71 0 0 1 6.09 3.5 32.56 32.56 0 0 0 4.47 2.38 103.79 103.79 0 0 0 13.66 5.31 4.54 4.54 0 0 1 .84.5Z"/>
  <path fill="#d797f7" d="M197.39 0a40.24 40.24 0 0 1-4.63 6.15c-.87 1-1.49 2.28-3.13 3 1.4-3.28 3.09-6.08 4.06-9.19Z"/>
  <path d="m58.32 247.73-.63 1.07-1.92 1.49c-.33 1-1.33.72-2 1.1-2.74 1.84-5.94 2.68-8.91 4-.3.13-.65.17-.75.55H42.4c.37-1.4 1.76-1.52 2.74-1.87a59.63 59.63 0 0 0 11-5.43 3 3 0 0 0 1.57-2.93c1.19.42.45 1.35.61 2.02Z" class="as"/>
  <path fill="#a74ab5" d="m7.4 172.05-7.37 2v-4.25a1.14 1.14 0 0 1 .92-.25q2.82.47 5.68.82c1.27.15 1.48.78.77 1.68Z"/>
  <path fill="#f9d7fc" d="M85.91 0c-1.68 1.72-3.85 2.83-5.58 4.5-.56.55-1.21 1-1.74 1.63-.2.22-.28.73-.71.4s-.21-.74 0-1a19.27 19.27 0 0 0 2.19-3.78c.31-.58.64-1.15 1-1.73Z"/>
  <path fill="#f9d8fc" d="m58 0-2.83 5.67c-.16.31-.19.86-.67.74s-.45-.66-.4-1.08c.15-1.25.34-2.5.48-3.75.06-.51 0-1 .05-1.55Z"/>
  <path fill="#703381" d="M7.4 172.05c.77-1.25-.39-1.3-1-1.31a50.3 50.3 0 0 1-6.4-.94v-1.13c3.27.43 6.51 1.07 9.82 1.23l3 .17c-1.61.65-3.27.21-4.95 0 .08.87 1.48.52 1.15 1.4-.26.68-1.02.63-1.62.58Z"/>
  <path fill="#f9d4fc" d="M120.32 0c-1.63 1.48-3.7 2.13-5.67 3a.53.53 0 0 1-.65-.12c-.28-.33-.07-.64.1-.91.42-.67 1.13-1.14 1.39-1.94Z"/>
  <path fill="#dc9ecb" d="M53.77 251.39c.52-.65 1.48-.47 2-1.1.32 1.23 1.5 1.61 2.35 2.27a37.51 37.51 0 0 0 3.57 2.24 3 3 0 0 1 1.19 1.2h-1.71c-2.34-1.77-4.38-4-7.4-4.61Z"/>
  <path fill="#daa0ee" d="M174.35 0c-1.42 1.65-3.36 2.68-5 4.05-.21.17-.55.32-.77 0s.09-.51.27-.7A11.31 11.31 0 0 0 171.51 0Z"/>
  <path fill="#f7c3fc" d="M157 0c-1.43 1.51-3.55 1.82-5.18 3a.61.61 0 0 1-.88-.16c-.29-.44.06-.73.36-.92A10.06 10.06 0 0 0 153.88 0Z"/>
  <path d="M187.72 256c-.65-1-1.11-2-.16-3.13.33-.39.47-1 1.15-.73a1 1 0 0 1 .5 1.52 4.55 4.55 0 0 0-.35 2.34Z" class="i"/>
  <path d="M135.47 254.86c-.41.49-1.25.4-1.5 1.11h-.57a2.08 2.08 0 0 1 2.07-1.11Z" class="t"/>
  <path d="M52.35 67.13c-.06-2.41-.51-4.79-.66-7.2a86.32 86.32 0 0 1 1-18.38c.15-1 .67-.82 1.3-.51a67.16 67.16 0 0 0 15.87 5.53 132.76 132.76 0 0 0 17.07 2.74c8.27.66 16.44-.37 24.64-1a1.74 1.74 0 0 0 .56-.1c2.58-1 4.83-.21 7.28.83 10 4.24 20.5 4.9 31.19 3a77.91 77.91 0 0 0 15.4-4.21 104.36 104.36 0 0 0 15-7 67.52 67.52 0 0 0 14.23-11.39 91.25 91.25 0 0 0 10-12.83 3.2 3.2 0 0 1 1-1.2c-.67 1.33-1.38 2.65-2 4-2.24 4.92-5.49 9.2-8.72 13.44a90.46 90.46 0 0 1-11.21 12.22 66.5 66.5 0 0 1-11.25 7.79c-4 2.39-8.44 3.79-12.75 5.33a61.94 61.94 0 0 1-16 3.9 47.77 47.77 0 0 1-11.08-.74 57.48 57.48 0 0 1-13.51-4.22c-1.28-.53-2.67.15-3.82.55a31.2 31.2 0 0 1-6.36 1.17 106.56 106.56 0 0 1-14.29.62c-6.26 0-12.34-1.32-18.4-2.65-.9-.19-1.79-.53-2.68-.81-1.35-.42-1.76 0-1.63 1.31a3.3 3.3 0 0 1 0 .7c-.87-.2-.71-.94-.62-1.46a14.27 14.27 0 0 0-.13-4.41c-.63 2.17.59 4.3-.21 6.36-.71-.16-.86-.18-.78-.85.21-2-1-2.72-2.6-3-2.37-.42-4.37-1.75-6.58-2.57a1.63 1.63 0 0 0-2.34.72 54.11 54.11 0 0 0-5.79 13.29 2.14 2.14 0 0 0 .64 2.43.51.51 0 0 1 0 .45c-.58.58-1.11.3-1.57-.14a1.13 1.13 0 0 1-.2-1.71Z" class="bb"/>
  <path fill="#f47d80" d="M138.21 219.93a13 13 0 0 1-4.67 1.25c-5.8 1-11.55.28-17.22-1.12-2-.49-3.91-1.27-5.86-1.91.52-1.19-.79-1.14-1.17-1.73a1.79 1.79 0 0 1-.28-.27 8.45 8.45 0 0 0-2.21-2.15c-1.17-1-1.59-2.6-2.74-3.63a12.07 12.07 0 0 1-2.72-6.28c0-1.23-.23-2.44-.2-3.67a2.71 2.71 0 0 1 1.23-2.4 22.55 22.55 0 0 1 7.81-3.27 47.18 47.18 0 0 1 11-1.19 37.2 37.2 0 0 1 15.4 3.38 41.65 41.65 0 0 1 9.38 6.07c.85.72 1.84 1.39 2 2.64-.06 2.11-1.21 3.83-2.06 5.65a6.21 6.21 0 0 1-.66 1 25.76 25.76 0 0 1-6.91 6.54c-.5.36-.78.67-.12 1.09Z"/>
  <path fill="#271c2b" d="M52.35 67.13c0 1.63.37 2 1.71 1.72 2.34-1.25 4.94-1.55 7.48-2.06a70.54 70.54 0 0 1 10.57-.87c.68 0 1.35-.57 2.06-.12a44.19 44.19 0 0 0 4.87.67A54.21 54.21 0 0 1 87 68.31a37.7 37.7 0 0 1 8.87 4.24c.77.69 1.68 1.21 2.39 2 .27.29.78.55.52 1s-.73 0-1.1 0a.65.65 0 0 1-.38-.16c-.66-.25-1.31-.55-2-.74-.32-.09-.79-.25-1 .17s.16.6.35.86c1.24 1.65 2.48 3.31 3.74 5a45.11 45.11 0 0 1 3.17 5 25.18 25.18 0 0 1 1.73 3.68l1.42 4c.4 1.35.53 2.76.87 4.13.1.42.14.77-.3 1s-.54-.22-.74-.48a74.5 74.5 0 0 1-4.54-7.14 36.92 36.92 0 0 0-10.45-11.59A28.61 28.61 0 0 0 77.49 75c-4.76-.74-9.3.21-13.81 1.71a41.87 41.87 0 0 0-17 10.82 36.33 36.33 0 0 0-9.08 16.65 51.51 51.51 0 0 0-1.35 14.94 32.69 32.69 0 0 0 1.75 8.27c0 .19.09.37.12.55.09.43.18 1-.27 1.15s-.72-.35-1-.67a33.45 33.45 0 0 1-6.6-17.66 35.07 35.07 0 0 1 .31-7.6c0-.1.06-.22 0-.28-1-1.27 0-2.28.46-3.34 1-2.37 1.56-4.86 2.45-7.25a11.06 11.06 0 0 1 1.22-2.49c.6-.94 1.39-1.79 1.31-3 0-.47.36-.74.69-1a5.29 5.29 0 0 0 1.68-2.23 3.17 3.17 0 0 1 .94-1.31C40.63 81 41.7 79.63 43 78.42a48.41 48.41 0 0 1 7.44-6.1.87.87 0 0 0 .43-.54c-.11-.3-.35-.21-.57-.2-.42 0-1 .2-1-.39s.23-1.28.7-1.26c1.94.11 1.13-1.06 1-1.94a1.64 1.64 0 0 0 .5-2c-.42-1.52 0-3.1-.44-4.61-.07-.24 0-.56.46-.79-.01 2.24-.07 4.47.83 6.54Z"/>
  <path fill="#edf5fe" d="M53 136.87a4.8 4.8 0 0 1-3.07-.67c-1.88-.84-3.75-1.75-5.55-2.73a22.44 22.44 0 0 1-5.71-3.74c-1-.57-.5-1.7-1-2.47a31.52 31.52 0 0 1-1.09-15.42 5.88 5.88 0 0 1 .51-1.75 9.24 9.24 0 0 0 2-4.61 12.32 12.32 0 0 1 1.47-3.48c.45-1 1.61-.81 2.12.15a1.17 1.17 0 0 1 .1.26 10 10 0 0 0 4.25 6 5 5 0 0 1 1.18 3.37c.09 2.48.23 5 .55 7.41.08.61.29 1.18.36 1.78.17 1.41.83 2.72.88 4.16a1.18 1.18 0 0 0 .24.66c1.76 2.21 2.95 4.98 4.76 7.3 1.23 1.57 3 2.45 4.6 3.51a1.92 1.92 0 0 1 .62.87c-.4 1.38-.79 1.58-2.07 1.25-1.5-.37-2.81-1.28-4.35-1.52a1.2 1.2 0 0 1-.8-.33Z"/>
  <path fill="#a9b6c1" d="M37.54 110.08a27.69 27.69 0 0 0 .15 16.37c.09.31.12.63.18 1s-.18.19-.27 0c-2.89-9.21-2.16-18.29.92-27.31A34.49 34.49 0 0 1 47.67 86c7-6.55 15.12-10.91 24.8-11.57a27.18 27.18 0 0 1 16.88 4.34c4.89 3.12 8.33 7.46 11.24 12.34 1.4 2.34 2.8 4.69 4.22 7 .06.09.22.13.53.3.09-1.82-.74-3.39-.65-5 .88 1.44.76 3.12 1.1 4.69a.71.71 0 0 1-.39.83c-.31.14-.51-.12-.73-.3s-.26-.51-.62-.53c-.61.45.3 1.59-.79 1.83-.36.07-.5-.2-.64-.44-1.52-2.51-3.1-5-4.86-7.32a45.91 45.91 0 0 0-7-7.24c-.18-.15-.33-.34-.5-.51a32.41 32.41 0 0 1 7.32 12.1 41.67 41.67 0 0 1 2.42 13.15c0 3.55.15 7.1-.57 10.62-.24 1.13-.21 1.15-1.09 1.36-.31-.79.13-1.56 0-2.35.27-3.46.75-6.89.35-10.4-.26-2.23-.14-4.51-.77-6.7-.82-3.64-1.71-7.25-3.69-10.49-2.11-3.44-4.45-6.67-7.87-8.95a22 22 0 0 0-6.08-2.82 2 2 0 0 1-.41-.13A19.89 19.89 0 0 0 69 79.9c-1.29.28-2.5.84-3.78 1.17a1.06 1.06 0 0 1-.83-.16c-.31-.65.31-.63.75-1.13-2.36 1.2-4.65 1.9-6.7 3.2a49.56 49.56 0 0 0-9.15 6.92 41.92 41.92 0 0 0-7.63 9.81 76.74 76.74 0 0 0-4.12 10.37Z"/>
  <path fill="#e0ac9a" d="M242.05 132c0-2.94.8-5.78.92-8.71.15-3.21.51-6.4.75-9.6a30 30 0 0 1 .24-3.53 4.79 4.79 0 0 0-1.72-4.81 28.53 28.53 0 0 1-5.47-7c-1.72-2.84-3.46-5.67-5-8.61-2-3.75-3.73-7.6-5.45-11.46a97.19 97.19 0 0 1-4.78-14.9 23.12 23.12 0 0 1-.78-5c-.07-2-1.23-3-2.86-3.69.64-.55 1.27-.16 1.84.09 1.43.63 2.84 1.28 4.32 1.78a2.13 2.13 0 0 1 1.46 1.41 112.2 112.2 0 0 0 10.68 24.51 48.09 48.09 0 0 0 4.45 6.4c.83 1 1.27 2.23 2.19 3.13a6.06 6.06 0 0 1 1.1 3 87.75 87.75 0 0 1 .83 14 206.46 206.46 0 0 1-1.81 21.36c-.12.63-.02 1.4-.91 1.63Z"/>
  <path fill="#eaf2fb" d="M98.43 121.74c1-1.58 1-3.46 1-5.18.21-5.56.24-11.11-1.19-16.6a34.7 34.7 0 0 0-9.09-16.2c2.26-.4 11 9.7 14.08 16.1.91 1.33.7 2.88.51 4.28a75.17 75.17 0 0 0-.22 7.65 5.29 5.29 0 0 1-.37 1.92c-.88 2.11-.67 4.47-1.36 6.62-.64 2-.44 4.16-1.78 6a15.44 15.44 0 0 0-1.61 4 6.1 6.1 0 0 1-1.35 2.31c-2 2.11-3.77 4.55-6.69 5.59a1.92 1.92 0 0 1-1.59.31.89.89 0 0 1-.81-.69c0-.85.75-1.12 1.27-1.55a25.29 25.29 0 0 0 3.82-3.85 3.48 3.48 0 0 1 .38-.48 17 17 0 0 0 3-5.6 36.21 36.21 0 0 0 1.34-3.65 1.51 1.51 0 0 1 .66-.98Z"/>
  <path fill="#2c1d2e" d="m222.69 139.1 1.12 1.45a4.56 4.56 0 0 1 .76 1.34c.14.27.47.61.08.86s-.59-.18-.81-.4a28.17 28.17 0 0 0-3.09-3.09c-.38-.28-.63-.34-.34.27a44.85 44.85 0 0 1 2.27 4.13 73.92 73.92 0 0 1 4.35 9.6c.16.43.47.8.09 1.26-.59 0-.66-.65-1-.9-2.35-1-3.73-3.18-5.28-5-1.9-2.25-4.32-3.75-6.66-5.38-1.53-1.07-3.17-2-4.81-2.9-.94-.71-.45-1.4.09-2a6.25 6.25 0 0 0 1.5-4.28 5.66 5.66 0 0 0-.9-2.91c-.29-.5-.9-1.09-.39-1.64s1.06.19 1.59.36a4.15 4.15 0 0 1 2.71 1.38 47 47 0 0 0 4.78 3.68c1.15.87 1.93 2.18 3.37 2.71.53.16.16 1.03.57 1.46Z"/>
  <path d="M31 193.11a2.4 2.4 0 0 1-1.44.3c3.48-2 7.34-3.11 11.07-4.49 6.52-2.4 13.16-4.5 19.58-7.11 9.22-3.75 18.85-6.1 28.39-8.73a131.73 131.73 0 0 0 12.74-3.74c2.64-1 3.1-2.2 2.28-4.91-1.22-4-4.52-5.29-8-6.48C84 153.91 72.1 154 60.06 155.5a3 3 0 0 1-1.4 0c.21-.71.93-.47 1.39-.73.68-.09 1.12-.35 1.08-1.17a12.84 12.84 0 0 1 .4-2.52 13.33 13.33 0 0 0 .1-2.47c-.41.08-.59.83-1.12.41.2-.48.4-1 .62-1.43s.15-1 .72-.9.46.64.48 1a16.07 16.07 0 0 1-.33 5.08c-.29 1-.1 1.3 1.06 1.19a82.84 82.84 0 0 1 25.29.77 51.45 51.45 0 0 1 11.06 3.47c3.8 1.73 5.35 5 6.07 8.83a2 2 0 0 1-1 1.91 11.28 11.28 0 0 1-2.57 1.46 132.73 132.73 0 0 1-13.29 4c-5.89 1.53-11.76 3.16-17.63 4.82a134.58 134.58 0 0 0-13.66 5c-3.29 1.32-6.71 2.29-10.05 3.48-3.07 1.09-6.1 2.3-9.19 3.36-.94.33-.61.87-.53 1.44 0 0-.12.05-.13 0-1.51-2-3-.56-4.37.13a3.69 3.69 0 0 1-2.06.48Z" class="bj"/>
  <path d="M242.05 132a37 37 0 0 0 1.21-8c.5-6.55 1.29-13.09 1-19.67-.15-3.31-.5-6.6-.79-9.9a6.41 6.41 0 0 0-1.14-2.56c-.11-.16-.24-.35-.16-.52 1.19-2.63-.1-5.07-.54-7.58-.77-2.62-.86-5.36-1.41-8a13.45 13.45 0 0 0-.84-5c-.44-1.3-.5-2.69-.86-4a1.41 1.41 0 0 1 0-.7c1-2.65 0-5.27-.11-7.9-.06-1.92-.31-3.84-.48-5.76-.4-4.57-.17-9.13-.24-13.7a2.63 2.63 0 0 1 .12-1.39 19.33 19.33 0 0 1 .93-5.75 10.26 10.26 0 0 1 .2 4.44c-.64 5.49-.21 11 .11 16.46.23 4 .63 7.93 1 11.89a8 8 0 0 0 3.1 5.64 47.92 47.92 0 0 1 7.07 7.92c.15.2.44.42.15.89-.93-1.06-1.82-2.1-2.74-3.11q-2.75-3.06-5.53-6.09c-.26-.28-.51-.84-1-.55s-.16.7-.11 1.06c1.09 7.49 2.4 15 3.49 22.44a91.84 91.84 0 0 1 .87 19.69c-.44 6.24-.84 12.47-1.86 18.64-.89 5.37-2.24 10.64-3.61 15.9a2.61 2.61 0 0 1-.35.6 1.15 1.15 0 0 1-.19-1.27c.09-.31.19-.6-.2-.77 1.07-4.46 2.18-8.88 2.91-13.35Z" class="bk"/>
  <path d="M20.75 84.77c-.35-.57-.84 1.74-1.13 0 .95-2.34 2.53-4.29 3.84-6.4C25 75.84 26.6 73.38 28.25 71c2-2.9 4.08-5.75 6.13-8.63l6-8.4c.19-.27.41-.51.62-.76a15.15 15.15 0 0 0 1.68-2.57c.19-.2.37-.41.57-.59a4.53 4.53 0 0 1 .46-.3l.17.66a1.86 1.86 0 0 1-1.22 2c-.06 1.51-2 1.72-2.19 3.12.08 1-.65 1.73-1.16 2.49q-2.94 4.42-6.2 8.62c-2.42 3.1-4.43 6.48-6.52 9.79-.74 1.19-.86 2.6-1.55 3.8a37.89 37.89 0 0 0-1.67 5.3c-.6 3-1.1 6-1.92 8.93-.44 2.5-.67 5-1 7.52a41.5 41.5 0 0 0-.45 6.22 79.87 79.87 0 0 0 2.11 18.86.72.72 0 0 0 .2.35 78.38 78.38 0 0 0 2.87 7.85 91 91 0 0 0 5.06 8.36 10.81 10.81 0 0 0 2.72 3.47c.56.56 1.15 1.09 2 1.89-1.17-.11-1.39-1.19-2.21-1a18.07 18.07 0 0 1-4-4.51 50.76 50.76 0 0 1-9.4-25.89 83 83 0 0 1-.4-13.74 117.22 117.22 0 0 1 2.7-17.64 16.48 16.48 0 0 0 .49-2.2.85.85 0 0 0-.13-.55c-.47 0-.67.46-1 .7Z" class="bl"/>
  <path fill="#453b43" d="M211.23 130c-.51 0-.78-.74-1.48-.44-.08.59.44 1 .68 1.41a6.27 6.27 0 0 1-.81 7.65c-.53.6-.76 1.05 0 1.58-1.38.21-2.31-.7-3.34-1.36a1.88 1.88 0 0 1 .51-1.82 4.4 4.4 0 0 0-1.33-6.8 17.66 17.66 0 0 0-10.17-2.37 5.55 5.55 0 0 0-5 3.55 2.92 2.92 0 0 0 .12 2.94c.41.63.79 1.34.1 2-1.24.15-2.48.25-3.73.29-.59-.39-.38-1-.43-1.55-.27-3.05 0-6 2.43-8.21a1.13 1.13 0 0 0 .34-1.14 18.78 18.78 0 0 1 5.59-.45 4.82 4.82 0 0 0 2.76-.27.77.77 0 0 1 .69-.07c3.11 1.51 6.67 1.55 9.81 3a19 19 0 0 1 3.4 1.71.21.21 0 0 1-.14.35Z"/>
  <path fill="#3f4643" d="M31 193.11c1.43-.62 2.89-1.2 4.3-1.87 1-.46 1.71-.7 1.76.81 0 .17.29.33.45.49 4.08 5.38 8.06 10.85 13.23 15.26 4.07 3.47 8.16 6.91 12.54 10a11.66 11.66 0 0 1 3 2.56c.43 1-.31 1.91-.3 2.88v4.38c.67 1 .41 2.11.27 3.16a31.77 31.77 0 0 1-.93 4.72 7.18 7.18 0 0 0-.3 4.18.9.9 0 0 1-.2.93c0 .46-.1.95.33 1.3.86.7.25.86-.38 1-1-1.71-1.36-3.69-2.09-5.53a69.73 69.73 0 0 0-5-9.82c-.2-.31-.35-.75-.83-.58s-.42.67-.44 1.09a63.82 63.82 0 0 0 .66 10.43 30.53 30.53 0 0 0 .94 4.66 20.92 20.92 0 0 1 .54 2.84 1.25 1.25 0 0 1-.29 1.74c-.66-.53.09-1.46-.56-2-.42-1.39-.43-2.87-.86-4.26a.25.25 0 0 1 0-.22c-.3-1.72-.48-3.46-.84-5.17a17.52 17.52 0 0 1-.57-5.94c0-.15-.06-.3-.1-.45a8.63 8.63 0 0 1 .38-2.77 1.44 1.44 0 0 1 1.36-1.24 1.32 1.32 0 0 1 1.4 1 2.66 2.66 0 0 0 .84 1.12 31.06 31.06 0 0 1 3.55 6.47 2.62 2.62 0 0 0 .71 1.56 4.82 4.82 0 0 0 .58-3.05 3.76 3.76 0 0 1 .3-1.69c.1-.27.27-.55.15-.82-.31-.72-.67-1.38.46-1.75.31-.1.2-.59.21-.92v-5.95a1.89 1.89 0 0 0-.83-1.67c-1.45-1.13-3-2.13-4.47-3.21l-6.86-5.42a40.51 40.51 0 0 1-7-6.13 91.01 91.01 0 0 0-1.71-1.69 107.39 107.39 0 0 1-7.14-8.93c-.22-.31-.42-.62-.65-.93-1-1.31-2.13-1.25-3 .19a20.06 20.06 0 0 0-1.56 3.63 20 20 0 0 1-1.43 3.08c-.15.28-.33.59-.73.56-.4-.21-.32-.62-.4-1 .18-1.64 1.37-2.89 1.68-4.48 1.06-.91.99-1.75-.17-2.55Z"/>
  <path fill="#522d4d" d="M203.61 219h-.53v-.54a6.48 6.48 0 0 1-.29-3.15l.28-.6a106.66 106.66 0 0 0 10.46-14.93c1.38-2.36 2.79-4.71 4.27-7a1.25 1.25 0 0 0-.32-1.93 6.4 6.4 0 0 0-2.23-1.19c-3.49-1.07-7-2.28-9.64-4.9a18.86 18.86 0 0 1-5.79-16.22 14.05 14.05 0 0 1 2.08-6.69 1.8 1.8 0 0 0 .19-.2c.35-.37.38-1.23 1.13-1s.09.81.15 1.24a16.67 16.67 0 0 0 .6 3.64 10 10 0 0 0 3.91 5.35 1.9 1.9 0 0 1 .86.89c.15.52-.18.54-.56.35a20 20 0 0 1-4.37-4.25l-.51-1.15c-.1-.55-.36-1.06-.42-1.64 0-.35-.12-.84-.57-.88s-.48.48-.59.82a22.12 22.12 0 0 0-.59 9.4 2.57 2.57 0 0 0 .25 1.36 18 18 0 0 0 6 9.1 21.92 21.92 0 0 0 7.37 3.37c1.48.45 3 .79 4.51 1.18 0 1.48.29 3-.82 4.3-.91 2.35-2.6 4.23-3.81 6.4a69.29 69.29 0 0 1-9.87 14.17c-1.43 1.53-1.33 2.99-1.15 4.7Z"/>
  <path d="m186.58 136.5 4-.27c.76-.66 1.75-.17 2.61-.51-.37-.56-1-.61-1.49-.79a1.53 1.53 0 0 1-1-2.14 5.86 5.86 0 0 1 6.5-3.82 47.83 47.83 0 0 0 4.71 1.07c1.95.29 3.31 1.58 4.75 2.68 1.25.95.87 2.73-.68 3.45a2.49 2.49 0 0 0-1.75 2.14 33.11 33.11 0 0 0-10.43-1.69c-8.52.15-16.85 1.21-24.67 5-1.89.91-4 .39-6 0a.77.77 0 0 1-.5-.43c-.1-.41.29-.51.56-.69 1.34-.89 2.89-1.38 4.15-2.41 2.13-1.72 4.31-3.37 6.46-5.05a.53.53 0 0 1 .2.38c-.08.76-.7 1.09-1.22 1.48-2.68 2-5.1 4.36-8.43 5.84a6.69 6.69 0 0 0 5.29-.26 52.9 52.9 0 0 1 15.66-4.25 1.4 1.4 0 0 1 1.28.27Z" class="bp"/>
  <path fill="#ddac9d" d="M219.31 21.64a2.77 2.77 0 0 1 .29 1.64c0 7.38 1.39 14.61 2.34 21.88a1.44 1.44 0 0 0 .19.37 3 3 0 0 1 .67 1.67c.49 2.12.95 4.23 1.48 6.34.14.56.28 1.14-.25 1.56s-1 0-1.44-.2c-.86-.4-1.75-.72-2.6-1.14-.41-.21-.9-.35-1-.91.37-.28 1-.32.81-1.09-.55-2.4-.29-4.87-.44-7.31-.21-3.7-.15-7.46-.49-11.14-.35-3.95.49-7.78.44-11.67Z"/>
  <path fill="#61585f" d="M204.18 138.31c-.7-.74-.37-1.37.31-1.84a5.28 5.28 0 0 1 1.41-.63 1.69 1.69 0 0 0 1.08-1.67c.05-.65-.41-1.09-.89-1.52-2.75-2.47-6.38-2.47-9.65-3.45-2.12-.64-5.18 2.26-5.55 4-.15.73 0 1.33.93 1.41a1.18 1.18 0 0 1 .27.06c.78.28 2 .49 1.91 1.32-.06.61-1.32.19-2 .28a11.21 11.21 0 0 1-1.42 0 2.42 2.42 0 0 0-.25-1.37c-1.12-2.09-.85-3.56.67-5.46 1.16-1.44 2.78-1.65 4.38-2 2.8-.52 5.34.66 8 1.37a6.7 6.7 0 0 1 4.11 2.76 4.57 4.57 0 0 1-.16 5.47 2.55 2.55 0 0 0-.77 1.77.78.78 0 0 1-.9 0c-.43-.44-1.12-.04-1.48-.5Z"/>
  <path fill="#432d24" d="m145 212.14.54-.86a10.77 10.77 0 0 0 2.2-5.46 5.48 5.48 0 0 1 .21-2.09 10.39 10.39 0 0 0-2-9.46 4.13 4.13 0 0 1-.72-1.21c-.57-1.48-1.95-2.24-2.94-3.35-.22-.24-.53-.39-.71-.67a.79.79 0 0 1-.09-.92c.24-.39.55-.19.86-.09a24.71 24.71 0 0 0 2.66.81c3 .34 4.09 1.49 4.52 4.41a36.38 36.38 0 0 1-.25 12.14 11.56 11.56 0 0 1-1.39 3.68c-.39.9-1 1.69-1.44 2.56-.48.45-.72 1.09-1.19 1.55-.22.21-.46.62-.79.38s-.06-.57.13-.83a2.55 2.55 0 0 0 .4-.59Z"/>
  <path d="M145.07 188.84a6.15 6.15 0 0 1-2.32-.5c-.32-.07-.74-.51-1 0s.23.61.51.86c1 .93 2 1.89 3 2.84a1 1 0 0 1 .38.88c-.72.25-1-.35-1.4-.72-.79-.75-1.5-1.57-2.36-2.24a12.41 12.41 0 0 0-4.92-2c-3.13-.76-6.27-1.38-9.44-1.89a66.56 66.56 0 0 0-18.91-.29 3.22 3.22 0 0 1-1.54-.08c-.53-.48-1.39-.25-1.86-.85a18.76 18.76 0 0 1 5.82-1.07 85.1 85.1 0 0 1 28.49 3.15 30.79 30.79 0 0 1 5.55 1.91Z" class="bt"/>
  <path fill="#70675a" d="M22.26 127.41c-1.08-1.74-1.1-3.77-1.43-5.68a81 81 0 0 1-1.07-17.37 39.55 39.55 0 0 1 1.34-10.19 2.8 2.8 0 0 1 .29 2.31c-.15 1.21-.34 2.43-.52 3.64-.11.8.13 1.22 1 1.37a15 15 0 0 0 7.4-.57 2.43 2.43 0 0 0 1.48-1.61c.6-1.54 1-3.14 1.52-4.71.3-.93.39-2.09 1.61-2.45-1 3.07-1.56 6.3-3.28 9.11-.09.16-.26.36-.22.49.85 3-.24 6 0 9.09a34.71 34.71 0 0 0 7.2 18.21c.52-.64-.12-1.13 0-1.65h.27c.35.75.24 1.65.8 2.33 0 .27.15.63-.2.73s-.54-.28-.75-.52a35.65 35.65 0 0 1-4.51-7.2c-3-6-3.74-12.44-3-19.07.15-1.36 0-1.63-1.28-1.13a12.89 12.89 0 0 1-7.39.53c-1.13-.21-1.39.16-1.4 1.23 0 7.63.18 15.24 2.14 22.69a1.54 1.54 0 0 1 0 .42Z"/>
  <path fill="#6f6763" d="M88.83 138.28h1.56c.18 1-.58 1.05-1.19 1.26-3.28 1.18-6.75 1.44-10.13 2.09l-.56.09c-1.13.18-2.32.28-2 2 0 .25-.08.61-.45.57s-.3-.32-.36-.55c-.15-.53.2-1.3-.37-1.58a3.79 3.79 0 0 0-2.53-.16 3.67 3.67 0 0 1-2 0c-1.19-.39-1.65.53-2.23 1.28-.37.48-.59 1.63-1.25 1.24s.16-1.2.36-1.81c.06-.17.16-.33.32-.67-2.48-.46-4.86-1-7.25-1.34-1.3-.22-1.82 1-2.67 1.62-.4.29-.7 1.22-1.27.69s.17-1 .56-1.41c1.47-1.54 1.46-1.51-.57-2.19-1-.35-2-.82-3-1.25-.57-.25-.94-.64-.74-1.33h.71a47.24 47.24 0 0 0 6.3 2.25 22.9 22.9 0 0 0 2.59.54 2.34 2.34 0 0 1 .38.09 2.52 2.52 0 0 1 .39.12c.73.39 1 .08 1.11-.65 1.29 0 2.44.18 3 1.56a1.12 1.12 0 0 0 1.3.66 15.57 15.57 0 0 1 3.67-.1c3.55.24 6.92-.88 10.39-1.19 1.16-.1 1.54-1.17 2.47-1.47a2.24 2.24 0 0 0 2.39-.08c.29-.21.71-.12 1.07-.28Z"/>
  <path d="M95.86 72.55c-2-1-4-1.86-5.85-3a23.27 23.27 0 0 0-4.61-1.52A39.85 39.85 0 0 0 75 66.29c-.28 0-.57 0-.77-.25a.25.25 0 0 1 .08-.4 71.29 71.29 0 0 1 9.39 1.46c1.32.36 2.63.76 3.92 1.22a1.16 1.16 0 0 0 1.57-.47c1-1.41 2.17-2.69 2.44-4.55a6.24 6.24 0 0 1 1.26-2.14.52.52 0 0 1 .48-.17c.41.18.31.58.19.86-.39 1-.11 1.48.79 2.06A28.15 28.15 0 0 1 105 76.62c.11.25.21.52.3.79s.11.5-.13.64-.55 0-.7-.28c-.41-.74-.81-1.5-1.2-2.26A25.14 25.14 0 0 0 93.92 65c-1-.59-1.42-.35-1.93.46a19.7 19.7 0 0 1-1.67 2.46c-.65.77-.49 1.23.34 1.63A23.7 23.7 0 0 1 95 71.68c.3.26.71.43.86.87Z" class="bw"/>
  <path fill="#827365" d="m211.23 130 .12-.34c2 .22 3.5-1.11 4.93-2.1a23.56 23.56 0 0 0 6.26-6.29c.19-.29.49-.8.86-.52.53.4.14 1-.12 1.39a20.4 20.4 0 0 1-5.94 6 15.11 15.11 0 0 1-2.79 1.66c-.87.37-1.29.73-.19 1.5a37.17 37.17 0 0 1 6.46 5.28 1.57 1.57 0 0 0 1.55.42 27.49 27.49 0 0 0 10-3.43c.38-.22.78-.58 1.37-.27a2.64 2.64 0 0 1-1.48 1.54 23 23 0 0 1-7.94 2.89c-.77.13-1.85 0-1.61 1.37-2.26-2.87-5.21-4.95-8.12-7.07-1.07-.75-1.89-1.94-3.36-2.03Z"/>
  <path d="M208.17 172.1c.3-.52.29-.57-.41-1.07a9.84 9.84 0 0 1-3.53-4.31 2 2 0 0 1-.27-1.21 15.27 15.27 0 0 0 3.88 5.15c4 3.23 8.33 3.24 13 1.93 3.69-1.05 6.35-3.42 8.79-6.17 1.23-1.38 1.5-3.25 2.4-4.8.19-.32.22-.73.59-.94.66 1.34-.59 2.22-.81 3.34 0 .13-.34.2-.1.36h.38a17.65 17.65 0 0 1-5.61 6.57 19.4 19.4 0 0 1-11.67 3.71 9.35 9.35 0 0 1-6.64-2.56Z" class="by"/>
  <path fill="#7d7161" d="M180.29 127.65c3.28-.72 4.8-3.07 5.64-6.05.12-.45.32-1 0-1.36s-.88 0-1.29.16a62.06 62.06 0 0 0-14.64 7.29 1.71 1.71 0 0 1-1.63.41c.57-1.32 1.86-1.75 2.87-2.41a64.11 64.11 0 0 1 15.1-7c.38-.13.83-.48 1.2-.16s-.13.75-.18 1.15a10.37 10.37 0 0 0-.13 1.12 5.94 5.94 0 0 1-1.35 3.94c-.3.35-.75.75-.57 1.44l2.07-.16c.31-.12.59-.19.72.23a2.39 2.39 0 0 1-2.45.71 3.85 3.85 0 0 0-2.66.52 3.25 3.25 0 0 1-2.66.62.33.33 0 0 1-.04-.45Z"/>
  <path fill="#694e6a" d="M208.26 49.75a25.83 25.83 0 0 1 10.15 2.9 3.42 3.42 0 0 1-3.64.56c-.7-.24 0 .5-.35.41a38.65 38.65 0 0 1-5.1-1.23c-2.2-.61-4.51-.59-6.73-1-.54-.57-.73-1.44-1.52-1.79a6.72 6.72 0 0 1 2.89-.11c1.43.09 2.87.11 4.3.26Z"/>
  <path fill="#573c42" d="M214.42 53.62c-.07-.55-.73-.3-1-.66.38-.44.74-.08 1 0a8.58 8.58 0 0 0 3.93-.29.6.6 0 0 0 .59.2l4.37 2c.2.09.37.34.57 0a1.09 1.09 0 0 0 0-1c-.53-2.09-1.09-4.18-1.56-6.28a5.1 5.1 0 0 1-.29-2.09 10.33 10.33 0 0 0-.25-3.08c-.16-.55 0-.83.58-.37a28.46 28.46 0 0 0 .54 3.45c.29.93 0 2 .59 2.84a11.43 11.43 0 0 0 .56 2.58.15.15 0 0 1 0 .18 21.23 21.23 0 0 1 .5 2.37c.49.6.12 1.43.58 2 .65 1 1.89 1.21 2.72 2 .32.28 1.08.37.76 1s-.83.13-1.26 0a1.47 1.47 0 0 0-.42 0 8.26 8.26 0 0 0-1 .08c-.4.06-.59-.28-.86-.46s-.28-.71-.5-.78c-2.34-.71-4.37-2.21-6.81-2.64Z"/>
  <path fill="#513127" d="M105.17 184.83c.57.27 1.49-.43 1.79.63a1 1 0 0 1-.31.24 1.89 1.89 0 0 0-1.73 1.29 21.09 21.09 0 0 0-3.4 11.22 36.52 36.52 0 0 0 .13 6 15 15 0 0 0 2.74 6 2.18 2.18 0 0 1 .36.6c.11.33.57.69.24 1s-.61-.35-1-.42a6.29 6.29 0 0 1-1.08-1.92 20.34 20.34 0 0 1-1.43-2.93l-.26-.54a24.12 24.12 0 0 1-1-11.34c.08-.5-.1-1 .13-1.53.68-3 1.62-6 4.16-8.07.24-.19.4-.32.66-.23Z"/>
  <path fill="#65554a" d="M74.3 65.64c0 .14 0 .27-.08.4-6.29.6-12.67.57-18.77 2.58a2.9 2.9 0 0 1-1.39.23 2.28 2.28 0 0 1 0-.26.89.89 0 0 1 .63-.6 16.93 16.93 0 0 0 3.2-.91 44.35 44.35 0 0 1 10.24-1.49c1.13 0 2.26-.15 3.39-.28.76-.09 1-.47.78-1.16-.21-.88-.57-1.71-.79-2.58s-.8-2-.1-3c.19-2.17-.47-4.32-.07-6.49.07-.37-.14-1 .47-1s.48.65.5 1a20 20 0 0 1 .07 4.38 1.89 1.89 0 0 0 .17 1.5 30.6 30.6 0 0 0 1.75 7.68Z"/>
  <path fill="#827466" d="M202.46 51.18c2.29.39 4.66.3 6.86 1.21-3.72-.38-7.43-.82-11.16-1a29.74 29.74 0 0 0-11.33 1.41c-1.25.43-2.52.81-3.78 1.21-.31.1-.74.25-.91-.07s.24-.72.54-.85a39.55 39.55 0 0 1 4.52-1.66 55.47 55.47 0 0 1 19.69-1.93 2.61 2.61 0 0 1 1.37.29 24.77 24.77 0 0 1-5.16-.19 2.55 2.55 0 0 0-2 .22 1.58 1.58 0 0 1-1.42.43c-1.56-.05-3.08.32-4.11.34 1.95 0 4.43-.45 6.89.59Z"/>
  <path fill="#392934" d="m232.09 164.41-1.05.73c.38-1.64 1.45-2.89 1.58-4.46 1.22-3.31 2.89-6.43 4.3-9.66a15 15 0 0 0 1.94-4.63c0-.37-.11-.78.23-1.08.44-.11.78-.06.63.52a3.57 3.57 0 0 0-.24 1.52c-.42 1.12-.7 2.28-1.15 3.38-.53 1.55-.73 3.21-1.65 4.61a79.7 79.7 0 0 1-4.6 9.08Z"/>
  <path fill="#7d7163" d="m188 126.26-.65-.28a18.23 18.23 0 0 1 7.54-.79 4.22 4.22 0 0 0 3.66-1.35c2-2.11 4.17-4.11 5.35-6.88.17-.41.46-1 1-.81s.16.83 0 1.24a20.35 20.35 0 0 1-5 6.62c-.36.35-1 .66-.86 1.19s.9.34 1.39.45c2.56.62 5.2 1 7.53 2.32a4 4 0 0 1-2-.43 33.47 33.47 0 0 0-5.73-1.47 3.38 3.38 0 0 1-1.83-.67.68.68 0 0 0-.5-.2c-2.73.85-5.58.12-8.33.6-.13 0-.24.14-.36.22-.37.39-.72.62-1.21.24Z"/>
  <path d="m97.29 75.38 1.33.18c-.51-1.46-2.18-1.75-2.76-3 .43 0 .7.27 1 .5a42.86 42.86 0 0 1 8.41 9.12c.2.3.36.61.06.89s-.67 0-.9-.31c-1.57-1.75-2.78-3.8-4.58-5.38-.85-.73-1.77-1.27-2.56-2Z" class="bw"/>
  <path fill="#867b70" d="M180.29 127.65v.3c-1.6 1.25-3.63 1.43-5.43 2.2a5.1 5.1 0 0 0-.86.3c.57-.19 1.21-.39 1.6.28a1.48 1.48 0 0 1-.35 1.81c-.4.44-.74 1-1.49.87v-.38l1.59-1.81a8.29 8.29 0 0 0-4 .71c-1.31.51-2.6 1.09-3.9 1.64-.4.17-.93.36-1.15-.07s.3-.72.66-.9a63 63 0 0 1 7.56-3.13 29.3 29.3 0 0 1 5.77-1.82Z"/>
  <path d="M145 212.14c.2.51-.52.74-.39 1.25 1-.28 1-1.5 1.87-1.76-1 2.23-2.94 3.71-4.55 5.42a29.47 29.47 0 0 1-3.74 2.88c-.42-.19-.95.59-1.25-.05-.17-.38.33-.67.62-.86a31.61 31.61 0 0 0 7.44-6.88Z" class="ci"/>
  <path d="M205.58 138.85h.9a8.24 8.24 0 0 0 3.14 1.4 94 94 0 0 1 8.4 5.43 44.5 44.5 0 0 1 5.66 5.91c.75.83 1.82 1.14 2.41 2.06-1.17 0-1.82-.82-2.55-1.57-2.1-2.14-3.8-4.67-6.29-6.46a53.64 53.64 0 0 0-10.72-6.17 1.76 1.76 0 0 1-.95-.6Z" class="bp"/>
  <path fill="#32232a" d="M60.51 149c.84-.14.72-1 1.33-1.66a13.23 13.23 0 0 1-.17 5.19c-.07.32-.28.69-.19 1C62 155 61.12 155.07 60 155a.56.56 0 0 1-.76 0c-.29-.3 0-.48.27-.62a1.15 1.15 0 0 0 .62-.86c-.1-.68.75-1.44-.18-2a.56.56 0 0 1-.29-.84Z"/>
  <path fill="#583f55" d="M59.7 150.68a.71.71 0 0 0 .67.68c-.12 1.26-1.47 1.63-1.94 2.64.83.34 1.38-.54 2.14-.45 0 .59-.18 1.06-.84 1.2-.1 0-.47 0-.09.23.1.06.26 0 .4 0-.34.52-1 .1-1.39.47a16.39 16.39 0 0 1-3.41.7l-1.24-.04c.2-.75.89-.57 1.4-.68s.76-.45.53-1c0-.31.3-.43.35-.69Z"/>
  <path fill="#807262" d="M220.15 139.65c-.46-.2-.73-.58-.39-1s.79-.09 1.1.21a16.65 16.65 0 0 1 2.51 2.66 2.42 2.42 0 0 0 1.34 1.14c-.34-.79-.62-1.46-.9-2.13a20.2 20.2 0 0 1 3.33 5.78c.11.29.15.71-.27.83s-.51-.22-.61-.48c-1-2.57-2.9-4.47-4.72-6.43a2.85 2.85 0 0 0-1.39-.58Z"/>
  <path fill="#908272" d="M135.44 160.1a8 8 0 0 1-1.07 4c-.14.33-.29.84-.75.66s-.34-.73-.21-1.11c.23-.7.79-1.27.85-2.06s.16-1.49.25-2.23c0-.41 0-1 .51-1s.34.65.41 1a3.62 3.62 0 0 1 .01.74Z"/>
  <path d="m104 211.36.87.36c-.17-.55-.33-1-.49-1.53l2.61 3.67a21 21 0 0 1 2.25 2.27c.28.26.64.54.2.9s-.62 0-.85-.24a25.46 25.46 0 0 1-3.63-4.06Z" class="cn"/>
  <path d="m56.29 153.74-.24.66c-1.76 1.42-3.93 1.67-6 2.09a1 1 0 0 1-.76-.32c-.37.29-.71.78-1.15 0a4.88 4.88 0 0 0-.85-.85c3.21.77 6.12-.32 9-1.58Z" class="bj"/>
  <path d="M105 212.74c1.39 1.14 2.26 2.78 3.71 3.84.21.16.42.5.69.21.09-.09-.07-.43-.12-.65.72.05 1 .75 1.62 1 .27.13.62.39.46.76s-.58.17-.88.23a12.72 12.72 0 0 1-5.48-5.39Z" class="co"/>
  <path d="M100.39 193.1c.22 1.19-.24 2.34-.27 3.52a39.86 39.86 0 0 0 1.12 9.35 4.28 4.28 0 0 1-.83-2.22 29.45 29.45 0 0 1-.33-9.73 1.44 1.44 0 0 1 .31-.92Z" class="cn"/>
  <path d="M204 165.53c-.83-1.46-.67-3.1-.82-4.7-.71 0-.63.94-1.25 1a1.18 1.18 0 0 1 .09-.4c.35-.46.46-1.37 1.16-1.23s.35 1 .42 1.57c.1 1.23.23 2.5.4 3.76Z" class="by"/>
  <path fill="#c1b4ac" d="M220.15 139.65c.5-.63.61-.58 1.39.6-.51 0-.27.25-.16.53.4 1 1.38 1.7 1.3 2.88Z"/>
  <path d="M238.86 146.39a7.65 7.65 0 0 1-1.94 4.63c.65-1.54 1.29-3.09 1.94-4.63Z" class="bk"/>
  <path fill="#90827b" d="M103.27 89.32a12.17 12.17 0 0 1-1.73-3.68 6.18 6.18 0 0 1 1.73 3.68Z"/>
  <path d="M101.5 206.51a8.42 8.42 0 0 1 1.43 2.93 4.83 4.83 0 0 1-1.43-2.93Z" class="cn"/>
  <path d="M146.51 211.63a5.05 5.05 0 0 1 1.44-2.56 5 5 0 0 1-1.44 2.56Z" class="ci"/>
  <path d="M226.91 58.1c.6-.3 1 .39 1.71.37a6.91 6.91 0 0 0-2.31-1.76c-.48-.29-1-.52-1.07-1.18a109.73 109.73 0 0 1 9.93 6.75c.79.59 1.51 1.28 2.28 1.91.31.25.57.76 1.06.53s.2-.75.17-1.15c-.47-5.32-1.1-10.64-1.22-16-.07-3.12 0-6.25 0-9.37a1.24 1.24 0 0 1 .25-.93v8.09a136.43 136.43 0 0 0 1.06 15.25 21.32 21.32 0 0 1 0 6.28c-1.16-.1-1.72-1.1-2.48-1.74a48.9 48.9 0 0 0-8.59-5.91c-.36-.24-.82-.51-.79-1.14Z" class="cr"/>
  <path fill="#9271a1" d="M201.38 175.77c-.4-.29-.38-.76-.41-1.15-.31-3.39-.44-6.78.7-10.06.16-.45.15-1.21.81-1.13.5.07.35.8.49 1.22a12.82 12.82 0 0 1 .33 2.06c-.63-.57-.33-1.56-1.06-2.23a11.38 11.38 0 0 0-1.1 4.68 44.23 44.23 0 0 0 .24 6.61Z"/>
  <path d="m232.09 164.41 4.6-9.08c-.53 2.32-1.81 4.31-2.89 6.39-.49.93-.7 2.07-1.71 2.69ZM203.81 167.86c.89.14 1 1.06 1.55 1.54 1 .87 1.88 1.81 2.82 2.71a9.92 9.92 0 0 1-4.37-4.25Z" class="by"/>
  <path d="M238.34 150.72a7.22 7.22 0 0 1 1.15-3.38 6.68 6.68 0 0 1-1.15 3.38Z" class="bk"/>
  <path d="M223 45.53a6.2 6.2 0 0 1-.54-3.45 9.41 9.41 0 0 1 .54 3.45ZM223.57 48.37c-.92-.8-.5-1.87-.59-2.84a8.1 8.1 0 0 1 .59 2.84Z" class="aj"/>
  <path d="M224.13 50.94a3.39 3.39 0 0 1-.56-2.58 6.33 6.33 0 0 1 .56 2.58ZM224.66 53.49a4 4 0 0 1-.5-2.37 3 3 0 0 1 .5 2.37Z" class="aj"/>
  <path d="M42.65 50.61A3.82 3.82 0 0 1 41 53.18a6.87 6.87 0 0 1 1.65-2.57Z" class="m"/>
  <path d="M199.12 22.85a47 47 0 0 1-7.56 8.38 55.13 55.13 0 0 1-9.1 7.17c-2.89 1.75-5.93 3.28-9 4.82a74 74 0 0 1-18.81 6.71c-6.21 1.28-12.47 2.26-18.83 1.79a53.7 53.7 0 0 1-12.46-2.38c-2.41-.77-4.72-1.76-7.07-2.69-5.64-2.19-10.29-5.87-14.62-10a71.3 71.3 0 0 1-7.68-8c-.5-.64-1.43-1.38-.71-2.19s1.48.12 2.15.46a45.27 45.27 0 0 0 9.94 4.13 35.69 35.69 0 0 0 14.76.81c1.31-.23 2.65-.13 3.95-.38a1 1 0 0 1 1 .36 8.12 8.12 0 0 1-3.16.57c-.37 0-1-.21-1 .43 0 .48.38.72.78.91a20 20 0 0 0 2.71 1.23c3.25.91 6.21 2.69 9.63 3.18a94.62 94.62 0 0 0 10.64 1.36 76.44 76.44 0 0 0 17.14-1.34 132.33 132.33 0 0 0 15.3-3.88 78.25 78.25 0 0 0 18.57-9.09 26.61 26.61 0 0 0 2.2-1.77c.42-.22.65-.71 1.23-.59Z" class="c"/>
  <path d="M125.15 31.91c-2.17 0-4.31.39-6.45.64a38.65 38.65 0 0 1-10.84-.48c-4.79-.78-9-2.89-13.25-5.11-.36-.18-.71-.72-1.11-.32s.13.86.37 1.2c1.95 2.76 4.53 4.94 6.88 7.33a58.48 58.48 0 0 0 12.11 9.45c1.15.68 2.58.93 3.48 2a3.6 3.6 0 0 0-3.09.24c-1 .64-2.29.37-3.46.34 0-.74.64-.56 1.06-.62a3.37 3.37 0 0 0 1.78-.48c-7.25-3.68-12.46-9.5-17.9-15a3.92 3.92 0 0 1-.25-.32 7.28 7.28 0 0 0-1.43-1.61 7.73 7.73 0 0 1-2.31-3.6A1 1 0 0 1 91 25c.53-.37 1.21-.31 1.75-.64a.63.63 0 0 1 .59.14 6.23 6.23 0 0 0 2.27 1.44 35.73 35.73 0 0 0 16.8 5.4 61.16 61.16 0 0 0 23.71-3.48c5.29-1.79 10.35-4.1 15.51-6.2.85.06 1.47-.52 2.2-.8.34-.13.77-.59.92.2a91 91 0 0 1-17.54 7.61c-3.99 1.33-8.01 2.33-12.06 3.24Z" class="ct"/>
  <path d="m41.83 154.75 5.42 1.85a2.29 2.29 0 0 1-2.29 1c.82-.77.64-1.21-.42-1.51s-2.05-.41-2.71-1.34Z" class="cu"/>
  <path fill="#9c76a8" d="M21 84.16c.24-.65.67-1.65 1.19-1.46.76.28.16 1.2 0 1.83a3 3 0 0 1-.58 1.67 3.74 3.74 0 0 1 .14-1.52c.32-.93-.34-.54-.75-.52Z"/>
  <path d="M45 157.58a19.83 19.83 0 0 1-5.14 1.67 11.4 11.4 0 0 1 5.14-1.67Z" class="cu"/>
  <path d="M69.13 20.5a8.19 8.19 0 0 1 3.53-.59c1.44 0 1.55-.21 1-1.68.24-.81 1-.5 1.5-.62a23.44 23.44 0 0 1 2.67-.29c1.09-.11.83.39.35 1.11a63.55 63.55 0 0 1 14.42.91c-1.47-.28-3-.44-4.43-.74-.5-.11-1.19-.23-1.12-.85s.77-.46 1.27-.42c1.69.13 3.3.68 5 .89A18.8 18.8 0 0 1 99 19.91l.56.61c.16.75-.25 1-.92 1.07-.41 0-.86-.13-1.25.32 1.58 0 3.32-1.08 4.52.75l-.09.18c-2.34-.77-4.56 0-6.8.51a4.93 4.93 0 0 1-1.62.19c-.49-.36-1.25-.24-1.57-.9.54-.9 1.64-.52 2.54-1.14a79.84 79.84 0 0 0-23.28-.6c-.67-.06-1.4.18-1.96-.4Z" class="ct"/>
  <path d="M93.32 18.22c-1.76.1-3.41-.67-5.15-.72-.32 0-.65-.18-1 .34 2.2.92 4.73.5 6.79 1.89a100.13 100.13 0 0 0-17.23-.9c.54-.81 1.33-.5 1.66-1.29-1.64.22-3.24-.07-4.73.69-2.49.5-5 1-7.45 1.51a3.1 3.1 0 0 1-1.38.18c1.28-.91 2.85-.87 4.28-1.27 6.79-1.9 13.71-1.88 20.65-1.31a12.44 12.44 0 0 1 3.56.88Z" class="cw"/>
  <path fill="#ab80c2" d="M60.34 21.37c-.73.1-1.34 0-1-.94.83-2.09 1.32-4.33 2.64-6.21-.28 1.76-1.19 3.3-1.71 5-.47 1.49-.5 1.54 1 1.32a5.61 5.61 0 0 1 .71 0c-.24.8-1.12.46-1.64.83Z"/>
  <path d="M60.34 21.37c.43-.55 1.25-.34 1.71-.85a8.93 8.93 0 0 1 2.81-.6 11.17 11.17 0 0 1-4.52 1.45Z" class="cw"/>
  <path d="M16.77 226a37.67 37.67 0 0 1 2.76-5 2.91 2.91 0 0 0 1.47-2.37.43.43 0 0 1 .22-.52 2.17 2.17 0 0 1 1.49-.32c1.14.11 1.54.59 1.26 1.69-.36 1.38.3 2.46.72 3.62.44-.48.07-.73-.16-1s-.61-.75-.16-1.23a1.07 1.07 0 0 1 1.3-.19c2.34.92 2.76 2.46 1.09 4.24-.36.39-.32.63 0 .93a3.87 3.87 0 0 0 .74.43c.53.27 1.61-.15 1.57.8a4.64 4.64 0 0 1-1.11 3c-.49.52-1.14.32-1.68-.09a2.93 2.93 0 0 1-1.05-2.14c-.7.12-1.17.51-1.19 1.09s.64.64 1.06.78a3.51 3.51 0 0 1 2.2 2.07 1.66 1.66 0 0 0 2.25 1.11c1.15-.35 1.68.45 2 1.35s.79 1.78 2 1.86c.53 0 .89.51 1.32.8s.6.41.89.09.12-.64 0-.93a1.88 1.88 0 0 0-1.3-.77 2.13 2.13 0 0 1-1.46-2.66c.2-1.21.7-1.56 2.15-1.39a2.6 2.6 0 0 0 1.77-.29 1.13 1.13 0 0 1 1.45.08c.74.68 1.32.33 1.78-.31a2.17 2.17 0 0 1 2.93-.92 1.19 1.19 0 0 0 1.49-.33c-1.05-.5-2.2-.6-3.13-1.29-.4-.3-.74.18-1 .49-.93 1-1.65.83-1.92-.47a3.07 3.07 0 0 0-1.21-2c-.73-.56-.63-1.2 0-1.79.25-.22.54-.39.79-.61a1.5 1.5 0 0 0 .53-2c-.48-.85-1.34-.78-2.15-.68-.54.07-.53.46-.39.86a6 6 0 0 1 .37 1.23c.21 1.51-.15 2.09-1.68 2.38a4 4 0 0 0-2.06 1.16c-.45.42-1 1-1.61.45s-1.82-1-1.79-2.22c0-1 .73-1.33 1.59-1 1.18.41 1.69-.1 2.21-1.08a10.24 10.24 0 0 0 1.3-3.23c.28-1.8 1.13-2.22 3-2.17 1.13 0 2.25-.3 2.95 1 .24.48 1.05 0 1.15-.66a6.08 6.08 0 0 0-.18-1.26c-.08-1.33.36-1.92 1.67-2.05a.9.9 0 0 0 .94-.84 4.08 4.08 0 0 1 .64-1.57c.41-.66 1-1 1.65-.44 1 .74 1.92.32 2.84 0s.49-1.22.68-1.86c.15-.43.45-.93.87-.54.68.65 1.71 1 2 2-1.45.7-3.09 1-4.38 2.22a4.14 4.14 0 0 1 2.13 2c.34.64.51 1.35-.28 1.7a1 1 0 0 1-1.51-.77c-.32-1.53-1.64-1.84-2.86-2.15-.53-.13-2.83 2-3 2.64-.22.9-.18 1.62 1.09 1.53.8-.07 1.61 0 2.41 0s1.64-.1 1.58 1.17c0 .6.55.55 1 .53 1.9-.09 1.63 1.61 2 2.6s-.55 1.31-1.41 1.47a1.34 1.34 0 0 0-1 1 27.49 27.49 0 0 0-1.5 4.16c-.18 1-2 2.24-3 2.54-1.48.43-3.26.09-4.39 1.52-.18.22-.44.46-.73.3-1.51-.85-1.2.29-1.26 1.1 0 .37-.19.73-.23 1.1a1.09 1.09 0 0 0 1 1.3c.56.1 1.13.19 1-.77a.56.56 0 0 1 .92-.48c.93.77 1.42.15 2-.44.45-.44.94-1.23 1.63-.65a1.71 1.71 0 0 1 .51 2.29 4 4 0 0 1-1 1.38A2.59 2.59 0 0 0 42 241c0 .92-1.63 1.48-2.45 1a8.54 8.54 0 0 1-3.16-2.52c-.57-.93-3.73-.93-4.75-.17-.64.48-1.27 1-1.93 1.43a2.09 2.09 0 0 0-.75 2.37c.11.52.64 1-.31 1.32s-1.79.77-2.3-.38a5.19 5.19 0 0 1-.62-3.68c.15-.48.27-1-.27-1.25s-.66.38-.9.69a1.71 1.71 0 0 1-2.22.67c-2-.79-2.48-.64-3.49 1.17-.51.92-1 .63-1.58.2s-1.17-.8-1.83 0a.85.85 0 0 1-1.17.11.6.6 0 0 1-.22-.86c.26-.43.59-.78 1.16-.58a1.23 1.23 0 0 0 1.79-.81 1.36 1.36 0 0 0-.51-1.65c-.79-.49-1.23.26-1.73.59-1.28.84-4.2-.16-4.54-1.63.69-.17 1.53.28 2.12-.58-.39-.49-1.77-.24-1.29-1.48l1.32-2a2.33 2.33 0 0 1 2.68-1.09 24.7 24.7 0 0 0 4.08-.28.84.84 0 0 0 .82-.48 7.3 7.3 0 0 1 2.21-2.89c.24-.21.52-.54.27-.86s-.62-.16-.94-.07a5.05 5.05 0 0 0-2.76 1.85c-1 1.23-2.71 1-3.68-.42l.19-.3a8.41 8.41 0 0 0 1.53-2.42ZM55.79 236.05c-.55-.36-.14-1-.43-1.46-.89.22-1 1-1.23 1.7-.29 1-.76 1.13-1.53.49s-1.6-1-2.37.1c-.22.31-.57.8-1 .35a1.08 1.08 0 0 1-.05-1.43c.09-.15.29-.23.44-.34 1.39-1.14 1.37-1.71-.12-2.82a2.45 2.45 0 0 1-.85-.93c-.22-.47 0-.81.3-1.15a1 1 0 0 1 1.26-.38c1.27.61 2.63 1.17 2.75 2.89 0 .22 0 .52.29.56s.5-.25.52-.54c.06-.6.39-.82.94-1.06 1-.46.29-1.52.55-2.26.1-.09.18-.08.25 0-.02 2.12.56 4.23.28 6.28Z" class="cy"/>
  <path d="M55.48 229.81a.69.69 0 0 1-.25 0c.07-.66.1-1.32.21-2 .41-2.34 1.5-3 3.79-2a42.7 42.7 0 0 1 4.68 2.36c1 .59 1.22.21 1.21-.74s0-1.61 0-2.41c0-4.7 0-4.7-3.93-7.16-.47-.3-1-.53-1.22-1.13a28.4 28.4 0 0 1 5 3.37 1.28 1.28 0 0 1 .45 1.13c0 2.16.38 4.42-.13 6.46-.29 1.18 0 2.38-.48 3.48-1.08-2.06-3.29-2.46-5.09-3.46-.24-.13-.38.2-.53.36a1.83 1.83 0 0 1-1-1.26c-.17-.53-.32-1-1-1a1.24 1.24 0 0 0-1.19 1c-.26 1.05-.37 2.03-.52 3Z" class="cz"/>
  <path fill="#83f8e8" d="m52.65 211.31-1.84-1.66c-.38-.34-.65-.33-.73.25a2.64 2.64 0 0 1-2 2.35 1.68 1.68 0 0 1-2.05-.84 1.47 1.47 0 0 1 .53-2.1 5.3 5.3 0 0 1 1.36-.75c.91-.28.36-.61.06-.95-.87-.93-1.81-1.79-2.68-2.73-.35-.38-1-.71-.6-1.41 2.3 1.88 4.18 4.21 6.5 6.08.68.54 1.61.86 2 1.77Z"/>
  <path d="M11.09 234.87c.08.84.65.94 1.32.92.29 0 .63 0 .74.29.18.47-.32.48-.54.68-.74.66-1.5 1-2.35.17l-1.14.83Z" class="db"/>
  <path d="m55.79 236.05-.3-6.24a28.77 28.77 0 0 1 .54 6.28Z" class="as"/>
  <path d="M56 236.08a14.2 14.2 0 0 1 .84 5.17 17.81 17.81 0 0 1-.84-5.17ZM56.9 241.47c.81 1.32.67 2.82.86 4.26a10.54 10.54 0 0 1-.86-4.26Z" class="as"/>
  <path fill="#703b7d" d="M104.18 22.13c1.59.83 3.18 1.65 4.76 2.5a6.05 6.05 0 0 1 1.83 1.55c.18.23.29.51 0 .76a.48.48 0 0 1-.65 0c-2.53-1.88-5.49-2.89-8.35-4.1a1 1 0 0 1 0-.17c.87-.54 1.6.3 2.44.27-.11-.23-.28-.41-.24-.66Z"/>
  <path d="M93.3 23.33h1.72c-.45.57-1.55.13-1.71 1.13h-.56c-.57 0-.55-.42-.42-.76a.63.63 0 0 1 .97-.37ZM95.58 25.92a2.65 2.65 0 0 1-2.27-1.44 9.29 9.29 0 0 1 2.27 1.44Z" class="dd"/>
  <path d="M168.59 233.75c3.33-1.23 6.36-3.14 9.75-4.23-.26.21-.5.43-.77.61a1.35 1.35 0 0 0 .11 2.44c.33.18.72.25 1 .43.86.5.88 1.06 0 1.57-.6.36-1.33.55-1.26 1.5 0 .42.09 1.14-.67.87-.53-.18-1.55-.16-1.23-1.17.41-1.31 0-2.15-1.27-2.5a2.83 2.83 0 0 0-3.21 1.68c-.34 1.2.36 2.09 1.12 2.87.94 1 .68 3.46-.54 4-.66.29-1-.34-1-.84 0-2.17-1.76-4-1.24-6.26a.9.9 0 0 0-.79-.97ZM183.57 230.59a2.66 2.66 0 0 1-.61 1.21 1 1 0 0 1-1 .25c-.43-.08-.46-.43-.45-.77a1.39 1.39 0 0 0-.41-1.16.74.74 0 0 1-.17-1.11 1 1 0 0 1 1.25-.39 2.15 2.15 0 0 1 1.39 1.97Z" class="de"/>
  <path d="M194.85 238c-.07.48.12 1-.37 1.09s-.73-.32-.89-.71a3.47 3.47 0 0 1-.23-.95c-.05-.53-1-1.19-.15-1.52.7-.27 1.14.63 1.44 1.26a3.18 3.18 0 0 1 .2.83ZM205.1 231.18c-.32.44.56 1.3-.45 1.44-.54.07-1.24.29-1.64-.42a.79.79 0 0 1 .25-1.11c.61-.4 1.27-.59 1.85.12ZM165.53 234.89a12 12 0 0 1 2.54-.9c.26.77.1 1.15-.82 1.31-.73.13-1.62 0-2.18.77a.29.29 0 0 1-.48 0c-.17-.25-.06-.42.17-.57s.51-.41.77-.61ZM182.85 227.22a1.61 1.61 0 0 1 1.74.9c.15.33.46.71 0 1s-.71.07-1-.17a1.86 1.86 0 0 1-.74-1.73ZM191.31 242.27a2.74 2.74 0 0 1 2.2 0c.33.15.79.31.6.79a.73.73 0 0 1-1.08.32 18.88 18.88 0 0 1-1.72-1.11ZM165.44 239.17a.63.63 0 0 1-.68.57c-.24 0-.5 0-.41-.35s.22-.65.62-.66.4.19.47.44ZM163.46 237.27c-.1.23-.23.44-.5.4s-.66-.28-.64-.63.33-.42.64-.35a.56.56 0 0 1 .5.58Z" class="i"/>
  <path d="M171.6 243c.23.52.33.93-.07 1.25a.3.3 0 0 1-.47-.13c-.18-.58.1-.88.54-1.12Z" class="de"/>
  <path d="M180.44 231.58c0 .34-.24.46-.54.45a.36.36 0 0 1-.37-.45c0-.3.19-.54.52-.51s.33.27.39.51Z" class="i"/>
  <path d="M58.07 243.16a10.75 10.75 0 0 1-1.1-4.32 63.85 63.85 0 0 1-.65-10.84c0-.47 0-1 .54-1.19s.86.22.88.79c-.83-.68-1.1-.32-1.13.58a58.07 58.07 0 0 0 .72 10.29c.24 1.53.49 3.11.74 4.69ZM58.61 246a7.11 7.11 0 0 1-.54-2.84l.51 1.13Z" class="as"/>
  <path d="M94.72 30.77a85.87 85.87 0 0 1 6.45 6.35 44.54 44.54 0 0 0 8 6.47 16.29 16.29 0 0 0 3.36 2.06c.3.11.63.34.57.72s-.52.34-.81.46c-.78.34-1.7-.14-2.46.4L95.25 48.3a58.41 58.41 0 0 1-9.07-.3c-3.48-.29-7-.72-10.38-1.35a116.94 116.94 0 0 1-13-3.14c-4-1.23-7.5-3.24-11.24-4.87a38.14 38.14 0 0 1-4.92-3C45.48 34.65 44 34.12 43 32.9a1.22 1.22 0 0 1 .18-2c3.18-2.76 7.08-4.33 10.65-6.46a1 1 0 0 1 1.4.13c-.39.84.06 1.29.73 1.69a80.57 80.57 0 0 0 8.08 3.83c6.68 3 13.76 4.4 21 5.38 3.89.53 7.81.7 11.73.86a3.08 3.08 0 0 0 .43 0c.49-.07 1.18.23 1.4-.34s-.43-.78-.74-1.11c-.85-.89-1.76-1.72-2.59-2.63-.38-.41-.92-.8-.55-1.48Z" class="c"/>
  <path d="M24.78 79.94c2.09-6.16 6.23-11 10-16.17a97.12 97.12 0 0 0 5.66-8.3c1.49-1.23 1.45-1.21 2.43.62a64.48 64.48 0 0 0 6.63 10.78c.89.45 1.19 1.45 1.91 2.06a.6.6 0 0 1 .06.89.67.67 0 0 1-.89.18 9 9 0 0 1-1.76-.88 37 37 0 0 1-6.51-6.9c1.52 2.11 2.82 4.39 4.92 6 .44.35.89.7 1.32 1.07 1.09 1 1 1.55-.33 2.2a73.27 73.27 0 0 0-7.31 4A9.1 9.1 0 0 0 39 77.11c2.53-1.57 5.16-3 7.76-4.38a9.94 9.94 0 0 1 3.45-1.25c.3 0 .61 0 .74.27s-.14.52-.38.67a47.91 47.91 0 0 0-11 10 2.81 2.81 0 0 0-.81 1.17c-1.2 2.31-3.06 2.92-5.56 2.43a32 32 0 0 1-6.53-1.82c-2.83-1.13-2.98-1.46-1.89-4.26Z" class="df"/>
  <path fill="#aa4aba" d="M44.08 50.31c1.05-2 2.55-3.82 3.33-6C48 42.69 49 41.22 49 39.39c0-.47.23-.69.72-.63a2.48 2.48 0 0 1 1.83 2.37c-1.31 7.18-.87 14.43-.85 21.65 0 1.2.47 2.39.07 3.83-2.61-3.06-4.34-6.46-6.33-9.7.19-2.22.45-4.44-.36-6.6Z"/>
  <path d="M55.16 24.47a1.66 1.66 0 0 0-1.09.21c-3.47 2.25-7.41 3.72-10.6 6.45-.79.66-.82 1-.1 1.6 1.1.94 2.19 1.9 3.28 2.85-1.61-1.17-3.34 0-5-.27a11.06 11.06 0 0 0-1.82 0c.1-.77.74-.56 1.19-.63a8.4 8.4 0 0 0 1.8-.13c-.85-1.77-1.55-1.73-3.89.19.19.36.7.22.89.56-.28.45-.75.25-1.14.32-.62.34-.92-.09-1-.55a17.17 17.17 0 0 1-.94-4.81c0-.67.06-1.28.81-1.64.36-.17-.36-.58 0-.92.63-.35.93.21 1.29.51.54.45 1 1 1.54 1.45a1.54 1.54 0 0 0 2.15.05 47.78 47.78 0 0 1 10-5.73 2.43 2.43 0 0 1 1-.3c.41 0 .81-.17 1.22-.22.58-.07 1 .06 1 .8-.2.18-.32.35-.59.21Z" class="z"/>
  <path fill="#685e51" d="M39.51 82.47c1.49-2.64 3.87-4.47 6-6.5 1.6-1.52 3.43-2.75 5.18-4.16a5.93 5.93 0 0 0-3.45 1 81.17 81.17 0 0 0-8.07 4.7c-.25.18-.62.45-.89.18s.08-.69.33-.92a32.7 32.7 0 0 1 6.16-4 39 39 0 0 1 3.55-1.76c1-.44 1-1 .15-1.45-2.91-1.74-4.61-4.55-6.52-7.18-.24-.33-.79-.83-.21-1.19.41-.26.69.34.93.67a31.71 31.71 0 0 0 6.79 7.18c.5.37 1.13 1.12 1.7.55s-.44-1-.67-1.46a7.19 7.19 0 0 0-1-1.34c.8 0 1 .74 1.44 1.12a8.17 8.17 0 0 1 .68.9c.43.77.22 1.29-.69 1.37-1.06.11-1.06.08-1.45 1a.63.63 0 0 0 .26.07c.57-.07 1.35-.58 1.65.12s-.58 1-1.1 1.38a50 50 0 0 0-9.56 8.53c-.37.5-.62 1.02-1.21 1.19Z"/>
  <path fill="#d18fee" d="M44.08 50.31c.52-.19.89-.24.91.53a30 30 0 0 0 .19 5.36c.13.59-.29.71-.77.71-.61-1.52-1.92-2.75-1.79-4.56l1.22-2Z"/>
  <path fill="#3e1f44" d="M37.55 27.64c0 .74.85 1 1.08 1.65-.52.26-.76-.82-1.27-.29S37 30 37 30.47c-.13 1.67.78 3.12 1 4.72 0 .29.4.37.69.4l-.27.52a13.13 13.13 0 0 1-1.36.28c-.4 0-.63-.13-.38-.59.76-1.37.1-2.68-.17-4-.13-1.59.07-3.19-.53-4.9l1.29.46a.29.29 0 0 1 .28.28Z"/>
  <path fill="#a377af" d="M21.07 165.25h1.14c.68.34 1.32.77.11 1.18-1.4.48-2.47 1.74-4.09 1.66a25.49 25.49 0 0 1 2.57-1.39c.95-.39.74-.87.27-1.45Z"/>
  <path d="M64.88 240.59c-.81-2.11-.13-4.12.34-6.17a23.35 23.35 0 0 0 .78-6.82c.43-1.57.2-3.2.44-4.79.14-.92.32-1.06 1.09-.45a174.76 174.76 0 0 0 14.63 10.2 145.93 145.93 0 0 0 13.25 7.89c3.71 1.85 7.14 4.28 10.87 6.06 2.76 1.32 5.35 3.05 8.37 3.78.3.07.71.09.75.53s-.33.55-.59.73a38.61 38.61 0 0 0-4.41 3.33c-.81.72-1.07.16-1.47-.46a33.35 33.35 0 0 0-8-8.69c-2.8-2.07-5.46-1.6-8.25-.59-2.44.89-4.82 1.94-7.18 3-.81.37-1.14.24-1.57-.47a73.56 73.56 0 0 0-4.74-7.22 36.83 36.83 0 0 0-4.35-4.45c-1.13-1-2.66-.75-4.14.66s-2.87 2.76-4.23 4.21c-.77.81-1.22.68-1.59-.28ZM143.85 243.21c.37 1-1.14 1.25-.8 2.2a7.32 7.32 0 0 1-2.05 4.24c-.95 2.57-3.33 3.18-5.53 4.07-1.22.5-2.4 1.08-3.58 1.66-.54.28-.7.15-.85-.43a13.75 13.75 0 0 0-2.5-5.78c-.75-.9.33-1.11.84-1.3 1.33-.48 2.71-.81 4.05-1.26a75.47 75.47 0 0 0 8.24-2.94 9.08 9.08 0 0 1 2.18-.46Z" class="dl"/>
  <path fill="#6e5f60" d="M141 249.65c.68-1.41 1.36-2.83 2.05-4.24.16.19 0 1 .37.56 1.23-1.49 2.74-.94 4.19-.78a5.13 5.13 0 0 1 2.54.59 2.45 2.45 0 0 1-2 .24c-3.36-.45-3.36-.46-5.07 2.45a8.71 8.71 0 0 1-.56 1c-.63.82-.08 1.11.58 1.37a1.88 1.88 0 0 1-2 .55c-.25-.57.54-1.2-.1-1.74Z"/>
  <path fill="#bec2e7" d="M143.06 250.83c-.52-.18-1.09.58-1.44.12s.24-1 .46-1.51c.45-1 1-1.91 1.5-2.87a2 2 0 0 1 2.07-1.15c1.49.14 3 .24 4.5.36.75.25 1.5.52 2.27.75s.68.64.23 1.12a4.72 4.72 0 0 1-2.58 1 47.6 47.6 0 0 0-7.01 2.18Z"/>
  <path d="M202.78 215.3c.62 1 .15 2.1.29 3.15-.77-.55-.23-2-1.69-2.16Z" class="an"/>
  <path d="m37.55 27.64-.29-.29A66.21 66.21 0 0 1 30.42 18a47.76 47.76 0 0 1-6-13 1.94 1.94 0 0 1 0-1.56A32.1 32.1 0 0 1 26.78 6c2.8 3.48 6.41 6 10.07 8.41a41.41 41.41 0 0 0 9.87 5.09c.2.07.34.31.51.46s-.88 0-.21.65A14.18 14.18 0 0 0 52.38 24a.5.5 0 0 1 .29.28 42.17 42.17 0 0 0-10 5.74 1.85 1.85 0 0 1-2.79-.17 12.64 12.64 0 0 0-2.33-2.21Z" class="c"/>
  <path fill="#6b3a7e" d="M55.48 24.18c-.07-.52-.36-.57-.81-.43s-.74.44-1.18.17c-.11-.72.76-.61.92-1.11-.73-.8-2.24-.11-2.7-1.41 1.42-.08 2.69.58 4 .81a1.29 1.29 0 0 0 1.76.7 1.16 1.16 0 0 1 .54-.11 5 5 0 0 0 4.31-.8 11.22 11.22 0 0 0 5 1.21A77.93 77.93 0 0 0 85.14 23c1-.13 2.1.16 3-.53 1.35-1.42 1.74-1.4 2.72.09.09.84-.62.37-1 .57.27.73 1.14 1.12 1.12 2v.55a1 1 0 0 1-.9-.32 2.43 2.43 0 0 0-2.24-.58 85.36 85.36 0 0 1-15.73.72 102 102 0 0 1-11.55-1.42 7 7 0 0 0-3.91.21 1 1 0 0 1-1.17-.11Z"/>
  <path fill="#ce8bec" d="M51.71 21.4c1.09.75 2.54.55 3.78 1.38l-2 1.14c-.36-.08-.57.18-.82.34-2.79-.36-4.63-2.18-6.45-4.07.35-.38.71-.17 1-.28a29.06 29.06 0 0 0 4.49 1.49Z"/>
  <path fill="#322429" d="M49.25 156.17c2 .07 3.68-.72 5.46-1.33l1.34-.44c.32.25.82.45.68.93s-.66.23-1 .39c-.54.27-1.22 0-1.74.39a10 10 0 0 0-3.42.75c-.57.14-1.38.5-1.32-.69Z"/>
  <path d="m48.09 207.35 1.51 1.31a5.22 5.22 0 0 0-2.93 1 1.07 1.07 0 0 0-.43 1.58c.34.62.88 1.27 1.7.84s1.7-.5 1.67-1.65c0-.16.3-.33.47-.49 0 .78.28 1.8-.7 2.12s-2.21 1.09-3.3 0c-.56-.56-.92-.32-1.17.28s-.73 1-.6 1.7c.17.92-.42 1-1.11 1-1.33 0-1.75.53-1.43 1.94.1.44.48.86.23 1.36a2.09 2.09 0 0 1-1.48 1c-.63.13-.46-.58-.66-.89-.39-.58-.76-.94-1.5-.6a1.63 1.63 0 0 1-1 .11c-1.67-.28-2.75.48-2.72 2.18a3 3 0 0 1-.94 2.36 3.45 3.45 0 0 0-.64 1.25c-.33 1-.94 1-1.8.73-.51-.17-1.19-.71-1.6.15-.33.7.34.95.66 1.43 1 1.55 1.75 1.06 2.64 0a2.2 2.2 0 0 1 1.48-.75c1.65-.23 2.07-.9 1.54-2.47a9.42 9.42 0 0 0-.54-1.16.57.57 0 0 1 .27-.83 3.47 3.47 0 0 1 3.27.68c.61.91.24 2-1 2.86-1.4 1-1.42 1 0 2a1.36 1.36 0 0 1 .7 1.53 1.09 1.09 0 0 0 .61 1.19c.6.22.57-.47.8-.77.58-.76 1.19-1.16 1.93-.23s1.67.53 2.48.87c.3.12.74.09.8.47s-.45.53-.75.71a1.65 1.65 0 0 1-1.76.06 1.38 1.38 0 0 0-2.2.62 5 5 0 0 1-1 1c-.22.21-.62.4-.76.19-1.36-2-3.07.5-4.63-.39-.7-.41-1 .79-.93 1.36s-.23 1.86 1 1.95a1.89 1.89 0 0 1 2 1.48 1.08 1.08 0 0 1-.26 1.19.88.88 0 0 1-1.17-.14 3.82 3.82 0 0 0-2.62-1.17c-.74 0-.73-.9-.9-1.45-.38-1.21-.78-2.14-2.36-1.4a1.21 1.21 0 0 1-1.71-.81 4.05 4.05 0 0 0-3-2.82c-1-.24-1.26-.77-.4-1.55.31-.28.6-.6.94-.86s.49-.36.77-.18a.59.59 0 0 1 .19.76c-.3.72.15 1.18.58 1.62.84.84 1.46.67 1.8-.47.08-.27.16-.54.25-.81.27-.78 1.11-1.78-.8-1.53-.47.06-1.09-.54-1.53-1s-.6-.92.24-1.14c1-.26 1.52-1 1.17-1.92a3.93 3.93 0 0 0-2.47-1.94c-.13 0-.41.18-.56.35s0 .38.21.53a6 6 0 0 1 .53.48 1 1 0 0 1 .23 1.28.59.59 0 0 1-.72.31c-.44-.15-.85-.49-.78-.91.23-1.31-1.32-2.51-.15-3.9.29-.34-.23-.76-.72-.79s-1.23 0-1.84-.06l2.61-4.59c.51 1.45.52 1.48 2.24 1.08a1.66 1.66 0 0 1 1.89.6 2.9 2.9 0 0 0 .82.78 2.27 2.27 0 0 1 1.1 2.67c0 .23-.1.46-.13.69-.05.47-.22 1 .14 1.36s.54.07.75-.12c.47-.4 1.13-.9.8-1.51-.84-1.55-.38-2.68.79-3.78.5-.46.08-.75-.39-.87a2.05 2.05 0 0 1-1.6-1.78 3.58 3.58 0 0 0-.87-1.44c-.93-1.27-.88-2.07.19-3.46a2 2 0 0 1 2.88-.63 2.38 2.38 0 0 0 3-.64c1.41-1.44 1.5-1.41 3.16-.25a1 1 0 0 0 1.18.1 1.92 1.92 0 0 1 2.14 0 .53.53 0 0 0 .27.1c1.4-.31 2.34-.07 2.66 1.61.13.67 1 .54 1.57.15s1-.87 1.7-.82Z" class="db"/>
  <path d="m48.09 207.35-.87.72c-.6.52-1.12 1.22-2.08.78s-1.07-1.32-1-2.41a2.5 2.5 0 0 1-3-.11c-.34-.28-.71 0-1 .27-.79.77-1.45.51-2-.32s-1.17-.78-1.84-.13c-.3.3-.63.58-.9.91a2 2 0 0 1-2.89.47c-1-.57-1.87-.7-2.62.32-1.17 1.58-1.16 2 0 3.34.21.25.54.5.58.78a2.26 2.26 0 0 0 2.31 2.29c.55.05.37.59.14.9a6.66 6.66 0 0 1-1 1 1.51 1.51 0 0 0-.28 2.24c.65 1-.57 3.05-1.73 3a.56.56 0 0 1-.58-.51 1.83 1.83 0 0 1 0-1c.91-2.21-.34-3.56-1.83-4.86a.88.88 0 0 0-1-.26 4.88 4.88 0 0 1-.5.23c-2 .63-2.32.43-2.1-1.52q2.76-5.42 5.5-10.83a4.36 4.36 0 0 0 .6-1.55c1.49-2.16 2.09-4.72 3.14-7.08a2.53 2.53 0 0 1 1.48-1.57 1.56 1.56 0 0 1 2.22.7c2.32 3.67 5.24 6.89 7.89 10.32.75 1.59 2.42 2.41 3.36 3.88Z" class="cy"/>
  <path d="M15.09 228.66c.68.29 1.37.58 2 .88s1-.09 1.25-.57a4.94 4.94 0 0 1 3.29-2.23 1.26 1.26 0 0 1 1.45.24c.42.53-.16 1-.42 1.2a7.38 7.38 0 0 0-2.5 3.45.69.69 0 0 1-.56.38c-1.59-.2-3.18.42-4.71.23a2.7 2.7 0 0 0-2.52.66c.93-1.42 1.83-2.83 2.72-4.24ZM21 218.63a.29.29 0 0 0 0 .13c.61 1.51-.2 2-1.52 2.2.52-.78 1.05-1.56 1.52-2.33ZM16.77 226a3 3 0 0 1-1.49 2.33 7.42 7.42 0 0 1 1.49-2.33Z" class="db"/>
  <path fill="#3a2043" d="M104.05 22.28c.24.47.93.46 1.12 1.13-1.24.21-2.19-.72-3.32-.74-1.64-1.34-3.4-.34-5.22-.19.35-1 .74-1.71 1.93-1.23.64.26.77-.34 1-.73.22.07.44.15.67.2 1.08.27 2.57-.46 3 1.29.09.15.55.19.82.27Z"/>
  <path d="M88.75 22.77c-1.21.81-2.63.57-4 .69-7.33.7-14.66 1-21.92-.65-.55-.13-1-.17-.56-.84A13.29 13.29 0 0 1 66 21.3a2 2 0 0 0 .1.21c-.08.46-.65.48-.81.92a35.31 35.31 0 0 0 6.77.78 107.56 107.56 0 0 0 15.12-.75 1.86 1.86 0 0 1 1.57.31Z" class="ds"/>
  <path d="M69.13 20.5h2a.38.38 0 0 1-.19.47 7.24 7.24 0 0 1-4.87.48L66 21.3a19.37 19.37 0 0 1 3.13-.8Z" class="ds"/>
  <path d="m18.26 88.77-1.5 1.69a6.91 6.91 0 0 1 1.49-2.7c.33.39-.15.71 0 1Z" class="bl"/>
  <path fill="#fbebe2" d="m54.68 68.29-.64.3c-1.56-.07-1.24-1.3-1-2.09a42 42 0 0 1 1.8-5.78c.76-1.9 1.85-3.68 2.63-5.58.5-1.25 1.48-2.17 2-3.38.25-.58.86-.66 1.47-.4a30.54 30.54 0 0 1 3 1.25 19.92 19.92 0 0 0 5.27 1.94c1.49.36 2.09 1.06 2 2.55 0 .49-.18 1 .26 1.48a20 20 0 0 0 1.34 5.55c.36 1.18.28 1.63-1.13 1.68a66.05 66.05 0 0 0-13.86 1.66 27.07 27.07 0 0 0-3.14.82Z"/>
  <path fill="#bd3f48" d="M106.71 185.47a1.07 1.07 0 0 0 .25 0c4.87-.82 9.78-.61 14.68-.53 3.38.06 6.69.89 10 1.37 2.33.34 4.5 1.22 6.85 1.49a8.17 8.17 0 0 1 4.36 2.46c.93.84 1.81 1.75 2.71 2.64a36.35 36.35 0 0 0 2 3.32c1.95 2.68 1.16 5.44.63 8.22a11 11 0 0 0-.28 1.5c-.09.12-.18.13-.26 0 0-1.11-.94-1.6-1.61-2.22a36.5 36.5 0 0 0-28.3-9.54 70 70 0 0 0-7.26 1 22 22 0 0 0-8.26 3.46 2 2 0 0 0-.74 1.58c-.14 1.36.44 2.68.15 4-1.14-6.24-.68-12.21 3-17.61a4.43 4.43 0 0 1 2.08-1.14Z"/>
  <path d="M147.67 205.92h.26a8.5 8.5 0 0 1-2.36 5.35c.74-1.76 1.83-3.39 2.1-5.35Z" class="ci"/>
  <path d="M109.25 216.13a9.16 9.16 0 0 1-2.25-2.27 4.27 4.27 0 0 1 2.25 2.27Z" class="co"/>
  <path d="M33.85 92.15a6.14 6.14 0 0 0-1.28 2.79c-.43 1.65-1.07 3.23-1.55 4.85a2.23 2.23 0 0 1-1.56 1.52 17.29 17.29 0 0 1-8.54.51c-.78-.12-.6-.65-.54-1.19a51.68 51.68 0 0 0 .72-6.46l1.9-8.85c.22-.18.13-.43.17-.65.24-1.27.58-1.47 1.71-.85a25.21 25.21 0 0 0 9.74 2.75c1.79.17 1.94.42 1 2a11 11 0 0 0-.7 1.37Z" class="df"/>
  <path fill="#7f7566" d="M35 89.89a3.67 3.67 0 0 1 .87-2c.34-.59.16-.91-.5-.91a22 22 0 0 1-11-3c-.46-.27-.67-.14-.83.32s0 .89-.46 1.11a19.58 19.58 0 0 1 1.74-5.38.89.89 0 0 1 0 .28c-.62 2.54-.62 2.55 1.77 3.57a23.63 23.63 0 0 0 7.65 2c1.6.11 3.16.11 3.92-1.74.07-.18.36-.27.55-.4-.32 1.34-2 2-2.19 3A7.81 7.81 0 0 1 35 89.89Z"/>
  <path fill="#e0edfe" d="M37.54 110.08c.3-3.21 1.77-6 3-8.94 1.72-4.19 4.66-7.57 7.69-10.77a46.08 46.08 0 0 1 8.5-6.72c2.23-1.45 4.67-2.41 6.94-3.72a1.94 1.94 0 0 1 1.91 0c-.33.52-1 .4-1.25.89a1.13 1.13 0 0 1-.53.79 10.49 10.49 0 0 0-2.35 1.89c-.32.31-.63.62-1 .92a6.9 6.9 0 0 1-.6.47 14.7 14.7 0 0 0-3.42 4.22c-.45.74.06.77.56.86-.21 1.59-1 2.11-2.41 1.5-.35-.15-.66-.28-.86.08-.46.88-1.19 1.58-1.64 2.46a1.58 1.58 0 0 0 .12 1.61 1.44 1.44 0 0 1 .31 1.32 3.11 3.11 0 0 0-1.29 2.17c-.11.38-.22.76-.36 1.13a9.28 9.28 0 0 0-.85 2.27 54.76 54.76 0 0 0-1.43 5.31c-.43.88-1 1.15-1.91.6-2.35-1.22-3.49-3.34-4.22-5.74-.14-.45-.12-1-.75-1s-.79.55-1.09 1.06c-1.25 2.13-1.09 4.76-2.49 6.82-.12.17-.3.44-.58.52Z"/>
  <path d="M59.38 136.82c-3.58-1.55-5.67-4.54-7.46-7.8-.47-.87-1-1.66-1.58-2.49-1.06-1.6-1.07-3.52-1.42-5.34l.2-.06c.5.26.45.8.66 1.22a25.24 25.24 0 0 0 1.39 3.56c1.93 3.88 4.15 7.53 7.94 9.94a.87.87 0 0 1 .48.66.37.37 0 0 1-.21.31ZM60 139.38a29.32 29.32 0 0 1-6.32-2.54c1.63 0 2.94 1.06 4.43 1.53 1.19.37 1.63 0 1.89-1 1.52.08 2.43 1.27 3.59 2a.38.38 0 0 1 0 .61.65.65 0 0 1-.79 0 17 17 0 0 0-2.8-.6ZM46.67 108.38a1.4 1.4 0 0 0 1.72-.86 3 3 0 0 1 .34 2.45 37.93 37.93 0 0 0 .48 9.4 2 2 0 0 1-.21 1.76l-.08.06a7.31 7.31 0 0 1-.77-3.52c0-1.88-.44-3.74-.34-5.61a5.41 5.41 0 0 0-1.14-3.68Z" class="dx"/>
  <path d="M62.87 140c.18 0 .42 0 .53-.11.29-.28-.08-.4-.22-.49-1-.67-2.09-1.32-3.15-2l-.65-.56.09-.3a.68.68 0 0 1 .91 0 39.42 39.42 0 0 1 3.93 2.86c.21.42.84.38 1 1a3.32 3.32 0 0 1-2.44-.4Z" class="dy"/>
  <path fill="#1a1d22" d="M86.5 82.48a19.38 19.38 0 0 1 5.68 5.44 30.6 30.6 0 0 1 6 13.91 45.34 45.34 0 0 1 .92 10.77 34.89 34.89 0 0 1-.5 6.6v.72a4 4 0 0 1-3.14 1.38.59.59 0 0 1-.28-.46c-.13-1-.55-1.25-1.55-.84s-1.59-.07-1.33-1.28a2.25 2.25 0 0 1 1.22-.29c1.7-.05 2-.27 2.4-2a23.91 23.91 0 0 0 .27-8.88c-.56-4.06-1-8.16-2.43-12-.88-2.44-1.81-4.89-3.78-6.72a3.49 3.49 0 0 1-1-.79 18.59 18.59 0 0 0-7.19-5.37A11.67 11.67 0 0 0 73 81.5c-1.1.24-1.34.92-.49 1.53a13.3 13.3 0 0 1 4 5.23c1 2.16 2.92 3.48 4.57 5a7.67 7.67 0 0 1 .64 11 5.86 5.86 0 0 1-.6.79 1.64 1.64 0 0 1-1.84-.52 1.32 1.32 0 0 1 .41-1.66c3.25-3.29 1.88-6.52-.91-8.78a13.19 13.19 0 0 1-3.93-4.87 16.5 16.5 0 0 0-4.61-5.7C69 82.48 69 82.22 70 81c.52-.65.86-1.5 1.76-1.78 2.89-.68 5.71 0 8.54.43 2.03.92 4.21 1.67 6.2 2.83Z"/>
  <path fill="#56686c" d="M49 121.13c-.14-1.87-.53-3.71-.67-5.59a76.63 76.63 0 0 1 .06-8 22.93 22.93 0 0 1 1.32-5.15c.8-1.59.8-1.59 2.3-.49a12.75 12.75 0 0 0 6.77 2.66 11.49 11.49 0 0 0 4.65-1.09 22.28 22.28 0 0 0 8.21-5.7 2.56 2.56 0 0 0 .78-2.07 18 18 0 0 0-1.64-6.55 6.11 6.11 0 0 0-2.63-2.69 18.21 18.21 0 0 0-5.67-2.15c-.48-.09-.94-.19-1.11-.73.41-1.13 1.63-1.41 2.34-2.23l.58-.55h.86a3.57 3.57 0 0 0 2.25 2.83 11.86 11.86 0 0 1 6.58 8c.53 2.23 2.12 3.44 4.07 4.39a2.65 2.65 0 0 1 1.21 3.58.35.35 0 0 1-.45.22 1.5 1.5 0 0 1-.38-1.31c0-.88-.27-1.45-1.28-1.44a1.81 1.81 0 0 0-1.91 1.51 1.36 1.36 0 0 0 .28 1.19 3 3 0 0 0 .44.36 2.28 2.28 0 0 0 2.09-.18c.27-.17.57-.35.86 0 .09 1-.55 1.27-1.29 1.35a8.82 8.82 0 0 1-3.24 0 5 5 0 0 0-4.4.93c-1.09.75-2.16 1.52-3.32 2.17-4.35 2.34-8.79 3.4-13.51 1-.8-.4-1.74-.45-2.52-.93-.52-.32-.8 0-.89.48a9.37 9.37 0 0 0-.37 2.23 40.8 40.8 0 0 0-.26 6 11.27 11.27 0 0 0 .14 3.43c.08 1.63.45 3.23.64 4.85a1.13 1.13 0 0 1-.39.9Z"/>
  <path d="M66.59 104.11c1.47-1 2.94-2 4.43-2.92a4 4 0 0 1 3.38-.28 9.87 9.87 0 0 0 3.47 0 1.06 1.06 0 0 0 .93-1.08c.73-1.85.49-2.67-1.25-3.55a8 8 0 0 1-4.24-5.6 9.5 9.5 0 0 0-5.6-6.4c-1.38-.58-1.86-1.94-3.14-2.53-.58-.28.48-.57.58-1a12.83 12.83 0 0 1 3.68-1.16l.11.18c-.83 2.2.13 3.43 2 4.66a10.53 10.53 0 0 1 3.71 5.11 8.74 8.74 0 0 0 4 5 3.54 3.54 0 0 1 .45.34 5 5 0 0 1 1.82 5.18 4.71 4.71 0 0 1-4.68 3.23 3.92 3.92 0 0 1-1.13-.12c-2.25-.66-4.44-.85-6.51.6-.6.43-1.27.9-2.01.34Z" class="eb"/>
  <path fill="#4a6762" d="m98.37 120 .06-.54c.08-.14.17-.14.26 0l-.26 2.27c-.59 1.6-.83 3.33-1.75 4.81-.4.73-.76.24-1.1-.06-1.93-1.67-3.82-1.08-4.34 1.37a1.74 1.74 0 0 0 1.76 2.3c1.87.14 1.87.14.83 1.77-.07.12-.15.24-.22.37l-.25.29c-.59.5-.89 1.33-1.78 1.47-1.74-1.43-1.34-1.3-2.87-.12a7 7 0 0 1-2.12 1.35.76.76 0 0 1-.39-.1.52.52 0 0 1-.09-.38c.78-1.17 2-1.84 3-2.82.69-.83-.62-.5-.56-1-1.26-2.38-.77-4.57.76-6.63a2.41 2.41 0 0 1 1.58-1.11 18.21 18.21 0 0 1 5.41.43c.67.19.81-.22 1-.67.36-1 .39-2.09 1.07-3Z"/>
  <path d="M98.69 119.47h-.26c.18-2.67.55-5.34.48-8a33 33 0 0 0-.71-8 7.2 7.2 0 0 1 0-1.68 22.44 22.44 0 0 1 1 7.51 47.07 47.07 0 0 1-.51 10.17Z" class="ed"/>
  <path d="M80.25 79.62a29.14 29.14 0 0 1-3.5-.28 15.38 15.38 0 0 0-5.33.06 2.23 2.23 0 0 1-2.53.32l-.06-.09a17.66 17.66 0 0 1 11.42-.01ZM86.5 82.48a40.1 40.1 0 0 1-6.25-2.87 18.05 18.05 0 0 1 6.25 2.87Z" class="eb"/>
  <path fill="#6b3b54" d="m225.19 58.07.9.25a8.09 8.09 0 0 1 1.42 2.9c1.61 4.19 3.21 8.39 5.13 12.43A81.42 81.42 0 0 0 240 86.39a33.76 33.76 0 0 0 2.17 3.09c-.09-1.34-.28-2.63-.44-3.93-.08-.65-.28-1.32.24-1.89.46 2.73 1.93 5.41.31 8.22a116.39 116.39 0 0 1-7.73-11.44 115 115 0 0 1-9.06-21.14c-.09-.41-.19-.82-.3-1.23Z"/>
  <path fill="#a2a1a1" d="M93.6 132.29c-.07-.72.66-1.12.73-1.83-.15 0-.3-.09-.41-.05a2.37 2.37 0 0 1-3-1 3.16 3.16 0 0 1 3.28-4.25 2.28 2.28 0 0 1 1.58 1.11c.22.37.42.63.86.3a13.27 13.27 0 0 1-3.04 5.72Z"/>
  <path fill="#94959a" d="M91.58 133.92c.82-.14 1-1.15 1.77-1.34-1.23 1.94-3.07 3.29-4.76 4.77-.14.12-.26.25-.39.38-.19.33-.69.58-.29 1.07a3 3 0 0 1-1.91.55c-.51 0-.49-.27-.44-.61a.56.56 0 0 1 .26-.47 24.09 24.09 0 0 0 4.88-4 .91.91 0 0 1 .88-.35Z"/>
  <path d="m87.91 138.8-1.15-.13 1.44-.94c0 .4.3.5.63.55Z" class="a"/>
  <path fill="#d790fa" d="m242 83.66.78 6.72a1.84 1.84 0 0 1-1.29-1 129.76 129.76 0 0 1-8.06-13.26 131.9 131.9 0 0 1-6.14-14.56 20.8 20.8 0 0 1-1.21-3.25c.2-.32.53-.21.82-.22 1.76 1.13 3.54 2.25 5.29 3.4a51.63 51.63 0 0 1 6.67 5.4c.58 1.16.4 2.5.82 3.71.56 1.64.5 3.4.91 5.08Z"/>
  <path d="M240.6 75.69c-.72-1.62-.62-3.39-.91-5.08a12 12 0 0 1 .91 5.08Z" class="cr"/>
  <path fill="#291d2a" d="M173.79 133.41c.68-.73 2.07-1.24 1.65-2.38s-1.62.12-2.64-.37a61.84 61.84 0 0 1 7.52-2.71c1.25-.35 2.57-.52 3.52-1.56.15-.17.37-.42.59-.24 1.17 1 2.38.24 3.57.11l1.15-.24c1.07 0 .68.58.27.91-2.75 2.21-3 5.17-2.61 8.36a1.8 1.8 0 0 1-.23 1.21 60.94 60.94 0 0 0-12.58 2.63c-2.23.65-4.14 2.09-6.48 2.38a9.15 9.15 0 0 1-3.91-.52 62.9 62.9 0 0 0 10.18-7.58Z"/>
  <path fill="#bec2ea" d="m59.2 228.08-.3-1.08a22.89 22.89 0 0 1 5.69 3c.38.28.19.79.23 1.2-.43.53-.25 1.15-.26 1.74-.21.66-.11 1.36-.38 2-.13.33-.09.78-.52.86s-.56-.38-.75-.68-.13-.54-.31-.76a48.8 48.8 0 0 0-3.4-6.28Z"/>
  <path d="M62.6 234.36c.57.24.35 1.39 1.06 1.21s.37-1.06.57-1.61c.13-.34.22-.69.33-1a3.29 3.29 0 0 1-.12 1.65c-.25.66 0 1.9-.79 1.84s-.99-1.23-1.05-2.09Z" class="cz"/>
  <path fill="#eae4ea" d="M202.16 132.59a14.58 14.58 0 0 1 3.09.43c.71.17 1.24.46 1.27 1.27s-.55 1.08-1.26 1.22a12.59 12.59 0 0 1-5 .21c-.79-.14-1.36-.44-1.45-1.27a1.5 1.5 0 0 1 1.18-1.56 5 5 0 0 1 2.17-.3Z"/>
  <path fill="#f9f4f9" d="M196.28 130.57h.85c.49 0 1 .09 1.13.65a1.2 1.2 0 0 1-.43 1.27 7.93 7.93 0 0 1-5.69 1.68.73.73 0 0 1-.74-.55 1.3 1.3 0 0 1 .48-1.39 6.62 6.62 0 0 1 4.4-1.66Z"/>
  <path fill="#1e2121" d="M91.58 133.92c-1.87 1.78-3.62 3.7-6 4.82-.13 0-.36.07-.38.15-.54 1.94-2.3 1.62-3.64 1.82-1.72.26-3.41.8-5.12.94s-3.33-.07-5 0a8.72 8.72 0 0 0-2.47.2c-.43.14-1.8.24-1.83-1.07a.78.78 0 0 0-.64-.81c-.71-.22-1.44-.41-2.16-.61a14 14 0 0 1-3.51-2.18 2.33 2.33 0 0 0-1.33-.67c-4.09-2.49-6.68-6.2-8.57-10.48-.44-1.53-1.28-2.93-1.32-4.57a18.42 18.42 0 0 1-.68-4.84c-.28-1.13.08-2.29-.2-3.41A28.52 28.52 0 0 1 49 107c1-.76 1.61.23 2.35.59a1.08 1.08 0 0 1 .1.43c-1.33 6.37-.06 12.47 2.11 18.41a14.79 14.79 0 0 0 3.39 5.16c1.41.63 2.35 1.85 3.56 2.73a29.81 29.81 0 0 0 6.16 3.08c.27.11.53.24.79.36 6.32 2.12 12.34 1.85 17.91-2.16.37-.27.79-.25 1.17-.43 1-.82 2.06-1.64 3.1-2.44.6-.51 1.2-.13 1.94 1.19Z"/>
  <path d="M60 139.38a4.05 4.05 0 0 1 2.84.57 7.28 7.28 0 0 1-2.84-.57Z" class="dy"/>
  <path fill="#453432" d="M202.46 51.18c-3-.25-6-.3-9.07-.43a24.09 24.09 0 0 1 7.68-1c1.14-.18 1.39.5 1.39 1.43Z"/>
  <path d="M106.71 185.47a5.86 5.86 0 0 1-2 1.14 1.68 1.68 0 0 1 2-1.14Z" class="bt"/>
  <path d="M54.68 68.29a5.36 5.36 0 0 1 3.07-.82 7.35 7.35 0 0 1-3.07.82Z" class="bb"/>
  <path fill="#b18ac5" d="M60.57 153.55a2.71 2.71 0 0 1-2.93.85c.72-1.26 2-1.94 2.73-3 .75-.28.48.34.46.59a14.41 14.41 0 0 1-.26 1.56Z"/>
  <path d="M55.48 24.18c3.6-1.7 7.15-.21 10.68.28a79.48 79.48 0 0 0 15.84.47 54 54 0 0 0 6.34-.73c1.43-.27 1.86.81 2.64 1.46A15.43 15.43 0 0 0 93.36 29c.28.7 1 1 1.34 1.71 0 .54.45.81.78 1.14 1.13 1.14 2.28 2.27 3.4 3.42.27.28.77.52.5 1s-.63.37-1 .37c-1.37 0-2.75 0-4.11-.06a110.57 110.57 0 0 1-13.47-1.31c-6-1.18-12.06-2.47-17.67-5.19a83.63 83.63 0 0 1-7.86-3.81c-1.06-.67-1.3-1.12-.11-1.8Z" class="e"/>
  <path fill="#331e3b" d="M91 25.11a10.22 10.22 0 0 0-1.2-1.33c-.5-.38-.72-.88-.38-1.29s.64.23 1 .39c.13.06.24.11.33-.05a.73.73 0 0 1 1.1-.09c.46.26 1.25-.3 1.46.59-.69.15-1.17.39-.55 1.16-.3 1.01-1.18.37-1.76.62Z"/>
  <path d="M94.7 30.74c-.55-.49-1.28-.85-1.34-1.71.53.5 1.24.86 1.34 1.71Z" class="c"/>
  <path fill="#d190f1" d="m91.84 22.74-1.1.09c-.29-.56-.65-1.13-1.31-1.14s-.49.69-.68 1.08c-4.31.34-8.6 1-13 .89-3.72-.06-7.45.05-11.1-.88-.29-.08-.79.12-.8-.33s.48-.49.85-.52a2.79 2.79 0 0 0 1.31-.49c1.68-.37 3.47-.11 5.06-1a86.08 86.08 0 0 1 15.56-.42 47.22 47.22 0 0 1 7.58 1 2.08 2.08 0 0 1 1.34.61c-1.12.88-2.55.48-3.71 1.11Z"/>
  <path d="M14.28 236.59c-.06-.26-.16-.57-.21-.9-.13-.92.3-1.41 1.19-1.2a1.9 1.9 0 0 0 1.62-.18c.61-.43 1.21-.77 1.94-.31a2.41 2.41 0 0 1 1 2.35 2.07 2.07 0 0 1-1.33 2c-.39.13-.73.29-.93-.21-.45-1.16-1.27-1.06-2.21-.7-.7.28-1.5.56-1.07-.85Z" class="db"/>
  <path d="M26.23 233.62c.47-.1.95-.24 1.06.37s.16 1.06-.39 1.39c-.2.12-.45.16-.65.27-.69.36-1.43 1-2.18.48s-.28-1.45-.07-2.2c.4-1.37 0-1.78-1.71-1.85-.43 0-1 .2-1.18-.46a1.39 1.39 0 0 1 .51-1.38.7.7 0 0 1 1-.07 4 4 0 0 0 1.76.82c.59.09.65.51.55 1.07-.22 1.25.16 1.64 1.3 1.56Z" class="g"/>
  <path d="M23.27 234.36c-.16 1-.34 1.93-.49 2.9a1.69 1.69 0 0 1-.91 1.19c-.52.32-1-.08-.74-.5.86-1.37-.2-2.28-.66-3.32a1.26 1.26 0 0 1 .15-1.55c.75-.65 1.47.2 2.22.25.47.04.54.58.43 1.03ZM38.47 238.05a1.82 1.82 0 0 1 1.93 1.72c.12.89-.47 1.17-1.18 1.24s-2.22-1.2-2.17-1.92.83-.88 1.42-1.04ZM25.15 237.3a1.81 1.81 0 0 0 1.9-1.19c.22-.46.52-1.16 1.25-.6a1.1 1.1 0 0 1 .16 1.64c-.52.77-2.07.96-3.31.15Z" class="db"/>
  <path d="M31 236.23c0 .63-.08 1.28-.65 1.17-1.16-.22-.94-1.32-1-2.15-.07-.55.15-1.33.64-1.22 1.16.27.7 1.53 1.01 2.2Z" class="g"/>
  <path fill="#bb86cf" d="M39.82 35.27a8.19 8.19 0 0 1-1 0c-.7-.1-.63-.45-.2-.83a15.17 15.17 0 0 1 1.53-1.25c1.2-.85 2.4-.26 3.55 1.74-1.29.35-2.66-.18-3.88.39Z"/>
  <path fill="#ca8fe1" d="M38.16 29.57c.52.56 1.49 1.22 1.82 2.11s-.95 1.1-1.47 1.66c-.29.32-.64.2-.74-.21a11.89 11.89 0 0 1-.39-3.2c.01-.25.14-.44.78-.36Z"/>
  <path d="M40.57 212.22c.29 0 .55.15.56.49s-.19.28-.38.27a.55.55 0 0 1-.51-.41c-.05-.22.12-.33.33-.35Z" class="cy"/>
  <path d="M27.3 211.64c.11-.46-.16-1.06.5-1.08s.7.44.63.9-.21 1.09-.71 1.1c-.72.02-.18-.69-.42-.92Z" class="db"/>
  <path fill="#f9fefe" d="M52.34 97v-.14c-2-2.39.21-4 1.13-5.79.21-.41.44-.72 1-.37 1.42.92 1.68.83 2.46-.81-.2-.56.2-.88.51-1.22A9.19 9.19 0 0 1 67.51 87c2.63 1.42 3.61 5.1 2.34 8.22a13.38 13.38 0 0 1-5.53 6.06c-2.72 1.77-5.75 1.69-8.81 1.47a2 2 0 0 1-.45-.15 20.45 20.45 0 0 1-1.74-1.18 3.56 3.56 0 0 1-.98-4.42Z"/>
  <path fill="#768a8e" d="M61.47 83.36a1.05 1.05 0 0 0 .91.57 14 14 0 0 1 7.62 3.4c1.64 1.54 2 3.86 2.58 6 .79 3-.36 4.86-2.72 6.61a34.21 34.21 0 0 1-5.42 3.52c-4.48 2.18-8.78 1.86-12.64-1.32-1.07-.88-1.47-.59-2.09.22a4.54 4.54 0 0 1 .88-2.26c.68-.68 1.1-.13 1.5.33a8.57 8.57 0 0 0 9 2.91 18.36 18.36 0 0 0 8.26-4.67 5.77 5.77 0 0 0 2-4.83c-.17-2.74-.74-5.36-3.51-6.79a1.28 1.28 0 0 1-.37-.23c-1.62-1.42-3.64-1.12-5.47-1.5-.71-.14-1.86.22-1.71-1.19l.8-.82a.25.25 0 0 1 .38.05Z"/>
  <path d="M67.71 86.77c3.05 1.07 3.58 3.77 4 6.44.51 3.66-1.75 5.84-4.45 7.75a17.68 17.68 0 0 1-6.94 3 8.6 8.6 0 0 1-6.74-1.61 4.4 4.4 0 0 1-1.87-1.83.73.73 0 0 0-1.07-.36L51 99c.37-.59 1-1.12 1.18-.07.29 1.93 1.57 2.74 3.09 3.45a11.22 11.22 0 0 0 9.3-1.16 15.24 15.24 0 0 0 3.7-2.77 6.75 6.75 0 0 0 2.07-5.61c-.11-1 .24-2.08-.35-3-.45-1.31-1.91-1.79-2.28-3.07Z" class="ev"/>
  <path fill="#b7c2cc" d="M67.71 86.77c.7 1 2 1.52 2.29 2.81.84 2.88.8 5.69-1.1 8.14a9.46 9.46 0 0 1-3.73 3.18c-.29.12-.57.37-.89.07 1-1.09 2.36-1.69 3.32-2.84a8.89 8.89 0 0 0 2.37-7A4.82 4.82 0 0 0 66.65 87a8.48 8.48 0 0 0-9.74 2.87l-.56.41c-.18.14-.35.39-.6.19s-.13-.46 0-.74a13.08 13.08 0 0 1 4-5.27c.45.88-.53 1.18-.79 2.06 3-1.33 5.94-1.51 8.74.21Z"/>
  <path d="M67.71 86.77c-1.28.16-2.23-.85-3.52-.91a12.34 12.34 0 0 0-4.9 1c-.36.14-.77.32-1-.11s.25-.54.44-.79c.35-.48 1-.76 1-1.46l.52-.37c.06.75.76.8 1.16.74 1.24-.17 2.33.47 3.52.48a3.13 3.13 0 0 1 2.78 1.42Z" class="ev"/>
  <path d="M55.22 102.38a3.49 3.49 0 0 1-3.12-3c-.17-1-.53-.92-1.15-.42.29-.78-.06-2 1.39-2-.51 2.64.92 4.17 2.88 5.42Z" class="ex"/>
  <path d="M61.47 83.36h-.39a7 7 0 0 1 2.63-2c-.48.94-1.51 1.31-2.24 2Z" class="ev"/>
  <path d="M49.58 121.47c.34 1.55 1.18 3 1.32 4.57a9.36 9.36 0 0 1-1.4-3.71Z" class="ey"/>
  <path fill="#003c2f" d="M51.22 107.82v-.3c.12-1.1.89-.92 1.56-.72s1.54.47 2.28.74a7.75 7.75 0 0 0 6.7-.15 1.52 1.52 0 0 1 1.24-.16c1.89.74 3.52-.22 4.89-1.12a10.68 10.68 0 0 1 6.8-1.87c1.56.15 3.13-.32 4.68.15l1.7.57c3 1.53 5.08 4 7.3 6.41 2 2.17 2.8 4.89 3.81 7.53.23.71.42 1.5 1.4.72.43-.36.87-.67 1.35-.19s.88 1 .37 1.74c0 .7-.61.66-1 .67a25.72 25.72 0 0 0-2.78.33c-.14 0-.32 0-.38-.16-1-1.82-2.29-1.63-3.76-.69a3.3 3.3 0 0 1-.67.23c-2.92 1-3.94.76-6-1.55a6.34 6.34 0 0 0-1.52-1.45c-2.13-1.54-4.55-1.35-7-1.13a14 14 0 0 0-2.79.42 2.6 2.6 0 0 1-1.89-.44c-1.92-.91-3.86-1.78-5.8-2.64a2 2 0 0 0-2.6.69 15.4 15.4 0 0 0-3 6.52c-.16.67-.3 1.37-1.28 1-.39-.55-.14-1.11 0-1.63a33.76 33.76 0 0 1 3.68-8.42c1.53-2.37 1.44-2.49-1.23-2.93-1.12-.19-2.26-.18-3.38-.41a3.74 3.74 0 0 1-2.68-1.76Z"/>
  <path fill="#001314" d="M92.18 118.9c-1.27-.74-1.17-2.18-1.61-3.31-1-2.58-3-4.34-4.69-6.4-1.37-1.7-3.44-2.55-4.81-4.23 0-1.27 1.14-1.9 1.66-2.88A7.17 7.17 0 0 0 81.28 94c-2.62-2.36-5.14-4.76-6.54-8.14a6.19 6.19 0 0 0-2.39-2.37c-.5-.33-1.07-.74-.89-1.47s.81-.83 1.43-1a12.86 12.86 0 0 1 8.29.83c.31.15.6.26.75.59-.88.59-1.64 0-2.4-.3a9.94 9.94 0 0 0-3-.72c-1.16 0-1.43.42-.78 1.37 2.62 3.84 5.47 7.44 9.44 10.05a29.09 29.09 0 0 1 5.5 4.66c.32.34.56.91 1.11.44s1.66-.48 1.3-1.56c-.69-2.09-1-4.36-2.52-6.12-.43-.48-1.08-1-.67-1.85 1.84 1.13 2.56 3 3.38 4.87 1.92 4.3 2.53 8.91 3.18 13.51a25 25 0 0 1-.27 10.05c-.56 2.07-.63 2-2.74 1.93a10.64 10.64 0 0 0-1.28.13Z"/>
  <path fill="#01080a" d="M89.89 88.47a2.34 2.34 0 0 0 .81 1.46c1.81 1.83 2 4.34 2.82 6.57.23.59.21 1.18-.8 1.42-1.44.33-1.58.28-2.85-.74-1.83-1.47-3.58-3-5.49-4.43s-4.06-2.85-5.44-5c-1.09-1.71-2.66-3.07-3.68-4.85-.69-1.21-.46-1.7.94-1.79a6.85 6.85 0 0 1 2.89.57 10.11 10.11 0 0 0 2.84.85 15.56 15.56 0 0 1 7 5c.3.31.68.58.96.94Z"/>
  <path fill="#203032" d="M79.37 104.39c-1.59.52-3.22.21-4.83.29-.42-.31-1.15-.48-.83-1.22a1 1 0 0 1 1.39-.46c1.68-.07 3.28 0 4.6-1.53a4.14 4.14 0 0 0-.79-6.09c-2.57-1.5-3.92-3.76-5-6.37a10.79 10.79 0 0 0-4.32-5.06c-1.93-1.2-1.92-1.31-.69-4.2l2.53-.32a6 6 0 0 1-1.52 2.16c-.56.58-.42 1 .14 1.37a17.94 17.94 0 0 1 6 8 4 4 0 0 0 1.8 1.92 9.15 9.15 0 0 1 3.34 3.56 5.08 5.08 0 0 1-.9 6.33c-.43.45-1.03.84-.92 1.62Z"/>
  <path d="M91.31 122a4.33 4.33 0 0 1 2.54-.56c.49 0 1 .18 1.45-.28l3.07-1.16a15.49 15.49 0 0 1-1 3.78c-.1.26-.1.87-.54.62-1.74-1-3.62-.72-5.47-.74-.11 0-.22-.15-.33-.23a.93.93 0 0 1 .28-1.43Z" class="ed"/>
  <path d="M75.1 103c-1.34.19-1.5.77-.56 1.71a8.67 8.67 0 0 0-6.33 1.79 15.16 15.16 0 0 1-3.6 1.57.36.36 0 0 1-.28 0c-1.64-1.13-3 .12-4.48.49a6.37 6.37 0 0 1-3.88-.29c-1.09-.44-2.3-.48-3.32-1.14a.92.92 0 0 0-1.43.39c-.86.26-1.36-.88-2.23-.56.17-.87.35-1.75.49-2.62s.38-.81 1.12-.46c3.48 1.67 7 3.31 11 2.16 1.7-.48 3.31-1.28 5-1.93a4.65 4.65 0 0 0 2.46-1c2-1.21 4.01-.95 6.04-.11Z" class="ey"/>
  <path fill="#e7f6fa" d="m75.66 100.45-.3-.3c-.8-1.77-.09-3.21 1.6-3.29 1 0 1.65.23 1.7 1.37.07 1.36-.42 2.21-1.47 2.31a3.31 3.31 0 0 1-1.53-.09Z"/>
  <path fill="#9dadb1" d="M75.66 100.45h1.12a1.73 1.73 0 0 0 1.78-2c0-1-.6-1.4-1.56-1.36a2 2 0 0 0-1.87 2 8.32 8.32 0 0 0 .23 1.08c-1-.69-.7-1.57-.27-2.37a2.25 2.25 0 0 1 2.81-1c1 .26 1 1.13 1 2 0 .37 0 .75-.06 1.13-.97.75-1.96 1.24-3.18.52Z"/>
  <path d="M48.7 113.22c.47 1.11.16 2.27.2 3.41a10.57 10.57 0 0 1-.2-3.41Z" class="ey"/>
  <path fill="#3d9b72" d="M88.75 131.11c.42.11 1-.24 1.25.26s-.31.69-.67.89a4.24 4.24 0 0 0-2.32.44c-4.94 1.35-9.9 1.05-14.86.21-2.3-.53-4.55-1.22-6.81-1.9-1-.29-1.73-.95-2.71-1.19a.59.59 0 0 1-.39-.68 4 4 0 0 0 1.14-2.33 6.79 6.79 0 0 1 1.28-3.34c.18-.16.37-.3.54-.46 1.43-1.41 2.61-2 4.85-.8a24.12 24.12 0 0 0 9.86 2.32c1.45.08 3 .08 3.68 1.81a13.69 13.69 0 0 1 .09 4.19c-.13 1.55 0 1.73 1.6 1.38a16.64 16.64 0 0 0 2.15-.66c.42-.16.84-.46 1.32-.14Z"/>
  <path fill="#065d4a" d="M88.75 131.11a16.35 16.35 0 0 1-4.52 1.45c-1 .12-1.35-.3-1.13-1.21a21.44 21.44 0 0 0 .26-5.06c-.8-1.39-.73-3.13-1.79-4.44a26.24 26.24 0 0 0-1.71-2.08c-.39-.4-.89-.75-.83-1.41a.21.21 0 0 1 .35 0c1.35.57 1.91 2 3.09 2.81a3.15 3.15 0 0 0 2.77.52 14.8 14.8 0 0 0 2.5-.87c2.38-1.11 2.37-1.12 3.57 1.23l-.31 1.4a5.6 5.6 0 0 0-2.6 6.3c.17.45.25.9.35 1.36Z"/>
  <path fill="#7fe7db" d="M72 132.54a43.74 43.74 0 0 0 12.77.3 15.81 15.81 0 0 0 3.24-1c.56-.18 1-.22 1.32.38l-3.13 2.57a16.67 16.67 0 0 1-2.45 1.43 7.71 7.71 0 0 1-1.59.62c-.57 0-1.16.44-1.71-.07 0-.69.56-1.06.81-1.6.44-1 .21-1.41-.8-1.26a24.59 24.59 0 0 1-7.56-.46c-.61-.09-1.37-.08-1.54-1a.51.51 0 0 1 .64.09Z"/>
  <path fill="#116054" d="m82.24 136.57 1.41-.61c1 0 1.5-1.14 2.53-.87h.35a17.44 17.44 0 0 1-13.29 4.22 17.73 17.73 0 0 1-6.11-1.31c.67-.66 1.42-.28 2.13-.14a29.13 29.13 0 0 0 6.7.84 4.83 4.83 0 0 0 2.58-.6 12.66 12.66 0 0 1 3.7-1.53Z"/>
  <path d="M86.18 135.09c-.92.07-1.49 1.16-2.53.87.86-.36 1.51-1.19 2.55-1.13a2.28 2.28 0 0 1-.02.26Z" class="fj"/>
  <path fill="#f3f4f8" d="M95.58 126.87a3 3 0 0 1-2.76 3.13 1.55 1.55 0 0 1-1.7-1.54 2.86 2.86 0 0 1 2.66-3 1.75 1.75 0 0 1 1.8 1.41Z"/>
  <path fill="#012426" d="M51.22 107.82c2.29 2 5.2 1.55 7.88 1.93 1.21.17 1.38.44.82 1.43-.77 1.38-1.48 2.8-2.25 4.19a35 35 0 0 0-2.76 7.51 18.09 18.09 0 0 0 .89 3.22 39.74 39.74 0 0 0 1.2 4.78 1.07 1.07 0 0 1 0 1.12.65.65 0 0 1-.61-.29c-1.56-2.33-3.27-4.57-4-7.38a48.43 48.43 0 0 1-1.79-11.11 13.94 13.94 0 0 1 .62-5.4Z"/>
  <path fill="#04705a" d="M57 132a27 27 0 0 1-1.56-6 .27.27 0 0 1 0-.36c.58-.08.81.39 1.1.74a55.91 55.91 0 0 0 7.91 8.22c.54.57 1.12 1.09 1.63 1.69.32.37.69.76.47 1.34a21.09 21.09 0 0 1-8.7-5.13c-.24-.23-.48-.5-.85-.5Z"/>
  <path d="M66.58 137.66c-.5-1.16-1.59-1.83-2.31-2.8a.63.63 0 0 1 .66-.18 18.14 18.14 0 0 0 13.14 2.63c.83-.13 1.51-.87 2.42-.52l1.75-.22c-3.09 1.83-6.22 3.27-10 2.3a22 22 0 0 0-5.11-.89Z" class="fj"/>
  <path d="M64.28 101a9.55 9.55 0 0 0 6-7.74 10.7 10.7 0 0 0-.28-3.68c.16.17.4.32.46.52a9.15 9.15 0 0 1-4.76 10.81 17 17 0 0 1-3.61 1.82c-2.17.53-4.35 1-6.53.08-.15-.06-.23-.28-.35-.43 3.12.15 6.22.21 9.07-1.38Z" class="ex"/>
  <path fill="#015845" d="M55.52 125.7c0 .11-.05.22-.08.33-.16-1.06-1.32-1.94-.53-3.15.59 0 .78-.22.88-.81a14.88 14.88 0 0 1 3.07-7c.8-1 1.62-1.44 2.92-.76 1.49.78 3.22 1.19 4.61 2.11 1.85 1.24 3.68.88 5.62.61a11.43 11.43 0 0 1 6.87.78 2.27 2.27 0 0 1 .5.48h-.31a2.56 2.56 0 0 1-1.79-.08c-4.36-1.15-7.87.32-10.81 3.5a22 22 0 0 0-1.62 2 12.81 12.81 0 0 0-1.4 4.47 1 1 0 0 1-1.12.94c-.55.24-.86-.22-1.23-.46a30.56 30.56 0 0 1-5.24-4.45c-.18.58.14 1.14-.34 1.49Z"/>
  <path fill="#308762" d="M64.85 123.73a10.65 10.65 0 0 1 12.34-5.9c.62.18 1.25.34 1.88.51.88 1.16 2 2.07 2.84 3.31a9.69 9.69 0 0 1 1.45 4.64c-.87-1.32-2.3-1.37-3.61-1.38a33.6 33.6 0 0 1-7.84-1.53c-1.27-.33-2.69-.53-3.65-1.71-.39-.48-.83 0-1.21.3-.72.6-1.46 1.17-2.2 1.76Z"/>
  <path fill="#77edda" d="m55.52 125.7-.31-2.27c2.53 2 4.62 4.11 7.12 5.71a24.74 24.74 0 0 0 4.71 2c1.66.43 3.31.94 5 1.41h-.63c-.49.47-1.06.27-1.6.18a22.8 22.8 0 0 1-4.36-1.23c-1-.39-1.23-.12-1.26.94 0 .9.86 1.47.7 2.37h-.58a59.69 59.69 0 0 1-8.79-9.11Z"/>
  <path fill="#b1fdfb" d="M64.85 134.84a3.85 3.85 0 0 1-1.14-2.59c0-1.41.49-1.78 1.81-1.15a17.16 17.16 0 0 0 5.85 1.48 21.14 21.14 0 0 0 8.57 1c.72 0 1.72-.58 2 .11a2.06 2.06 0 0 1-.73 2.26 8.36 8.36 0 0 0-.76.81c-3.91 2.36-12.72 1.16-15.6-1.92Z"/>
</svg>